<svg width="266" height="246" viewBox="0 0 266 246" fill="none" xmlns="http://www.w3.org/2000/svg">
<path d="M34.276 161.796H71.996V180H11.316V65.528H34.276V161.796Z" fill="black"/>
<path d="M33.35 44C35.3833 44.4333 37.0167 45.45 38.25 47.05C39.4833 48.6167 40.1 50.4167 40.1 52.45C40.1 55.3833 39.0667 57.7167 37 59.45C34.9667 61.15 32.1167 62 28.45 62H12.1V26.9H27.9C31.4667 26.9 34.25 27.7167 36.25 29.35C38.2833 30.9833 39.3 33.2 39.3 36C39.3 38.0667 38.75 39.7833 37.65 41.15C36.5833 42.5167 35.15 43.4667 33.35 44ZM20.65 41.1H26.25C27.65 41.1 28.7167 40.8 29.45 40.2C30.2167 39.5667 30.6 38.65 30.6 37.45C30.6 36.25 30.2167 35.3333 29.45 34.7C28.7167 34.0667 27.65 33.75 26.25 33.75H20.65V41.1ZM26.95 55.1C28.3833 55.1 29.4833 54.7833 30.25 54.15C31.05 53.4833 31.45 52.5333 31.45 51.3C31.45 50.0667 31.0333 49.1 30.2 48.4C29.4 47.7 28.2833 47.35 26.85 47.35H20.65V55.1H26.95ZM72.609 34.1V62H64.059V58.2C63.1923 59.4333 62.009 60.4333 60.509 61.2C59.0423 61.9333 57.409 62.3 55.609 62.3C53.4757 62.3 51.5923 61.8333 49.959 60.9C48.3257 59.9333 47.059 58.55 46.159 56.75C45.259 54.95 44.809 52.8333 44.809 50.4V34.1H53.309V49.25C53.309 51.1167 53.7923 52.5667 54.759 53.6C55.7257 54.6333 57.0257 55.15 58.659 55.15C60.3257 55.15 61.6423 54.6333 62.609 53.6C63.5757 52.5667 64.059 51.1167 64.059 49.25V34.1H72.609ZM90.1004 62.4C87.6671 62.4 85.5004 61.9833 83.6004 61.15C81.7004 60.3167 80.2004 59.1833 79.1004 57.75C78.0004 56.2833 77.3837 54.65 77.2504 52.85H85.7004C85.8004 53.8167 86.2504 54.6 87.0504 55.2C87.8504 55.8 88.8337 56.1 90.0004 56.1C91.0671 56.1 91.8837 55.9 92.4504 55.5C93.0504 55.0667 93.3504 54.5167 93.3504 53.85C93.3504 53.05 92.9337 52.4667 92.1004 52.1C91.2671 51.7 89.9171 51.2667 88.0504 50.8C86.0504 50.3333 84.3837 49.85 83.0504 49.35C81.7171 48.8167 80.5671 48 79.6004 46.9C78.6337 45.7667 78.1504 44.25 78.1504 42.35C78.1504 40.75 78.5837 39.3 79.4504 38C80.3504 36.6667 81.6504 35.6167 83.3504 34.85C85.0837 34.0833 87.1337 33.7 89.5004 33.7C93.0004 33.7 95.7504 34.5667 97.7504 36.3C99.7837 38.0333 100.95 40.3333 101.25 43.2H93.3504C93.2171 42.2333 92.7837 41.4667 92.0504 40.9C91.3504 40.3333 90.4171 40.05 89.2504 40.05C88.2504 40.05 87.4837 40.25 86.9504 40.65C86.4171 41.0167 86.1504 41.5333 86.1504 42.2C86.1504 43 86.5671 43.6 87.4004 44C88.2671 44.4 89.6004 44.8 91.4004 45.2C93.4671 45.7333 95.1504 46.2667 96.4504 46.8C97.7504 47.3 98.8837 48.1333 99.8504 49.3C100.85 50.4333 101.367 51.9667 101.4 53.9C101.4 55.5333 100.934 57 100 58.3C99.1004 59.5667 97.7837 60.5667 96.0504 61.3C94.3504 62.0333 92.3671 62.4 90.1004 62.4ZM104.931 48.05C104.931 45.15 105.515 42.6167 106.681 40.45C107.881 38.2833 109.531 36.6167 111.631 35.45C113.765 34.2833 116.198 33.7 118.931 33.7C122.431 33.7 125.348 34.6167 127.681 36.45C130.048 38.2833 131.598 40.8667 132.331 44.2H123.231C122.465 42.0667 120.981 41 118.781 41C117.215 41 115.965 41.6167 115.031 42.85C114.098 44.05 113.631 45.7833 113.631 48.05C113.631 50.3167 114.098 52.0667 115.031 53.3C115.965 54.5 117.215 55.1 118.781 55.1C120.981 55.1 122.465 54.0333 123.231 51.9H132.331C131.598 55.1667 130.048 57.7333 127.681 59.6C125.315 61.4667 122.398 62.4 118.931 62.4C116.198 62.4 113.765 61.8167 111.631 60.65C109.531 59.4833 107.881 57.8167 106.681 55.65C105.515 53.4833 104.931 50.95 104.931 48.05ZM135.205 48C135.205 45.1333 135.738 42.6167 136.805 40.45C137.905 38.2833 139.388 36.6167 141.255 35.45C143.121 34.2833 145.205 33.7 147.505 33.7C149.471 33.7 151.188 34.1 152.655 34.9C154.155 35.7 155.305 36.75 156.105 38.05V34.1H164.655V62H156.105V58.05C155.271 59.35 154.105 60.4 152.605 61.2C151.138 62 149.421 62.4 147.455 62.4C145.188 62.4 143.121 61.8167 141.255 60.65C139.388 59.45 137.905 57.7667 136.805 55.6C135.738 53.4 135.205 50.8667 135.205 48ZM156.105 48.05C156.105 45.9167 155.505 44.2333 154.305 43C153.138 41.7667 151.705 41.15 150.005 41.15C148.305 41.15 146.855 41.7667 145.655 43C144.488 44.2 143.905 45.8667 143.905 48C143.905 50.1333 144.488 51.8333 145.655 53.1C146.855 54.3333 148.305 54.95 150.005 54.95C151.705 54.95 153.138 54.3333 154.305 53.1C155.505 51.8667 156.105 50.1833 156.105 48.05Z" fill="#FF3D00"/>
<path d="M194.276 102.428C197.228 98.0546 201.273 94.5012 206.412 91.7679C211.66 89.0346 217.619 87.6679 224.288 87.6679C232.051 87.6679 239.048 89.5812 245.28 93.4079C251.621 97.2346 256.596 102.701 260.204 109.808C263.921 116.805 265.78 124.951 265.78 134.244C265.78 143.537 263.921 151.792 260.204 159.008C256.596 166.115 251.621 171.636 245.28 175.572C239.048 179.508 232.051 181.476 224.288 181.476C217.509 181.476 211.551 180.164 206.412 177.54C201.383 174.807 197.337 171.308 194.276 167.044V180H171.316V65.6399H194.276V102.428ZM242.328 134.244C242.328 128.777 241.18 124.076 238.884 120.14C236.697 116.095 233.745 113.033 230.028 110.956C226.42 108.879 222.484 107.84 218.22 107.84C214.065 107.84 210.129 108.933 206.412 111.12C202.804 113.197 199.852 116.259 197.556 120.304C195.369 124.349 194.276 129.105 194.276 134.572C194.276 140.039 195.369 144.795 197.556 148.84C199.852 152.885 202.804 156.001 206.412 158.188C210.129 160.265 214.065 161.304 218.22 161.304C222.484 161.304 226.42 160.211 230.028 158.024C233.745 155.837 236.697 152.721 238.884 148.676C241.18 144.631 242.328 139.82 242.328 134.244Z" fill="black"/>
<circle cx="103.5" cy="133.5" r="56.5" fill="#FCF3F3"/>
<rect x="100.526" y="130.526" width="59.4737" height="59.4737" fill="#FCF3F3"/>
<path d="M101.339 98.4115H101.546L101.641 98.3163C119.755 98.4278 134.457 113.198 134.457 131.338C134.457 136.99 132.855 142.367 130.304 146.996L130.081 147.402L130.469 147.655C130.992 147.998 131.479 148.393 131.921 148.836L131.921 148.836L141.499 158.413L141.509 158.424L141.52 158.434C142.465 159.273 143.227 160.296 143.762 161.44C144.296 162.585 144.591 163.827 144.628 165.089C144.665 166.352 144.444 167.609 143.978 168.783C143.512 169.957 142.81 171.023 141.917 171.917C141.024 172.81 139.958 173.511 138.784 173.977C137.61 174.443 136.353 174.665 135.09 174.627C133.827 174.59 132.586 174.295 131.441 173.761C130.297 173.227 129.273 172.464 128.434 171.52L128.424 171.509L128.414 171.498L118.836 161.92L118.82 161.904L118.802 161.889C118.374 161.533 117.979 161.138 117.622 160.709L117.358 160.392L116.996 160.591C112.384 163.133 106.913 164.456 101.339 164.456C83.1296 164.456 68.3164 149.643 68.3164 131.434C68.3164 113.225 83.1296 98.4115 101.339 98.4115ZM101.339 106.989H101.131L101.035 107.086C87.543 107.196 76.7984 118.01 76.7984 131.529C76.7984 145.119 87.6536 155.974 101.243 155.974C107.586 155.974 113.454 153.729 117.766 149.81L117.791 149.786L117.814 149.759C118.17 149.331 118.565 148.936 118.994 148.579L119.012 148.565L119.028 148.548L119.172 148.405L119.315 148.261L119.321 148.255L119.327 148.249C123.44 143.842 125.783 137.877 125.783 131.434C125.783 117.844 114.928 106.989 101.339 106.989Z" fill="white"/>
<path d="M101.339 98.4115H101.546L101.641 98.3163C119.755 98.4278 134.457 113.198 134.457 131.338C134.457 136.99 132.855 142.367 130.304 146.996L130.081 147.402L130.469 147.655C130.992 147.998 131.479 148.393 131.921 148.836L131.921 148.836L141.499 158.413L141.509 158.424L141.52 158.434C142.465 159.273 143.227 160.296 143.762 161.44C144.296 162.585 144.591 163.827 144.628 165.089C144.665 166.352 144.444 167.609 143.978 168.783C143.512 169.957 142.81 171.023 141.917 171.917C141.024 172.81 139.958 173.511 138.784 173.977C137.61 174.443 136.353 174.665 135.09 174.627C133.827 174.59 132.586 174.295 131.441 173.761C130.297 173.227 129.273 172.464 128.434 171.52L128.424 171.509L128.414 171.498L118.836 161.92L118.82 161.904L118.802 161.889C118.374 161.533 117.979 161.138 117.622 160.709L117.358 160.392L116.996 160.591C112.384 163.133 106.913 164.456 101.339 164.456C83.1296 164.456 68.3164 149.643 68.3164 131.434C68.3164 113.225 83.1296 98.4115 101.339 98.4115ZM101.339 106.989H101.131L101.035 107.086C87.543 107.196 76.7984 118.01 76.7984 131.529C76.7984 145.119 87.6536 155.974 101.243 155.974C107.586 155.974 113.454 153.729 117.766 149.81L117.791 149.786L117.814 149.759C118.17 149.331 118.565 148.936 118.994 148.579L119.012 148.565L119.028 148.548L119.172 148.405L119.315 148.261L119.321 148.255L119.327 148.249C123.44 143.842 125.783 137.877 125.783 131.434C125.783 117.844 114.928 106.989 101.339 106.989Z" stroke="white"/>
<path d="M101.339 98.4115H101.546L101.641 98.3163C119.755 98.4278 134.457 113.198 134.457 131.338C134.457 136.99 132.855 142.367 130.304 146.996L130.081 147.402L130.469 147.655C130.992 147.998 131.479 148.393 131.921 148.836L131.921 148.836L141.499 158.413L141.509 158.424L141.52 158.434C142.465 159.273 143.227 160.296 143.762 161.44C144.296 162.585 144.591 163.827 144.628 165.089C144.665 166.352 144.444 167.609 143.978 168.783C143.512 169.957 142.81 171.023 141.917 171.917C141.024 172.81 139.958 173.511 138.784 173.977C137.61 174.443 136.353 174.665 135.09 174.627C133.827 174.59 132.586 174.295 131.441 173.761C130.297 173.227 129.273 172.464 128.434 171.52L128.424 171.509L128.414 171.498L118.836 161.92L118.82 161.904L118.802 161.889C118.374 161.533 117.979 161.138 117.622 160.709L117.358 160.392L116.996 160.591C112.384 163.133 106.913 164.456 101.339 164.456C83.1296 164.456 68.3164 149.643 68.3164 131.434C68.3164 113.225 83.1296 98.4115 101.339 98.4115ZM101.339 106.989H101.131L101.035 107.086C87.543 107.196 76.7984 118.01 76.7984 131.529C76.7984 145.119 87.6536 155.974 101.243 155.974C107.586 155.974 113.454 153.729 117.766 149.81L117.791 149.786L117.814 149.759C118.17 149.331 118.565 148.936 118.994 148.579L119.012 148.565L119.028 148.548L119.172 148.405L119.315 148.261L119.321 148.255L119.327 148.249C123.44 143.842 125.783 137.877 125.783 131.434C125.783 117.844 114.928 106.989 101.339 106.989Z" stroke="white"/>
<circle cx="107.5" cy="123.5" r="56.5" fill="#FF3D00"/>
<rect x="104.526" y="120.526" width="59.4737" height="59.4737" fill="#FF3D00"/>
<path d="M105.339 88.4115H105.546L105.641 88.3163C123.755 88.4278 138.457 103.198 138.457 121.338C138.457 126.99 136.855 132.367 134.304 136.996L134.081 137.402L134.469 137.655C134.992 137.998 135.479 138.393 135.921 138.836L135.921 138.836L145.499 148.413L145.509 148.424L145.52 148.434C146.465 149.273 147.227 150.296 147.762 151.44C148.296 152.585 148.591 153.827 148.628 155.089C148.665 156.352 148.444 157.609 147.978 158.783C147.512 159.957 146.81 161.023 145.917 161.917C145.024 162.81 143.958 163.511 142.784 163.977C141.61 164.443 140.353 164.665 139.09 164.627C137.827 164.59 136.586 164.295 135.441 163.761C134.297 163.227 133.273 162.464 132.434 161.52L132.424 161.509L132.414 161.498L122.836 151.92L122.82 151.904L122.802 151.889C122.374 151.533 121.979 151.138 121.622 150.709L121.358 150.392L120.996 150.591C116.384 153.133 110.913 154.456 105.339 154.456C87.1296 154.456 72.3164 139.643 72.3164 121.434C72.3164 103.225 87.1296 88.4115 105.339 88.4115ZM105.339 96.9892H105.131L105.035 97.0858C91.543 97.1959 80.7984 108.01 80.7984 121.529C80.7984 135.119 91.6536 145.974 105.243 145.974C111.586 145.974 117.454 143.729 121.766 139.81L121.791 139.786L121.814 139.759C122.17 139.331 122.565 138.936 122.994 138.579L123.012 138.565L123.028 138.548L123.172 138.405L123.315 138.261L123.321 138.255L123.327 138.249C127.44 133.842 129.783 127.877 129.783 121.434C129.783 107.844 118.928 96.9892 105.339 96.9892Z" fill="white"/>
<path d="M105.339 88.4115H105.546L105.641 88.3163C123.755 88.4278 138.457 103.198 138.457 121.338C138.457 126.99 136.855 132.367 134.304 136.996L134.081 137.402L134.469 137.655C134.992 137.998 135.479 138.393 135.921 138.836L135.921 138.836L145.499 148.413L145.509 148.424L145.52 148.434C146.465 149.273 147.227 150.296 147.762 151.44C148.296 152.585 148.591 153.827 148.628 155.089C148.665 156.352 148.444 157.609 147.978 158.783C147.512 159.957 146.81 161.023 145.917 161.917C145.024 162.81 143.958 163.511 142.784 163.977C141.61 164.443 140.353 164.665 139.09 164.627C137.827 164.59 136.586 164.295 135.441 163.761C134.297 163.227 133.273 162.464 132.434 161.52L132.424 161.509L132.414 161.498L122.836 151.92L122.82 151.904L122.802 151.889C122.374 151.533 121.979 151.138 121.622 150.709L121.358 150.392L120.996 150.591C116.384 153.133 110.913 154.456 105.339 154.456C87.1296 154.456 72.3164 139.643 72.3164 121.434C72.3164 103.225 87.1296 88.4115 105.339 88.4115ZM105.339 96.9892H105.131L105.035 97.0858C91.543 97.1959 80.7984 108.01 80.7984 121.529C80.7984 135.119 91.6536 145.974 105.243 145.974C111.586 145.974 117.454 143.729 121.766 139.81L121.791 139.786L121.814 139.759C122.17 139.331 122.565 138.936 122.994 138.579L123.012 138.565L123.028 138.548L123.172 138.405L123.315 138.261L123.321 138.255L123.327 138.249C127.44 133.842 129.783 127.877 129.783 121.434C129.783 107.844 118.928 96.9892 105.339 96.9892Z" stroke="white"/>
<path d="M105.339 88.4115H105.546L105.641 88.3163C123.755 88.4278 138.457 103.198 138.457 121.338C138.457 126.99 136.855 132.367 134.304 136.996L134.081 137.402L134.469 137.655C134.992 137.998 135.479 138.393 135.921 138.836L135.921 138.836L145.499 148.413L145.509 148.424L145.52 148.434C146.465 149.273 147.227 150.296 147.762 151.44C148.296 152.585 148.591 153.827 148.628 155.089C148.665 156.352 148.444 157.609 147.978 158.783C147.512 159.957 146.81 161.023 145.917 161.917C145.024 162.81 143.958 163.511 142.784 163.977C141.61 164.443 140.353 164.665 139.09 164.627C137.827 164.59 136.586 164.295 135.441 163.761C134.297 163.227 133.273 162.464 132.434 161.52L132.424 161.509L132.414 161.498L122.836 151.92L122.82 151.904L122.802 151.889C122.374 151.533 121.979 151.138 121.622 150.709L121.358 150.392L120.996 150.591C116.384 153.133 110.913 154.456 105.339 154.456C87.1296 154.456 72.3164 139.643 72.3164 121.434C72.3164 103.225 87.1296 88.4115 105.339 88.4115ZM105.339 96.9892H105.131L105.035 97.0858C91.543 97.1959 80.7984 108.01 80.7984 121.529C80.7984 135.119 91.6536 145.974 105.243 145.974C111.586 145.974 117.454 143.729 121.766 139.81L121.791 139.786L121.814 139.759C122.17 139.331 122.565 138.936 122.994 138.579L123.012 138.565L123.028 138.548L123.172 138.405L123.315 138.261L123.321 138.255L123.327 138.249C127.44 133.842 129.783 127.877 129.783 121.434C129.783 107.844 118.928 96.9892 105.339 96.9892Z" stroke="white"/>
</svg>
