<svg width="32" height="32" viewBox="0 0 32 32" fill="none" xmlns="http://www.w3.org/2000/svg">
<path d="M0 0H31.5505V31.5505H0V0Z" fill="white" fill-opacity="0.01"/>
<path d="M19.288 20.0324C20.868 19.704 22.3016 19.1347 23.4161 18.2989C25.3193 16.8715 26.292 14.6669 26.292 12.4888C26.292 10.9608 25.7127 9.53426 24.7098 8.32601C24.1509 7.65273 25.7855 2.62924 24.3332 3.3058C22.8809 3.98236 20.7514 5.47989 19.6352 5.14939C18.4402 4.79555 17.1379 4.60114 15.7751 4.60114C14.5915 4.60114 13.4535 4.7478 12.3917 5.01821C10.8484 5.41126 9.37242 3.94384 7.88751 3.3058C6.40257 2.66776 7.21286 7.86353 6.77181 8.40994C5.81122 9.60005 5.2583 10.996 5.2583 12.4888C5.2583 14.6669 6.43544 16.8715 8.33862 18.2989C9.60642 19.2496 11.1964 19.8556 12.9751 20.1543" stroke="black" stroke-width="2" stroke-linecap="round"/>
<path d="M12.9753 20.1542C12.2138 20.9924 11.833 21.7882 11.833 22.5419V28.2711" stroke="black" stroke-width="2" stroke-linecap="round"/>
<path d="M19.2881 20.0324C20.0097 20.9795 20.3705 21.8298 20.3705 22.5834V28.2711" stroke="black" stroke-width="2" stroke-linecap="round"/>
<path d="M3.94385 20.5181C4.53468 20.5903 4.97288 20.862 5.25845 21.3331C5.68681 22.0396 7.27913 24.6607 9.0873 24.6607H11.8331" stroke="black" stroke-width="2" stroke-linecap="round"/>
</svg>
