<svg width="28" height="28" viewBox="0 0 28 28" fill="none" xmlns="http://www.w3.org/2000/svg">
<path d="M0 0H28V28H0V0Z" fill="white" fill-opacity="0.01"/>
<path d="M5.25033 7.00004C6.53899 7.00004 7.58366 5.95537 7.58366 4.66671C7.58366 3.37804 6.53899 2.33337 5.25033 2.33337C3.96166 2.33337 2.91699 3.37804 2.91699 4.66671C2.91699 5.95537 3.96166 7.00004 5.25033 7.00004Z" fill="#BDBDBD" stroke="black" stroke-width="2"/>
<path d="M2.91699 10.5H7.58366V25.0833H2.91699V10.5Z" fill="#BDBDBD" stroke="black" stroke-width="2" stroke-linejoin="round"/>
<path d="M16.3333 25.0833H12.25V16.9167C12.25 13.3729 15.1229 10.5 18.6667 10.5C22.2105 10.5 25.0833 13.3729 25.0833 16.9167V25.0833H21V16.8073C21 15.5187 19.9553 14.474 18.6667 14.474C17.378 14.474 16.3333 15.5187 16.3333 16.8073V25.0833Z" fill="#BDBDBD"/>
<path d="M12.2502 25.0834H11.0835C11.0835 25.7277 11.6058 26.25 12.2502 26.25V25.0834ZM16.3335 25.0834V26.25C16.9778 26.25 17.5002 25.7277 17.5002 25.0834H16.3335ZM21.0002 25.0834H19.8335C19.8335 25.7277 20.3558 26.25 21.0002 26.25V25.0834ZM25.0835 25.0834V26.25C25.7278 26.25 26.2502 25.7277 26.2502 25.0834H25.0835ZM12.2502 26.25H16.3335V23.9167H12.2502V26.25ZM17.5002 25.0834V16.8073H15.1668V25.0834H17.5002ZM19.8335 16.8073V25.0834H22.1668V16.8073H19.8335ZM21.0002 26.25H25.0835V23.9167H21.0002V26.25ZM26.2502 25.0834V16.9167H23.9168V25.0834H26.2502ZM11.0835 16.9167V25.0834H13.4168V16.9167H11.0835ZM26.2502 16.9167C26.2502 12.7285 22.855 9.33337 18.6668 9.33337V11.6667C21.5663 11.6667 23.9168 14.0172 23.9168 16.9167H26.2502ZM18.6668 15.6407C19.3112 15.6407 19.8335 16.163 19.8335 16.8073H22.1668C22.1668 14.8743 20.5998 13.3073 18.6668 13.3073V15.6407ZM18.6668 9.33337C14.4787 9.33337 11.0835 12.7285 11.0835 16.9167H13.4168C13.4168 14.0172 15.7673 11.6667 18.6668 11.6667V9.33337ZM17.5002 16.8073C17.5002 16.163 18.0225 15.6407 18.6668 15.6407V13.3073C16.7338 13.3073 15.1668 14.8743 15.1668 16.8073H17.5002Z" fill="black"/>
</svg>
