<svg width="155" height="155" viewBox="0 0 155 155" fill="none" xmlns="http://www.w3.org/2000/svg">
<path d="M27.6096 125.544C26.7284 124.663 25.988 123.186 25.9643 122.263C25.9406 121.34 24.6914 112.058 23.1883 101.636L20.4554 82.6873L13.7934 81.5971C2.52984 79.7538 0.00732422 75.7707 0.00732422 59.8285C0.00732422 51.1148 0.357566 48.8137 2.25732 45.0464C5.66313 38.2925 8.91561 37.0879 23.7519 37.0861L35.9965 37.0845L76.0073 21.0845C98.0133 12.2845 117.132 5.08447 118.494 5.08447C120.232 5.08447 121.132 5.75409 121.515 7.33447C121.815 8.57197 121.936 32.7105 121.784 60.9757C121.535 107.181 121.343 112.47 119.879 113.394C118.625 114.185 110.612 111.37 85.0523 101.163C66.7932 93.8707 51.6316 88.1269 51.3597 88.3987C51.0879 88.6705 51.7352 96.4735 52.7982 105.739C55.3056 127.593 55.9324 126.495 40.7399 126.865C31.2392 127.097 28.9301 126.865 27.6096 125.544ZM113.007 59.1799V16.2754L104.757 19.5164C100.22 21.2989 84.2336 27.638 69.2323 33.6032L41.9572 44.449L42.2323 59.3931L42.5073 74.3371L77.0073 88.1662C95.9823 95.7723 111.845 102.015 112.257 102.04C112.67 102.064 113.007 82.7775 113.007 59.1799Z" fill="#1F0653"/>
<path d="M128.578 62.6487C128.658 60.462 131.239 58.2812 133.426 58.2225C139.15 58.2222 145.215 58.1296 150.499 58.2225C152.585 58.2638 154.935 60.5622 154.925 62.6487C154.914 64.9318 153.614 66.4401 151.851 66.9142C151.517 67.0039 139.902 67.1851 132.67 66.9142C130.833 66.8453 128.512 64.4863 128.578 62.6487Z" fill="#1F0653"/>
<path d="M130.286 44.7603C128.86 42.7178 129.614 38.8947 131.477 37.2799C136.455 33.1938 141.667 28.7796 146.326 25.0924C148.168 23.6407 151.784 24.0503 153.202 25.9524C154.753 28.0337 154.654 30.3315 153.444 32.0208C153.215 32.3406 143.237 40.7964 136.762 45.7129C135.116 46.9621 131.485 46.4767 130.286 44.7603Z" fill="#1F0653"/>
<path d="M130.237 80.4306C132.026 78.7309 135.995 78.8835 137.951 80.4517C142.947 84.6784 148.314 89.0835 152.852 93.0599C154.641 94.6337 154.884 98.2174 153.233 99.8877C151.428 101.715 149.106 101.968 147.194 101.047C146.832 100.873 136.552 92.4409 130.453 86.8824C128.903 85.47 128.733 81.8591 130.237 80.4306Z" fill="#1F0653"/>
</svg>
