<svg width="96" height="82" viewBox="0 0 96 82" fill="none" xmlns="http://www.w3.org/2000/svg">
<path d="M9.86122 15.1999C10.4053 15.3155 10.8424 15.5866 11.1724 16.0132C11.5025 16.431 11.6675 16.911 11.6675 17.4532C11.6675 18.2355 11.391 18.8577 10.8379 19.3199C10.2938 19.7732 9.53117 19.9999 8.55 19.9999H4.1748V10.6399H8.40282C9.35723 10.6399 10.1021 10.8577 10.6372 11.2932C11.1814 11.7288 11.4534 12.3199 11.4534 13.0666C11.4534 13.6177 11.3062 14.0755 11.0119 14.4399C10.7265 14.8043 10.3429 15.0577 9.86122 15.1999ZM6.46275 14.4266H7.96129C8.33592 14.4266 8.62134 14.3466 8.81759 14.1866C9.02274 14.0177 9.12533 13.7732 9.12533 13.4532C9.12533 13.1332 9.02274 12.8888 8.81759 12.7199C8.62134 12.551 8.33592 12.4666 7.96129 12.4666H6.46275V14.4266ZM8.1486 18.1599C8.53217 18.1599 8.82652 18.0755 9.03167 17.9066C9.24575 17.7288 9.35278 17.4755 9.35278 17.1466C9.35278 16.8177 9.2413 16.5599 9.01829 16.3732C8.80421 16.1866 8.50541 16.0932 8.12184 16.0932H6.46275V18.1599H8.1486ZM20.3668 12.5599V19.9999H18.0788V18.9866C17.8469 19.3155 17.5302 19.5821 17.1288 19.7866C16.7364 19.9821 16.2993 20.0799 15.8176 20.0799C15.2467 20.0799 14.7428 19.9555 14.3057 19.7066C13.8686 19.4488 13.5297 19.0799 13.2889 18.5999C13.048 18.1199 12.9276 17.5555 12.9276 16.9066V12.5599H15.2022V16.5999C15.2022 17.0977 15.3315 17.4843 15.5902 17.7599C15.8488 18.0355 16.1967 18.1732 16.6338 18.1732C17.0798 18.1732 17.4321 18.0355 17.6908 17.7599C17.9495 17.4843 18.0788 17.0977 18.0788 16.5999V12.5599H20.3668ZM25.0474 20.1066C24.3962 20.1066 23.8164 19.9955 23.308 19.7732C22.7996 19.551 22.3982 19.2488 22.1038 18.8666C21.8095 18.4755 21.6445 18.0399 21.6088 17.5599H23.87C23.8967 17.8177 24.0171 18.0266 24.2312 18.1866C24.4453 18.3466 24.7084 18.4266 25.0206 18.4266C25.306 18.4266 25.5246 18.3732 25.6762 18.2666C25.8368 18.151 25.9171 18.0043 25.9171 17.8266C25.9171 17.6132 25.8056 17.4577 25.5826 17.3599C25.3596 17.2532 24.9983 17.1377 24.4988 17.0132C23.9636 16.8888 23.5176 16.7599 23.1608 16.6266C22.804 16.4843 22.4963 16.2666 22.2376 15.9732C21.979 15.671 21.8496 15.2666 21.8496 14.7599C21.8496 14.3332 21.9656 13.9466 22.1975 13.5999C22.4383 13.2443 22.7862 12.9643 23.2411 12.7599C23.705 12.5555 24.2535 12.4532 24.8868 12.4532C25.8234 12.4532 26.5593 12.6843 27.0945 13.1466C27.6386 13.6088 27.9508 14.2221 28.0311 14.9866H25.9171C25.8814 14.7288 25.7654 14.5243 25.5692 14.3732C25.3819 14.2221 25.1321 14.1466 24.8199 14.1466C24.5523 14.1466 24.3472 14.1999 24.2045 14.3066C24.0617 14.4043 23.9904 14.5421 23.9904 14.7199C23.9904 14.9332 24.1019 15.0932 24.3249 15.1999C24.5568 15.3066 24.9136 15.4132 25.3953 15.5199C25.9483 15.6621 26.3987 15.8043 26.7466 15.9466C27.0945 16.0799 27.3978 16.3021 27.6564 16.6132C27.924 16.9155 28.0623 17.3243 28.0712 17.8399C28.0712 18.2755 27.9463 18.6666 27.6966 19.0132C27.4557 19.351 27.1034 19.6177 26.6396 19.8132C26.1847 20.0088 25.6539 20.1066 25.0474 20.1066ZM29.0161 16.2799C29.0161 15.5066 29.1722 14.831 29.4843 14.2532C29.8055 13.6755 30.247 13.231 30.809 12.9199C31.3798 12.6088 32.031 12.4532 32.7624 12.4532C33.699 12.4532 34.4794 12.6977 35.1039 13.1866C35.7371 13.6755 36.1518 14.3643 36.3482 15.2532H33.9131C33.708 14.6843 33.311 14.3999 32.7223 14.3999C32.303 14.3999 31.9685 14.5643 31.7188 14.8932C31.469 15.2132 31.3441 15.6755 31.3441 16.2799C31.3441 16.8843 31.469 17.351 31.7188 17.6799C31.9685 17.9999 32.303 18.1599 32.7223 18.1599C33.311 18.1599 33.708 17.8755 33.9131 17.3066H36.3482C36.1518 18.1777 35.7371 18.8621 35.1039 19.3599C34.4707 19.8577 33.69 20.1066 32.7624 20.1066C32.031 20.1066 31.3798 19.951 30.809 19.6399C30.247 19.3288 29.8055 18.8843 29.4843 18.3066C29.1722 17.7288 29.0161 17.0532 29.0161 16.2799ZM37.1172 16.2666C37.1172 15.5021 37.2597 14.831 37.5453 14.2532C37.8397 13.6755 38.2364 13.231 38.7361 12.9199C39.2355 12.6088 39.7931 12.4532 40.4086 12.4532C40.9348 12.4532 41.394 12.5599 41.7867 12.7732C42.1881 12.9866 42.4959 13.2666 42.7099 13.6132V12.5599H44.9979V19.9999H42.7099V18.9466C42.4868 19.2932 42.1748 19.5732 41.7734 19.7866C41.3807 19.9999 40.9214 20.1066 40.3952 20.1066C39.7885 20.1066 39.2355 19.951 38.7361 19.6399C38.2364 19.3199 37.8397 18.871 37.5453 18.2932C37.2597 17.7066 37.1172 17.031 37.1172 16.2666ZM42.7099 16.2799C42.7099 15.711 42.5494 15.2621 42.2283 14.9332C41.9159 14.6043 41.5325 14.4399 41.0776 14.4399C40.6227 14.4399 40.2347 14.6043 39.9136 14.9332C39.6011 15.2532 39.4453 15.6977 39.4453 16.2666C39.4453 16.8355 39.6011 17.2888 39.9136 17.6266C40.2347 17.9555 40.6227 18.1199 41.0776 18.1199C41.5325 18.1199 41.9159 17.9555 42.2283 17.6266C42.5494 17.2977 42.7099 16.8488 42.7099 16.2799Z" fill="#EB975F"/>
<path d="M11.4652 53.9321H24.0823V60.0001H3.78516V21.8428H11.4652V53.9321Z" fill="#C35221"/>
<path d="M70.0013 34.1426C70.9887 32.6849 72.3418 31.5004 74.0607 30.5893C75.8161 29.6782 77.8094 29.2226 80.0401 29.2226C82.6368 29.2226 84.9773 29.8604 87.0619 31.136C89.1829 32.4115 90.847 34.2336 92.0539 36.6026C93.2972 38.935 93.919 41.6503 93.919 44.748C93.919 47.8456 93.2972 50.5973 92.0539 53.0026C90.847 55.3716 89.1829 57.212 87.0619 58.524C84.9773 59.836 82.6368 60.492 80.0401 60.492C77.7726 60.492 75.7797 60.0546 74.0607 59.18C72.3785 58.269 71.0252 57.1026 70.0013 55.6813V60H62.3213V19.5466H70.0013V34.1426ZM86.0744 44.748C86.0744 42.9256 85.6904 41.3586 84.9224 40.0466C84.1909 38.6983 83.2035 37.6776 81.9601 36.9853C80.7533 36.293 79.4367 35.9466 78.0104 35.9466C76.6206 35.9466 75.304 36.311 74.0607 37.04C72.8539 37.7323 71.8664 38.753 71.0984 40.1013C70.3669 41.4496 70.0013 43.035 70.0013 44.8573C70.0013 46.6796 70.3669 48.265 71.0984 49.6133C71.8664 50.9616 72.8539 52.0003 74.0607 52.7293C75.304 53.4216 76.6206 53.768 78.0104 53.768C79.4367 53.768 80.7533 53.4036 81.9601 52.6746C83.2035 51.9456 84.1909 50.907 84.9224 49.5586C85.6904 48.2103 86.0744 46.6066 86.0744 44.748Z" fill="#C35221"/>
<path d="M40.4739 59.9999C51.1887 59.9999 59.8746 51.3441 59.8746 40.6666C59.8746 29.9891 51.1887 21.3333 40.4739 21.3333C29.7592 21.3333 21.0732 29.9891 21.0732 40.6666C21.0732 51.3441 29.7592 59.9999 40.4739 59.9999Z" fill="#EB975F"/>
<path d="M59.8749 39.6489H39.4531V59.9998H59.8749V39.6489Z" fill="#EB975F"/>
<path d="M39.731 28.6556H39.8003L39.833 28.623C46.0563 28.6602 51.1075 33.7167 51.1075 39.927C51.1075 41.8617 50.5573 43.7024 49.6812 45.2867L49.6063 45.4224L49.7361 45.5067C49.916 45.624 50.0836 45.7597 50.2355 45.911L53.5242 49.1884L53.5279 49.192L53.5316 49.1954C53.8561 49.4827 54.1183 49.8334 54.3023 50.2257C54.4859 50.6177 54.5873 51.0434 54.6 51.476C54.613 51.9087 54.5368 52.3394 54.3765 52.7417C54.2163 53.144 53.9751 53.5094 53.6681 53.8154C53.361 54.1214 52.9941 54.3617 52.5903 54.5214C52.1869 54.681 51.7548 54.757 51.3206 54.7444C50.8864 54.7314 50.4593 54.6304 50.0659 54.4474C49.6722 54.2644 49.3203 54.003 49.0316 53.6794L49.0286 53.6757L49.025 53.6724L45.7362 50.3947L45.7308 50.3894L45.7248 50.3844C45.5773 50.2624 45.4415 50.127 45.3191 49.98L45.2308 49.8744L45.1097 49.9407C43.5252 50.8107 41.646 51.2637 39.731 51.2637C33.4763 51.2637 28.3877 46.193 28.3877 39.9597C28.3877 33.7264 33.4763 28.6556 39.731 28.6556ZM39.731 31.5996H39.6618L39.6287 31.6327C34.9976 31.6694 31.3091 35.368 31.3091 39.9924C31.3091 44.64 35.0344 48.3524 39.6982 48.3524C41.8751 48.3524 43.8891 47.5847 45.3686 46.2444L45.3773 46.2367L45.385 46.2277C45.5074 46.0807 45.6432 45.9454 45.7907 45.823L45.7967 45.8184L45.8021 45.8127L45.8024 45.8124H45.8028L45.8031 45.812V45.8117L45.8034 45.8114L45.8038 45.811H45.8041L45.8044 45.8107V45.8104L45.8048 45.81L45.8051 45.8097H45.8054V45.8094L45.8058 45.809L45.8061 45.8087L45.8064 45.8084H45.8068V45.808H45.8071L45.8074 45.8074H45.8078L45.8081 45.807V45.8067L45.8085 45.8064L45.8088 45.806H45.8091L45.8095 45.8057V45.8054L45.8098 45.805L45.8101 45.8047H45.8105V45.8044L45.8108 45.804L45.8111 45.8037L45.8115 45.8034H45.8118V45.803H45.8121L45.8125 45.8024H45.8128L45.8131 45.802V45.8017H45.8135L45.8138 45.801H45.8141V45.8007L45.8145 45.8004L45.8148 45.8L45.8151 45.7997H45.8155V45.7994L45.8158 45.799L45.8161 45.7987L45.8165 45.7984L45.8168 45.798H45.8171L45.8175 45.7974H45.8178L45.8181 45.797V45.7967H45.8185L45.8188 45.796H45.8192V45.7957L45.8195 45.7954L45.8198 45.795L45.8202 45.7947H45.8205V45.7944L45.8208 45.794L45.8212 45.7937L45.8215 45.7934L45.8218 45.793H45.8222L45.8225 45.7924L45.8228 45.792L45.8232 45.7917H45.8235V45.7914L45.8238 45.791H45.8242V45.7907L45.8245 45.7904H45.8248V45.79L45.8252 45.7897H45.8255V45.7894H45.8258L45.8262 45.7887L45.8265 45.7884L45.8268 45.788H45.8272L45.8275 45.7874L45.8279 45.787L45.8282 45.7867H45.8285V45.7864L45.8288 45.786H45.8292V45.7857L45.8295 45.7854H45.8299V45.785L45.8302 45.7847L45.8305 45.7844H45.8309L45.8312 45.784V45.7837L45.8315 45.7834L45.8319 45.783H45.8322L45.8325 45.7824L45.8329 45.782L45.8332 45.7817H45.8335V45.7814L45.8339 45.781L45.8342 45.7807L45.8345 45.7804H45.8349V45.78L45.8352 45.7797L45.8355 45.7794H45.8359L45.8362 45.779V45.7787L45.8365 45.7784L45.8369 45.778H45.8372V45.7777L45.8375 45.7774L45.8379 45.777L45.8382 45.7767H45.8386V45.7764L45.8389 45.776L45.8392 45.7757H45.8396L45.8399 45.7754V45.775L45.8402 45.7747L45.8406 45.7744H45.8409L45.8412 45.774V45.7737L45.8416 45.7734L45.8419 45.773H45.8422V45.7727L45.8426 45.7724L45.8429 45.772L45.8432 45.7717H45.8436V45.7714L45.8439 45.771L45.8442 45.7707H45.8446L45.8449 45.7704V45.77L45.8452 45.7697L45.8456 45.7694H45.8459L45.8462 45.769V45.7687L45.8466 45.7684L45.8469 45.768H45.8472V45.7677L45.8476 45.7674L45.8479 45.767L45.8483 45.7667H45.8486V45.7664H45.8489L45.8493 45.7657H45.8496L45.8499 45.7654V45.765L45.8503 45.7647L45.8506 45.7644H45.8509L45.8513 45.764V45.7637L45.8516 45.7634L45.8519 45.763H45.8523V45.7627L45.8526 45.7624L45.8529 45.762L45.8533 45.7617H45.8536V45.7614H45.8539L45.8543 45.7607H45.8546L45.8549 45.7604V45.76L45.8553 45.7597L45.8556 45.7594H45.8559V45.759L45.8563 45.7587L45.8566 45.7584L45.8569 45.758H45.8573V45.7577L45.8576 45.7574L45.858 45.757L45.8583 45.7567L45.8586 45.7564H45.859L45.8593 45.7557H45.8596L45.86 45.7554V45.755H45.8603L45.8606 45.7544H45.861V45.754L45.8613 45.7537L45.8616 45.7534L45.862 45.753H45.8623V45.7527L45.8626 45.7524L45.863 45.752L45.8633 45.7517L45.8636 45.7514H45.864L45.8643 45.7507H45.8646L45.865 45.7504V45.75H45.8653V45.7497L45.8656 45.7494H45.866V45.749L45.8663 45.7487L45.8667 45.7484L45.867 45.748H45.8673V45.7477H45.8677L45.868 45.747L45.8683 45.7467L45.8687 45.7464H45.869L45.8693 45.7457L45.8697 45.7454L45.87 45.745H45.8703V45.7447L45.8707 45.7444H45.871V45.744L45.8713 45.7437H45.8717V45.7434L45.872 45.743L45.8723 45.7427H45.8727L45.873 45.742L45.8733 45.7417L45.8737 45.7414H45.874L45.8743 45.7407L45.8747 45.7404L45.875 45.74H45.8753V45.7397L45.8757 45.7394H45.876V45.739L45.8763 45.7387H45.8767V45.7384L45.877 45.738L45.8774 45.7377H45.8777L45.878 45.7374V45.737L45.8784 45.7367L45.8787 45.7364H45.879V45.736L45.8794 45.7357L45.8797 45.7354L45.88 45.735H45.8804V45.7347L45.8807 45.7344L45.881 45.734H45.8814L45.8817 45.7337V45.7334L45.882 45.733L45.8824 45.7327H45.8827L45.883 45.7324V45.732L45.8834 45.7317L45.8837 45.7314H45.884V45.731L45.8844 45.7307L45.8847 45.7304L45.885 45.73H45.8854V45.7297L45.8857 45.7294L45.8861 45.729H45.8864L45.8867 45.7287V45.7284L45.8871 45.728L45.8874 45.7277H45.8877L45.8881 45.7274V45.727L45.8884 45.7267L45.8887 45.7264H45.8891V45.726L45.8894 45.7257L45.8897 45.7254L45.8901 45.725H45.8904V45.7247L45.8907 45.7244L45.8911 45.724H45.8914L45.8917 45.7237V45.7234L45.8921 45.723L45.8924 45.7227H45.8927L45.8931 45.7224V45.722L45.8934 45.7217L45.8937 45.7214H45.8941V45.721L45.8944 45.7207L45.8947 45.7204L45.8951 45.72H45.8954V45.7197H45.8958L45.8961 45.719H45.8964L45.8968 45.7187V45.7184L45.8971 45.718L45.8974 45.7177H45.8978V45.7174L45.8981 45.717L45.8984 45.7167L45.8988 45.7164H45.8991V45.716L45.8994 45.7157L45.8998 45.7154H45.9001L45.9004 45.715V45.7147H45.9008L45.9028 45.7124L45.9048 45.7104C47.316 44.2037 48.1201 42.1634 48.1201 39.9597C48.1201 35.312 44.3949 31.5996 39.731 31.5996Z" fill="white"/>
<path d="M39.731 28.6556H39.8003L39.833 28.623C46.0563 28.6602 51.1075 33.7167 51.1075 39.927C51.1075 41.8617 50.5573 43.7024 49.6812 45.2867L49.6063 45.4224L49.7361 45.5067C49.916 45.624 50.0836 45.7597 50.2355 45.911L53.5242 49.1884L53.5279 49.192L53.5316 49.1954C53.8561 49.4827 54.1183 49.8334 54.3023 50.2257C54.4859 50.6177 54.5873 51.0434 54.6 51.476C54.613 51.9087 54.5368 52.3394 54.3765 52.7417C54.2163 53.144 53.9751 53.5094 53.6681 53.8154C53.361 54.1214 52.9941 54.3617 52.5903 54.5214C52.1869 54.681 51.7548 54.757 51.3206 54.7444C50.8864 54.7314 50.4593 54.6304 50.0659 54.4474C49.6722 54.2644 49.3203 54.003 49.0316 53.6794L49.0286 53.6757L49.025 53.6724L45.7362 50.3947L45.7308 50.3894L45.7248 50.3844C45.5773 50.2624 45.4415 50.127 45.3191 49.98L45.2308 49.8744L45.1097 49.9407C43.5252 50.8107 41.646 51.2637 39.731 51.2637C33.4763 51.2637 28.3877 46.193 28.3877 39.9597C28.3877 33.7264 33.4763 28.6556 39.731 28.6556ZM39.731 31.5996H39.6618L39.6287 31.6327C34.9976 31.6694 31.3091 35.368 31.3091 39.9924C31.3091 44.64 35.0344 48.3524 39.6982 48.3524C41.8751 48.3524 43.8891 47.5847 45.3686 46.2444L45.3773 46.2367L45.385 46.2277C45.5074 46.0807 45.6432 45.9454 45.7907 45.823L45.7967 45.8184L45.8021 45.8127L45.8024 45.8124H45.8028L45.8031 45.812V45.8117L45.8034 45.8114L45.8038 45.811H45.8041L45.8044 45.8107V45.8104L45.8048 45.81L45.8051 45.8097H45.8054V45.8094L45.8058 45.809L45.8061 45.8087L45.8064 45.8084H45.8068V45.808H45.8071L45.8074 45.8074H45.8078L45.8081 45.807V45.8067L45.8084 45.8064L45.8088 45.806H45.8091L45.8095 45.8057V45.8054L45.8098 45.805L45.8101 45.8047H45.8105V45.8044L45.8108 45.804L45.8111 45.8037L45.8115 45.8034H45.8118V45.803H45.8121L45.8125 45.8024H45.8128L45.8131 45.802V45.8017H45.8135L45.8138 45.801H45.8141V45.8007L45.8145 45.8004L45.8148 45.8L45.8151 45.7997H45.8155V45.7994L45.8158 45.799L45.8161 45.7987L45.8165 45.7984L45.8168 45.798H45.8171L45.8175 45.7974H45.8178L45.8181 45.797V45.7967H45.8185L45.8188 45.796H45.8192V45.7957L45.8195 45.7954L45.8198 45.795L45.8202 45.7947H45.8205V45.7944L45.8208 45.794L45.8212 45.7937L45.8215 45.7934L45.8218 45.793H45.8222L45.8225 45.7924L45.8228 45.792L45.8232 45.7917H45.8235V45.7914L45.8238 45.791H45.8242V45.7907L45.8245 45.7904H45.8248V45.79L45.8252 45.7897H45.8255V45.7894H45.8258L45.8262 45.7887L45.8265 45.7884L45.8268 45.788H45.8272L45.8275 45.7874L45.8279 45.787L45.8282 45.7867H45.8285V45.7864L45.8289 45.786H45.8292V45.7857L45.8295 45.7854H45.8299V45.785L45.8302 45.7847L45.8305 45.7844H45.8309L45.8312 45.784V45.7837L45.8315 45.7834L45.8319 45.783H45.8322L45.8325 45.7824L45.8329 45.782L45.8332 45.7817H45.8335V45.7814L45.8339 45.781L45.8342 45.7807L45.8345 45.7804H45.8349V45.78L45.8352 45.7797L45.8355 45.7794H45.8359L45.8362 45.779V45.7787L45.8365 45.7784L45.8369 45.778H45.8372V45.7777L45.8375 45.7774L45.8379 45.777L45.8382 45.7767H45.8386V45.7764L45.8389 45.776L45.8392 45.7757H45.8396L45.8399 45.7754V45.775L45.8402 45.7747L45.8406 45.7744H45.8409L45.8412 45.774V45.7737L45.8416 45.7734L45.8419 45.773H45.8422V45.7727L45.8426 45.7724L45.8429 45.772L45.8432 45.7717H45.8436V45.7714L45.8439 45.771L45.8442 45.7707H45.8446L45.8449 45.7704V45.77L45.8452 45.7697L45.8456 45.7694H45.8459L45.8462 45.769V45.7687L45.8466 45.7684L45.8469 45.768H45.8473V45.7677L45.8476 45.7674L45.8479 45.767L45.8483 45.7667H45.8486V45.7664H45.8489L45.8493 45.7657H45.8496L45.8499 45.7654V45.765L45.8503 45.7647L45.8506 45.7644H45.8509L45.8513 45.764V45.7637L45.8516 45.7634L45.8519 45.763H45.8523V45.7627L45.8526 45.7624L45.8529 45.762L45.8533 45.7617H45.8536V45.7614H45.8539L45.8543 45.7607H45.8546L45.8549 45.7604V45.76L45.8553 45.7597L45.8556 45.7594H45.8559V45.759L45.8563 45.7587L45.8566 45.7584L45.8569 45.758H45.8573V45.7577L45.8576 45.7574L45.858 45.757L45.8583 45.7567L45.8586 45.7564H45.859L45.8593 45.7557H45.8596L45.86 45.7554V45.755H45.8603L45.8606 45.7544H45.861V45.754L45.8613 45.7537L45.8616 45.7534L45.862 45.753H45.8623V45.7527L45.8626 45.7524L45.863 45.752L45.8633 45.7517L45.8636 45.7514H45.864L45.8643 45.7507H45.8646L45.865 45.7504V45.75H45.8653V45.7497L45.8656 45.7494H45.866V45.749L45.8663 45.7487L45.8667 45.7484L45.867 45.748H45.8673V45.7477H45.8677L45.868 45.747L45.8683 45.7467L45.8687 45.7464H45.869L45.8693 45.7457L45.8697 45.7454L45.87 45.745H45.8703V45.7447L45.8707 45.7444H45.871V45.744L45.8713 45.7437H45.8717V45.7434L45.872 45.743L45.8723 45.7427H45.8727L45.873 45.742L45.8733 45.7417L45.8737 45.7414H45.874L45.8743 45.7407L45.8747 45.7404L45.875 45.74H45.8753V45.7397L45.8757 45.7394H45.876V45.739L45.8763 45.7387H45.8767V45.7384L45.877 45.738L45.8774 45.7377H45.8777L45.878 45.7374V45.737L45.8784 45.7367L45.8787 45.7364H45.879V45.736L45.8794 45.7357L45.8797 45.7354L45.88 45.735H45.8804V45.7347L45.8807 45.7344L45.881 45.734H45.8814L45.8817 45.7337V45.7334L45.882 45.733L45.8824 45.7327H45.8827L45.883 45.7324V45.732L45.8834 45.7317L45.8837 45.7314H45.884V45.731L45.8844 45.7307L45.8847 45.7304L45.885 45.73H45.8854V45.7297L45.8857 45.7294L45.8861 45.729H45.8864L45.8867 45.7287V45.7284L45.8871 45.728L45.8874 45.7277H45.8877L45.8881 45.7274V45.727L45.8884 45.7267L45.8887 45.7264H45.8891V45.726L45.8894 45.7257L45.8897 45.7254L45.8901 45.725H45.8904V45.7247L45.8907 45.7244L45.8911 45.724H45.8914L45.8917 45.7237V45.7234L45.8921 45.723L45.8924 45.7227H45.8927L45.8931 45.7224V45.722L45.8934 45.7217L45.8937 45.7214H45.8941V45.721L45.8944 45.7207L45.8947 45.7204L45.8951 45.72H45.8954V45.7197H45.8958L45.8961 45.719H45.8964L45.8968 45.7187V45.7184L45.8971 45.718L45.8974 45.7177H45.8978V45.7174L45.8981 45.717L45.8984 45.7167L45.8988 45.7164H45.8991V45.716L45.8994 45.7157L45.8998 45.7154H45.9001L45.9004 45.715V45.7147H45.9008L45.9028 45.7124L45.9048 45.7104C47.316 44.2037 48.1201 42.1634 48.1201 39.9597C48.1201 35.312 44.3949 31.5996 39.731 31.5996Z" stroke="white"/>
<path d="M39.731 28.6556H39.8003L39.833 28.623C46.0563 28.6602 51.1075 33.7167 51.1075 39.927C51.1075 41.8617 50.5573 43.7024 49.6812 45.2867L49.6063 45.4224L49.7361 45.5067C49.916 45.624 50.0836 45.7597 50.2355 45.911L53.5242 49.1884L53.5279 49.192L53.5316 49.1954C53.8561 49.4827 54.1183 49.8334 54.3023 50.2257C54.4859 50.6177 54.5873 51.0434 54.6 51.476C54.613 51.9087 54.5368 52.3394 54.3765 52.7417C54.2163 53.144 53.9751 53.5094 53.6681 53.8154C53.361 54.1214 52.9941 54.3617 52.5903 54.5214C52.1869 54.681 51.7548 54.757 51.3206 54.7444C50.8864 54.7314 50.4593 54.6304 50.0659 54.4474C49.6722 54.2644 49.3203 54.003 49.0316 53.6794L49.0286 53.6757L49.025 53.6724L45.7362 50.3947L45.7308 50.3894L45.7248 50.3844C45.5773 50.2624 45.4415 50.127 45.3191 49.98L45.2308 49.8744L45.1097 49.9407C43.5252 50.8107 41.646 51.2637 39.731 51.2637C33.4763 51.2637 28.3877 46.193 28.3877 39.9597C28.3877 33.7264 33.4763 28.6556 39.731 28.6556ZM39.731 31.5996H39.6618L39.6287 31.6327C34.9976 31.6694 31.3091 35.368 31.3091 39.9924C31.3091 44.64 35.0344 48.3524 39.6982 48.3524C41.8751 48.3524 43.8891 47.5847 45.3686 46.2444L45.3773 46.2367L45.385 46.2277C45.5074 46.0807 45.6432 45.9454 45.7907 45.823L45.7967 45.8184L45.8021 45.8127L45.8024 45.8124H45.8028L45.8031 45.812V45.8117L45.8034 45.8114L45.8038 45.811H45.8041L45.8044 45.8107V45.8104L45.8048 45.81L45.8051 45.8097H45.8054V45.8094L45.8058 45.809L45.8061 45.8087L45.8064 45.8084H45.8068V45.808H45.8071L45.8074 45.8074H45.8078L45.8081 45.807V45.8067L45.8084 45.8064L45.8088 45.806H45.8091L45.8095 45.8057V45.8054L45.8098 45.805L45.8101 45.8047H45.8105V45.8044L45.8108 45.804L45.8111 45.8037L45.8115 45.8034H45.8118V45.803H45.8121L45.8125 45.8024H45.8128L45.8131 45.802V45.8017H45.8135L45.8138 45.801H45.8141V45.8007L45.8145 45.8004L45.8148 45.8L45.8151 45.7997H45.8155V45.7994L45.8158 45.799L45.8161 45.7987L45.8165 45.7984L45.8168 45.798H45.8171L45.8175 45.7974H45.8178L45.8181 45.797V45.7967H45.8185L45.8188 45.796H45.8192V45.7957L45.8195 45.7954L45.8198 45.795L45.8202 45.7947H45.8205V45.7944L45.8208 45.794L45.8212 45.7937L45.8215 45.7934L45.8218 45.793H45.8222L45.8225 45.7924L45.8228 45.792L45.8232 45.7917H45.8235V45.7914L45.8238 45.791H45.8242V45.7907L45.8245 45.7904H45.8248V45.79L45.8252 45.7897H45.8255V45.7894H45.8258L45.8262 45.7887L45.8265 45.7884L45.8268 45.788H45.8272L45.8275 45.7874L45.8279 45.787L45.8282 45.7867H45.8285V45.7864L45.8289 45.786H45.8292V45.7857L45.8295 45.7854H45.8299V45.785L45.8302 45.7847L45.8305 45.7844H45.8309L45.8312 45.784V45.7837L45.8315 45.7834L45.8319 45.783H45.8322L45.8325 45.7824L45.8329 45.782L45.8332 45.7817H45.8335V45.7814L45.8339 45.781L45.8342 45.7807L45.8345 45.7804H45.8349V45.78L45.8352 45.7797L45.8355 45.7794H45.8359L45.8362 45.779V45.7787L45.8365 45.7784L45.8369 45.778H45.8372V45.7777L45.8375 45.7774L45.8379 45.777L45.8382 45.7767H45.8386V45.7764L45.8389 45.776L45.8392 45.7757H45.8396L45.8399 45.7754V45.775L45.8402 45.7747L45.8406 45.7744H45.8409L45.8412 45.774V45.7737L45.8416 45.7734L45.8419 45.773H45.8422V45.7727L45.8426 45.7724L45.8429 45.772L45.8432 45.7717H45.8436V45.7714L45.8439 45.771L45.8442 45.7707H45.8446L45.8449 45.7704V45.77L45.8452 45.7697L45.8456 45.7694H45.8459L45.8462 45.769V45.7687L45.8466 45.7684L45.8469 45.768H45.8473V45.7677L45.8476 45.7674L45.8479 45.767L45.8483 45.7667H45.8486V45.7664H45.8489L45.8493 45.7657H45.8496L45.8499 45.7654V45.765L45.8503 45.7647L45.8506 45.7644H45.8509L45.8513 45.764V45.7637L45.8516 45.7634L45.8519 45.763H45.8523V45.7627L45.8526 45.7624L45.8529 45.762L45.8533 45.7617H45.8536V45.7614H45.8539L45.8543 45.7607H45.8546L45.8549 45.7604V45.76L45.8553 45.7597L45.8556 45.7594H45.8559V45.759L45.8563 45.7587L45.8566 45.7584L45.8569 45.758H45.8573V45.7577L45.8576 45.7574L45.858 45.757L45.8583 45.7567L45.8586 45.7564H45.859L45.8593 45.7557H45.8596L45.86 45.7554V45.755H45.8603L45.8606 45.7544H45.861V45.754L45.8613 45.7537L45.8616 45.7534L45.862 45.753H45.8623V45.7527L45.8626 45.7524L45.863 45.752L45.8633 45.7517L45.8636 45.7514H45.864L45.8643 45.7507H45.8646L45.865 45.7504V45.75H45.8653V45.7497L45.8656 45.7494H45.866V45.749L45.8663 45.7487L45.8667 45.7484L45.867 45.748H45.8673V45.7477H45.8677L45.868 45.747L45.8683 45.7467L45.8687 45.7464H45.869L45.8693 45.7457L45.8697 45.7454L45.87 45.745H45.8703V45.7447L45.8707 45.7444H45.871V45.744L45.8713 45.7437H45.8717V45.7434L45.872 45.743L45.8723 45.7427H45.8727L45.873 45.742L45.8733 45.7417L45.8737 45.7414H45.874L45.8743 45.7407L45.8747 45.7404L45.875 45.74H45.8753V45.7397L45.8757 45.7394H45.876V45.739L45.8763 45.7387H45.8767V45.7384L45.877 45.738L45.8774 45.7377H45.8777L45.878 45.7374V45.737L45.8784 45.7367L45.8787 45.7364H45.879V45.736L45.8794 45.7357L45.8797 45.7354L45.88 45.735H45.8804V45.7347L45.8807 45.7344L45.881 45.734H45.8814L45.8817 45.7337V45.7334L45.882 45.733L45.8824 45.7327H45.8827L45.883 45.7324V45.732L45.8834 45.7317L45.8837 45.7314H45.884V45.731L45.8844 45.7307L45.8847 45.7304L45.885 45.73H45.8854V45.7297L45.8857 45.7294L45.8861 45.729H45.8864L45.8867 45.7287V45.7284L45.8871 45.728L45.8874 45.7277H45.8877L45.8881 45.7274V45.727L45.8884 45.7267L45.8887 45.7264H45.8891V45.726L45.8894 45.7257L45.8897 45.7254L45.8901 45.725H45.8904V45.7247L45.8907 45.7244L45.8911 45.724H45.8914L45.8917 45.7237V45.7234L45.8921 45.723L45.8924 45.7227H45.8927L45.8931 45.7224V45.722L45.8934 45.7217L45.8937 45.7214H45.8941V45.721L45.8944 45.7207L45.8947 45.7204L45.8951 45.72H45.8954V45.7197H45.8958L45.8961 45.719H45.8964L45.8968 45.7187V45.7184L45.8971 45.718L45.8974 45.7177H45.8978V45.7174L45.8981 45.717L45.8984 45.7167L45.8988 45.7164H45.8991V45.716L45.8994 45.7157L45.8998 45.7154H45.9001L45.9004 45.715V45.7147H45.9008L45.9028 45.7124L45.9048 45.7104C47.316 44.2037 48.1201 42.1634 48.1201 39.9597C48.1201 35.312 44.3949 31.5996 39.731 31.5996Z" stroke="white"/>
</svg>
