<svg width="155" height="155" viewBox="0 0 155 155" fill="none" xmlns="http://www.w3.org/2000/svg">
<path d="M27.6101 125.544C26.7288 124.663 25.9884 123.186 25.9648 122.263C25.9411 121.34 24.6919 112.058 23.1888 101.636L20.4558 82.6873L13.7939 81.5971C2.53032 79.7538 0.0078125 75.7707 0.0078125 59.8285C0.0078125 51.1148 0.358054 48.8137 2.25781 45.0464C5.66362 38.2925 8.9161 37.0879 23.7524 37.0861L35.997 37.0845L76.0078 21.0845C98.0138 12.2845 117.133 5.08447 118.494 5.08447C120.233 5.08447 121.132 5.75409 121.516 7.33447C121.816 8.57197 121.937 32.7105 121.785 60.9757C121.536 107.181 121.343 112.47 119.879 113.394C118.626 114.185 110.613 111.37 85.0528 101.163C66.7937 93.8707 51.6321 88.1269 51.3602 88.3987C51.0884 88.6705 51.7357 96.4735 52.7987 105.739C55.3061 127.593 55.9329 126.495 40.7404 126.865C31.2397 127.097 28.9306 126.865 27.6101 125.544ZM113.008 59.1799V16.2754L104.758 19.5164C100.22 21.2989 84.234 27.638 69.2327 33.6032L41.9577 44.449L42.2327 59.3931L42.5078 74.3371L77.0078 88.1662C95.9828 95.7723 111.845 102.015 112.258 102.04C112.67 102.064 113.008 82.7775 113.008 59.1799Z" fill="#C35221"/>
<path d="M128.579 62.6487C128.658 60.462 131.239 58.2812 133.426 58.2225C139.15 58.2222 145.216 58.1296 150.499 58.2225C152.585 58.2638 154.935 60.5622 154.925 62.6487C154.914 64.9318 153.614 66.4401 151.851 66.9142C151.517 67.0039 139.902 67.1851 132.671 66.9142C130.833 66.8453 128.512 64.4863 128.579 62.6487Z" fill="#C35221"/>
<path d="M130.287 44.7603C128.86 42.7178 129.614 38.8947 131.477 37.2799C136.455 33.1938 141.667 28.7796 146.326 25.0924C148.169 23.6407 151.784 24.0503 153.202 25.9524C154.753 28.0337 154.654 30.3315 153.444 32.0208C153.215 32.3406 143.237 40.7964 136.762 45.7129C135.117 46.9621 131.485 46.4767 130.287 44.7603Z" fill="#C35221"/>
<path d="M130.237 80.4306C132.027 78.7309 135.995 78.8835 137.951 80.4517C142.947 84.6784 148.314 89.0835 152.853 93.0599C154.641 94.6337 154.884 98.2174 153.234 99.8877C151.428 101.715 149.106 101.968 147.194 101.047C146.832 100.873 136.552 92.4409 130.453 86.8824C128.903 85.47 128.733 81.8591 130.237 80.4306Z" fill="#C35221"/>
</svg>
