<svg width="96" height="82" viewBox="0 0 96 82" fill="none" xmlns="http://www.w3.org/2000/svg">
    <path
        d="M9.86091 15.1999C10.405 15.3155 10.8421 15.5866 11.1721 16.0132C11.5022 16.431 11.6672 16.911 11.6672 17.4532C11.6672 18.2355 11.3907 18.8577 10.8376 19.3199C10.2935 19.7732 9.53086 19.9999 8.54969 19.9999H4.1745V10.6399H8.40251C9.35693 10.6399 10.1017 10.8577 10.6369 11.2932C11.1811 11.7288 11.4531 12.3199 11.4531 13.0666C11.4531 13.6177 11.3059 14.0755 11.0116 14.4399C10.7261 14.8043 10.3426 15.0577 9.86091 15.1999ZM6.46244 14.4266H7.96098C8.33561 14.4266 8.62104 14.3466 8.81729 14.1866C9.02243 14.0177 9.12502 13.7732 9.12502 13.4532C9.12502 13.1332 9.02243 12.8888 8.81729 12.7199C8.62104 12.551 8.33561 12.4666 7.96098 12.4666H6.46244V14.4266ZM8.1483 18.1599C8.53186 18.1599 8.82622 18.0755 9.03136 17.9066C9.24544 17.7288 9.35248 17.4755 9.35248 17.1466C9.35248 16.8177 9.24099 16.5599 9.01798 16.3732C8.80391 16.1866 8.5051 16.0932 8.12154 16.0932H6.46244V18.1599H8.1483ZM20.3665 12.5599V19.9999H18.0785V18.9866C17.8466 19.3155 17.5299 19.5821 17.1285 19.7866C16.7361 19.9821 16.299 20.0799 15.8173 20.0799C15.2464 20.0799 14.7425 19.9555 14.3054 19.7066C13.8683 19.4488 13.5294 19.0799 13.2885 18.5999C13.0477 18.1199 12.9273 17.5555 12.9273 16.9066V12.5599H15.2019V16.5999C15.2019 17.0977 15.3312 17.4843 15.5899 17.7599C15.8485 18.0355 16.1964 18.1732 16.6335 18.1732C17.0795 18.1732 17.4318 18.0355 17.6905 17.7599C17.9492 17.4843 18.0785 17.0977 18.0785 16.5999V12.5599H20.3665ZM25.0471 20.1066C24.3959 20.1066 23.8161 19.9955 23.3077 19.7732C22.7993 19.551 22.3979 19.2488 22.1035 18.8666C21.8092 18.4755 21.6442 18.0399 21.6085 17.5599H23.8697C23.8964 17.8177 24.0168 18.0266 24.2309 18.1866C24.445 18.3466 24.7081 18.4266 25.0203 18.4266C25.3057 18.4266 25.5243 18.3732 25.6759 18.2666C25.8365 18.151 25.9168 18.0043 25.9168 17.8266C25.9168 17.6132 25.8053 17.4577 25.5823 17.3599C25.3593 17.2532 24.998 17.1377 24.4985 17.0132C23.9633 16.8888 23.5173 16.7599 23.1605 16.6266C22.8037 16.4843 22.496 16.2666 22.2373 15.9732C21.9787 15.671 21.8493 15.2666 21.8493 14.7599C21.8493 14.3332 21.9653 13.9466 22.1972 13.5999C22.438 13.2443 22.7859 12.9643 23.2408 12.7599C23.7046 12.5555 24.2532 12.4532 24.8865 12.4532C25.8231 12.4532 26.559 12.6843 27.0942 13.1466C27.6383 13.6088 27.9505 14.2221 28.0308 14.9866H25.9168C25.8811 14.7288 25.7651 14.5243 25.5689 14.3732C25.3816 14.2221 25.1318 14.1466 24.8196 14.1466C24.552 14.1466 24.3469 14.1999 24.2041 14.3066C24.0614 14.4043 23.9901 14.5421 23.9901 14.7199C23.9901 14.9332 24.1016 15.0932 24.3246 15.1999C24.5565 15.3066 24.9133 15.4132 25.3949 15.5199C25.948 15.6621 26.3984 15.8043 26.7463 15.9466C27.0942 16.0799 27.3975 16.3021 27.6561 16.6132C27.9237 16.9155 28.062 17.3243 28.0709 17.8399C28.0709 18.2755 27.946 18.6666 27.6963 19.0132C27.4554 19.351 27.1031 19.6177 26.6393 19.8132C26.1844 20.0088 25.6536 20.1066 25.0471 20.1066ZM29.0158 16.2799C29.0158 15.5066 29.1719 14.831 29.484 14.2532C29.8052 13.6755 30.2467 13.231 30.8086 12.9199C31.3795 12.6088 32.0307 12.4532 32.7621 12.4532C33.6987 12.4532 34.4791 12.6977 35.1036 13.1866C35.7368 13.6755 36.1515 14.3643 36.3479 15.2532H33.9128C33.7077 14.6843 33.3107 14.3999 32.722 14.3999C32.3027 14.3999 31.9682 14.5643 31.7185 14.8932C31.4687 15.2132 31.3438 15.6755 31.3438 16.2799C31.3438 16.8843 31.4687 17.351 31.7185 17.6799C31.9682 17.9999 32.3027 18.1599 32.722 18.1599C33.3107 18.1599 33.7077 17.8755 33.9128 17.3066H36.3479C36.1515 18.1777 35.7368 18.8621 35.1036 19.3599C34.4704 19.8577 33.6896 20.1066 32.7621 20.1066C32.0307 20.1066 31.3795 19.951 30.8086 19.6399C30.2467 19.3288 29.8052 18.8843 29.484 18.3066C29.1719 17.7288 29.0158 17.0532 29.0158 16.2799ZM37.1169 16.2666C37.1169 15.5021 37.2594 14.831 37.545 14.2532C37.8394 13.6755 38.2361 13.231 38.7358 12.9199C39.2352 12.6088 39.7928 12.4532 40.4083 12.4532C40.9345 12.4532 41.3937 12.5599 41.7864 12.7732C42.1878 12.9866 42.4956 13.2666 42.7096 13.6132V12.5599H44.9976V19.9999H42.7096V18.9466C42.4865 19.2932 42.1744 19.5732 41.7731 19.7866C41.3804 19.9999 40.9211 20.1066 40.3949 20.1066C39.7882 20.1066 39.2352 19.951 38.7358 19.6399C38.2361 19.3199 37.8394 18.871 37.545 18.2932C37.2594 17.7066 37.1169 17.031 37.1169 16.2666ZM42.7096 16.2799C42.7096 15.711 42.5491 15.2621 42.228 14.9332C41.9155 14.6043 41.5322 14.4399 41.0773 14.4399C40.6224 14.4399 40.2344 14.6043 39.9133 14.9332C39.6008 15.2532 39.445 15.6977 39.445 16.2666C39.445 16.8355 39.6008 17.2888 39.9133 17.6266C40.2344 17.9555 40.6224 18.1199 41.0773 18.1199C41.5322 18.1199 41.9155 17.9555 42.228 17.6266C42.5491 17.2977 42.7096 16.8488 42.7096 16.2799Z"
        fill="#F86B6B" />
    <path d="M11.4652 53.9321H24.0823V60.0001H3.78516V21.8428H11.4652V53.9321Z" fill="#E02F31" />
    <path
        d="M70.0017 34.1426C70.9891 32.6849 72.3422 31.5004 74.0611 30.5893C75.8166 29.6782 77.8098 29.2226 80.0406 29.2226C82.6373 29.2226 84.9777 29.8604 87.0623 31.136C89.1833 32.4115 90.8474 34.2336 92.0543 36.6026C93.2976 38.935 93.9194 41.6503 93.9194 44.748C93.9194 47.8456 93.2976 50.5973 92.0543 53.0026C90.8474 55.3716 89.1833 57.212 87.0623 58.524C84.9777 59.836 82.6373 60.492 80.0406 60.492C77.773 60.492 75.7801 60.0546 74.0611 59.18C72.379 58.269 71.0256 57.1026 70.0017 55.6813V60H62.3217V19.5466H70.0017V34.1426ZM86.0749 44.748C86.0749 42.9256 85.6909 41.3586 84.9229 40.0466C84.1913 38.6983 83.2039 37.6776 81.9606 36.9853C80.7537 36.293 79.4371 35.9466 78.0109 35.9466C76.621 35.9466 75.3045 36.311 74.0611 37.04C72.8543 37.7323 71.8669 38.753 71.0989 40.1013C70.3673 41.4496 70.0017 43.035 70.0017 44.8573C70.0017 46.6796 70.3673 48.265 71.0989 49.6133C71.8669 50.9616 72.8543 52.0003 74.0611 52.7293C75.3045 53.4216 76.621 53.768 78.0109 53.768C79.4371 53.768 80.7537 53.4036 81.9606 52.6746C83.2039 51.9456 84.1913 50.907 84.9229 49.5586C85.6909 48.2103 86.0749 46.6066 86.0749 44.748Z"
        fill="#E02F31" />
    <path
        d="M40.4739 59.9999C51.1886 59.9999 59.8746 51.3441 59.8746 40.6666C59.8746 29.9891 51.1886 21.3333 40.4739 21.3333C29.7592 21.3333 21.0732 29.9891 21.0732 40.6666C21.0732 51.3441 29.7592 59.9999 40.4739 59.9999Z"
        fill="#FE7F7F" />
    <path d="M59.8744 39.6489H39.4526V59.9998H59.8744V39.6489Z" fill="#FE7F7F" />
    <path
        d="M39.7313 28.6556H39.8005L39.8333 28.623C46.0566 28.6602 51.1078 33.7167 51.1078 39.927C51.1078 41.8617 50.5575 43.7024 49.6815 45.2867L49.6065 45.4224L49.7363 45.5067C49.9163 45.624 50.0839 45.7597 50.2357 45.911L53.5245 49.1884L53.5282 49.192L53.5318 49.1954C53.8563 49.4827 54.1185 49.8334 54.3025 50.2257C54.4862 50.6177 54.5875 51.0434 54.6002 51.476C54.6133 51.9087 54.537 52.3394 54.3768 52.7417C54.2166 53.144 53.9754 53.5094 53.6683 53.8154C53.3612 54.1214 52.9943 54.3617 52.5906 54.5214C52.1872 54.681 51.755 54.757 51.3208 54.7444C50.8867 54.7314 50.4595 54.6304 50.0661 54.4474C49.6724 54.2644 49.3206 54.003 49.0319 53.6794L49.0289 53.6757L49.0252 53.6724L45.7364 50.3947L45.7311 50.3894L45.7251 50.3844C45.5776 50.2624 45.4417 50.127 45.3193 49.98L45.231 49.8744L45.1099 49.9407C43.5254 50.8107 41.6462 51.2637 39.7313 51.2637C33.4765 51.2637 28.3879 46.193 28.3879 39.9597C28.3879 33.7264 33.4765 28.6556 39.7313 28.6556ZM39.7313 31.5996H39.662L39.6289 31.6327C34.9978 31.6694 31.3093 35.368 31.3093 39.9924C31.3093 44.64 35.0346 48.3524 39.6985 48.3524C41.8754 48.3524 43.8894 47.5847 45.3688 46.2444L45.3775 46.2367L45.3852 46.2277C45.5076 46.0807 45.6434 45.9454 45.791 45.823L45.797 45.8184L45.8023 45.8127L45.8027 45.8124H45.803L45.8033 45.812V45.8117L45.8037 45.8114L45.804 45.811H45.8043L45.8047 45.8107V45.8104L45.805 45.81L45.8053 45.8097H45.8057V45.8094L45.806 45.809L45.8064 45.8087L45.8067 45.8084H45.807V45.808H45.8074L45.8077 45.8074H45.808L45.8084 45.807V45.8067L45.8087 45.8064L45.809 45.806H45.8094L45.8097 45.8057V45.8054L45.81 45.805L45.8104 45.8047H45.8107V45.8044L45.811 45.804L45.8114 45.8037L45.8117 45.8034H45.812V45.803H45.8124L45.8127 45.8024H45.813L45.8134 45.802V45.8017H45.8137L45.814 45.801H45.8144V45.8007L45.8147 45.8004L45.815 45.8L45.8154 45.7997H45.8157V45.7994L45.816 45.799L45.8164 45.7987L45.8167 45.7984L45.8171 45.798H45.8174L45.8177 45.7974H45.8181L45.8184 45.797V45.7967H45.8187L45.8191 45.796H45.8194V45.7957L45.8197 45.7954L45.8201 45.795L45.8204 45.7947H45.8207V45.7944L45.8211 45.794L45.8214 45.7937L45.8217 45.7934L45.8221 45.793H45.8224L45.8227 45.7924L45.8231 45.792L45.8234 45.7917H45.8237V45.7914L45.8241 45.791H45.8244V45.7907L45.8247 45.7904H45.8251V45.79L45.8254 45.7897H45.8258V45.7894H45.8261L45.8264 45.7887L45.8268 45.7884L45.8271 45.788H45.8274L45.8278 45.7874L45.8281 45.787L45.8284 45.7867H45.8288V45.7864L45.8291 45.786H45.8294V45.7857L45.8298 45.7854H45.8301V45.785L45.8304 45.7847L45.8308 45.7844H45.8311L45.8314 45.784V45.7837L45.8318 45.7834L45.8321 45.783H45.8324L45.8328 45.7824L45.8331 45.782L45.8334 45.7817H45.8338V45.7814L45.8341 45.781L45.8344 45.7807L45.8348 45.7804H45.8351V45.78L45.8355 45.7797L45.8358 45.7794H45.8361L45.8365 45.779V45.7787L45.8368 45.7784L45.8371 45.778H45.8375V45.7777L45.8378 45.7774L45.8381 45.777L45.8385 45.7767H45.8388V45.7764L45.8391 45.776L45.8395 45.7757H45.8398L45.8401 45.7754V45.775L45.8405 45.7747L45.8408 45.7744H45.8411L45.8415 45.774V45.7737L45.8418 45.7734L45.8421 45.773H45.8425V45.7727L45.8428 45.7724L45.8431 45.772L45.8435 45.7717H45.8438V45.7714L45.8441 45.771L45.8445 45.7707H45.8448L45.8452 45.7704V45.77L45.8455 45.7697L45.8458 45.7694H45.8462L45.8465 45.769V45.7687L45.8468 45.7684L45.8472 45.768H45.8475V45.7677L45.8478 45.7674L45.8482 45.767L45.8485 45.7667H45.8488V45.7664H45.8492L45.8495 45.7657H45.8498L45.8502 45.7654V45.765L45.8505 45.7647L45.8508 45.7644H45.8512L45.8515 45.764V45.7637L45.8518 45.7634L45.8522 45.763H45.8525V45.7627L45.8528 45.7624L45.8532 45.762L45.8535 45.7617H45.8538V45.7614H45.8542L45.8545 45.7607H45.8549L45.8552 45.7604V45.76L45.8555 45.7597L45.8559 45.7594H45.8562V45.759L45.8565 45.7587L45.8569 45.7584L45.8572 45.758H45.8575V45.7577L45.8579 45.7574L45.8582 45.757L45.8585 45.7567L45.8589 45.7564H45.8592L45.8595 45.7557H45.8599L45.8602 45.7554V45.755H45.8605L45.8609 45.7544H45.8612V45.754L45.8615 45.7537L45.8619 45.7534L45.8622 45.753H45.8625V45.7527L45.8629 45.7524L45.8632 45.752L45.8636 45.7517L45.8639 45.7514H45.8642L45.8646 45.7507H45.8649L45.8652 45.7504V45.75H45.8656V45.7497L45.8659 45.7494H45.8662V45.749L45.8666 45.7487L45.8669 45.7484L45.8672 45.748H45.8676V45.7477H45.8679L45.8682 45.747L45.8686 45.7467L45.8689 45.7464H45.8692L45.8696 45.7457L45.8699 45.7454L45.8702 45.745H45.8706V45.7447L45.8709 45.7444H45.8712V45.744L45.8716 45.7437H45.8719V45.7434L45.8722 45.743L45.8726 45.7427H45.8729L45.8732 45.742L45.8736 45.7417L45.8739 45.7414H45.8743L45.8746 45.7407L45.8749 45.7404L45.8753 45.74H45.8756V45.7397L45.8759 45.7394H45.8763V45.739L45.8766 45.7387H45.8769V45.7384L45.8773 45.738L45.8776 45.7377H45.8779L45.8783 45.7374V45.737L45.8786 45.7367L45.8789 45.7364H45.8793V45.736L45.8796 45.7357L45.8799 45.7354L45.8803 45.735H45.8806V45.7347L45.8809 45.7344L45.8813 45.734H45.8816L45.8819 45.7337V45.7334L45.8823 45.733L45.8826 45.7327H45.883L45.8833 45.7324V45.732L45.8836 45.7317L45.884 45.7314H45.8843V45.731L45.8846 45.7307L45.885 45.7304L45.8853 45.73H45.8856V45.7297L45.886 45.7294L45.8863 45.729H45.8866L45.887 45.7287V45.7284L45.8873 45.728L45.8876 45.7277H45.888L45.8883 45.7274V45.727L45.8886 45.7267L45.889 45.7264H45.8893V45.726L45.8896 45.7257L45.89 45.7254L45.8903 45.725H45.8906V45.7247L45.891 45.7244L45.8913 45.724H45.8916L45.892 45.7237V45.7234L45.8923 45.723L45.8926 45.7227H45.893L45.8933 45.7224V45.722L45.8937 45.7217L45.894 45.7214H45.8943V45.721L45.8947 45.7207L45.895 45.7204L45.8953 45.72H45.8957V45.7197H45.896L45.8963 45.719H45.8967L45.897 45.7187V45.7184L45.8973 45.718L45.8977 45.7177H45.898V45.7174L45.8983 45.717L45.8987 45.7167L45.899 45.7164H45.8993V45.716L45.8997 45.7157L45.9 45.7154H45.9003L45.9007 45.715V45.7147H45.901L45.903 45.7124L45.905 45.7104C47.3163 44.2037 48.1204 42.1634 48.1204 39.9597C48.1204 35.312 44.3951 31.5996 39.7313 31.5996Z"
        fill="white" />
    <path
        d="M39.7313 28.6556H39.8005L39.8333 28.623C46.0566 28.6602 51.1078 33.7167 51.1078 39.927C51.1078 41.8617 50.5575 43.7024 49.6815 45.2867L49.6065 45.4224L49.7363 45.5067C49.9163 45.624 50.0839 45.7597 50.2357 45.911L53.5245 49.1884L53.5282 49.192L53.5318 49.1954C53.8563 49.4827 54.1185 49.8334 54.3025 50.2257C54.4862 50.6177 54.5875 51.0434 54.6002 51.476C54.6133 51.9087 54.537 52.3394 54.3768 52.7417C54.2166 53.144 53.9754 53.5094 53.6683 53.8154C53.3612 54.1214 52.9943 54.3617 52.5906 54.5214C52.1872 54.681 51.755 54.757 51.3208 54.7444C50.8867 54.7314 50.4595 54.6304 50.0661 54.4474C49.6724 54.2644 49.3206 54.003 49.0319 53.6794L49.0289 53.6757L49.0252 53.6724L45.7364 50.3947L45.7311 50.3894L45.7251 50.3844C45.5776 50.2624 45.4417 50.127 45.3193 49.98L45.231 49.8744L45.1099 49.9407C43.5254 50.8107 41.6462 51.2637 39.7313 51.2637C33.4765 51.2637 28.3879 46.193 28.3879 39.9597C28.3879 33.7264 33.4765 28.6556 39.7313 28.6556ZM39.7313 31.5996H39.662L39.6289 31.6327C34.9978 31.6694 31.3093 35.368 31.3093 39.9924C31.3093 44.64 35.0346 48.3524 39.6985 48.3524C41.8754 48.3524 43.8894 47.5847 45.3688 46.2444L45.3775 46.2367L45.3852 46.2277C45.5076 46.0807 45.6435 45.9454 45.791 45.823L45.797 45.8184L45.8023 45.8127L45.8027 45.8124H45.803L45.8033 45.812V45.8117L45.8037 45.8114L45.804 45.811H45.8043L45.8047 45.8107V45.8104L45.805 45.81L45.8053 45.8097H45.8057V45.8094L45.806 45.809L45.8064 45.8087L45.8067 45.8084H45.807V45.808H45.8074L45.8077 45.8074H45.808L45.8084 45.807V45.8067L45.8087 45.8064L45.809 45.806H45.8094L45.8097 45.8057V45.8054L45.81 45.805L45.8104 45.8047H45.8107V45.8044L45.811 45.804L45.8114 45.8037L45.8117 45.8034H45.812V45.803H45.8124L45.8127 45.8024H45.813L45.8134 45.802V45.8017H45.8137L45.814 45.801H45.8144V45.8007L45.8147 45.8004L45.815 45.8L45.8154 45.7997H45.8157V45.7994L45.816 45.799L45.8164 45.7987L45.8167 45.7984L45.8171 45.798H45.8174L45.8177 45.7974H45.8181L45.8184 45.797V45.7967H45.8187L45.8191 45.796H45.8194V45.7957L45.8197 45.7954L45.8201 45.795L45.8204 45.7947H45.8207V45.7944L45.8211 45.794L45.8214 45.7937L45.8217 45.7934L45.8221 45.793H45.8224L45.8227 45.7924L45.8231 45.792L45.8234 45.7917H45.8237V45.7914L45.8241 45.791H45.8244V45.7907L45.8247 45.7904H45.8251V45.79L45.8254 45.7897H45.8258V45.7894H45.8261L45.8264 45.7887L45.8268 45.7884L45.8271 45.788H45.8274L45.8278 45.7874L45.8281 45.787L45.8284 45.7867H45.8288V45.7864L45.8291 45.786H45.8294V45.7857L45.8298 45.7854H45.8301V45.785L45.8304 45.7847L45.8308 45.7844H45.8311L45.8314 45.784V45.7837L45.8318 45.7834L45.8321 45.783H45.8324L45.8328 45.7824L45.8331 45.782L45.8334 45.7817H45.8338V45.7814L45.8341 45.781L45.8344 45.7807L45.8348 45.7804H45.8351V45.78L45.8355 45.7797L45.8358 45.7794H45.8361L45.8365 45.779V45.7787L45.8368 45.7784L45.8371 45.778H45.8375V45.7777L45.8378 45.7774L45.8381 45.777L45.8385 45.7767H45.8388V45.7764L45.8391 45.776L45.8395 45.7757H45.8398L45.8401 45.7754V45.775L45.8405 45.7747L45.8408 45.7744H45.8411L45.8415 45.774V45.7737L45.8418 45.7734L45.8421 45.773H45.8425V45.7727L45.8428 45.7724L45.8431 45.772L45.8435 45.7717H45.8438V45.7714L45.8441 45.771L45.8445 45.7707H45.8448L45.8452 45.7704V45.77L45.8455 45.7697L45.8458 45.7694H45.8462L45.8465 45.769V45.7687L45.8468 45.7684L45.8472 45.768H45.8475V45.7677L45.8478 45.7674L45.8482 45.767L45.8485 45.7667H45.8488V45.7664H45.8492L45.8495 45.7657H45.8498L45.8502 45.7654V45.765L45.8505 45.7647L45.8508 45.7644H45.8512L45.8515 45.764V45.7637L45.8518 45.7634L45.8522 45.763H45.8525V45.7627L45.8528 45.7624L45.8532 45.762L45.8535 45.7617H45.8538V45.7614H45.8542L45.8545 45.7607H45.8549L45.8552 45.7604V45.76L45.8555 45.7597L45.8559 45.7594H45.8562V45.759L45.8565 45.7587L45.8569 45.7584L45.8572 45.758H45.8575V45.7577L45.8579 45.7574L45.8582 45.757L45.8585 45.7567L45.8589 45.7564H45.8592L45.8595 45.7557H45.8599L45.8602 45.7554V45.755H45.8605L45.8609 45.7544H45.8612V45.754L45.8615 45.7537L45.8619 45.7534L45.8622 45.753H45.8625V45.7527L45.8629 45.7524L45.8632 45.752L45.8636 45.7517L45.8639 45.7514H45.8642L45.8646 45.7507H45.8649L45.8652 45.7504V45.75H45.8656V45.7497L45.8659 45.7494H45.8662V45.749L45.8666 45.7487L45.8669 45.7484L45.8672 45.748H45.8676V45.7477H45.8679L45.8682 45.747L45.8686 45.7467L45.8689 45.7464H45.8692L45.8696 45.7457L45.8699 45.7454L45.8702 45.745H45.8706V45.7447L45.8709 45.7444H45.8712V45.744L45.8716 45.7437H45.8719V45.7434L45.8722 45.743L45.8726 45.7427H45.8729L45.8732 45.742L45.8736 45.7417L45.8739 45.7414H45.8743L45.8746 45.7407L45.8749 45.7404L45.8753 45.74H45.8756V45.7397L45.8759 45.7394H45.8763V45.739L45.8766 45.7387H45.8769V45.7384L45.8773 45.738L45.8776 45.7377H45.8779L45.8783 45.7374V45.737L45.8786 45.7367L45.8789 45.7364H45.8793V45.736L45.8796 45.7357L45.8799 45.7354L45.8803 45.735H45.8806V45.7347L45.8809 45.7344L45.8813 45.734H45.8816L45.8819 45.7337V45.7334L45.8823 45.733L45.8826 45.7327H45.883L45.8833 45.7324V45.732L45.8836 45.7317L45.884 45.7314H45.8843V45.731L45.8846 45.7307L45.885 45.7304L45.8853 45.73H45.8856V45.7297L45.886 45.7294L45.8863 45.729H45.8866L45.887 45.7287V45.7284L45.8873 45.728L45.8876 45.7277H45.888L45.8883 45.7274V45.727L45.8886 45.7267L45.889 45.7264H45.8893V45.726L45.8896 45.7257L45.89 45.7254L45.8903 45.725H45.8906V45.7247L45.891 45.7244L45.8913 45.724H45.8916L45.892 45.7237V45.7234L45.8923 45.723L45.8926 45.7227H45.893L45.8933 45.7224V45.722L45.8937 45.7217L45.894 45.7214H45.8943V45.721L45.8947 45.7207L45.895 45.7204L45.8953 45.72H45.8957V45.7197H45.896L45.8963 45.719H45.8967L45.897 45.7187V45.7184L45.8973 45.718L45.8977 45.7177H45.898V45.7174L45.8983 45.717L45.8987 45.7167L45.899 45.7164H45.8993V45.716L45.8997 45.7157L45.9 45.7154H45.9003L45.9007 45.715V45.7147H45.901L45.903 45.7124L45.905 45.7104C47.3163 44.2037 48.1204 42.1634 48.1204 39.9597C48.1204 35.312 44.3951 31.5996 39.7313 31.5996Z"
        stroke="white" />
    <path
        d="M39.7313 28.6556H39.8005L39.8333 28.623C46.0566 28.6602 51.1078 33.7167 51.1078 39.927C51.1078 41.8617 50.5575 43.7024 49.6815 45.2867L49.6065 45.4224L49.7363 45.5067C49.9163 45.624 50.0839 45.7597 50.2357 45.911L53.5245 49.1884L53.5282 49.192L53.5318 49.1954C53.8563 49.4827 54.1185 49.8334 54.3025 50.2257C54.4862 50.6177 54.5875 51.0434 54.6002 51.476C54.6133 51.9087 54.537 52.3394 54.3768 52.7417C54.2166 53.144 53.9754 53.5094 53.6683 53.8154C53.3612 54.1214 52.9943 54.3617 52.5906 54.5214C52.1872 54.681 51.755 54.757 51.3208 54.7444C50.8867 54.7314 50.4595 54.6304 50.0661 54.4474C49.6724 54.2644 49.3206 54.003 49.0319 53.6794L49.0289 53.6757L49.0252 53.6724L45.7364 50.3947L45.7311 50.3894L45.7251 50.3844C45.5776 50.2624 45.4417 50.127 45.3193 49.98L45.231 49.8744L45.1099 49.9407C43.5254 50.8107 41.6462 51.2637 39.7313 51.2637C33.4765 51.2637 28.3879 46.193 28.3879 39.9597C28.3879 33.7264 33.4765 28.6556 39.7313 28.6556ZM39.7313 31.5996H39.662L39.6289 31.6327C34.9978 31.6694 31.3093 35.368 31.3093 39.9924C31.3093 44.64 35.0346 48.3524 39.6985 48.3524C41.8754 48.3524 43.8894 47.5847 45.3688 46.2444L45.3775 46.2367L45.3852 46.2277C45.5076 46.0807 45.6435 45.9454 45.791 45.823L45.797 45.8184L45.8023 45.8127L45.8027 45.8124H45.803L45.8033 45.812V45.8117L45.8037 45.8114L45.804 45.811H45.8043L45.8047 45.8107V45.8104L45.805 45.81L45.8053 45.8097H45.8057V45.8094L45.806 45.809L45.8064 45.8087L45.8067 45.8084H45.807V45.808H45.8074L45.8077 45.8074H45.808L45.8084 45.807V45.8067L45.8087 45.8064L45.809 45.806H45.8094L45.8097 45.8057V45.8054L45.81 45.805L45.8104 45.8047H45.8107V45.8044L45.811 45.804L45.8114 45.8037L45.8117 45.8034H45.812V45.803H45.8124L45.8127 45.8024H45.813L45.8134 45.802V45.8017H45.8137L45.814 45.801H45.8144V45.8007L45.8147 45.8004L45.815 45.8L45.8154 45.7997H45.8157V45.7994L45.816 45.799L45.8164 45.7987L45.8167 45.7984L45.8171 45.798H45.8174L45.8177 45.7974H45.8181L45.8184 45.797V45.7967H45.8187L45.8191 45.796H45.8194V45.7957L45.8197 45.7954L45.8201 45.795L45.8204 45.7947H45.8207V45.7944L45.8211 45.794L45.8214 45.7937L45.8217 45.7934L45.8221 45.793H45.8224L45.8227 45.7924L45.8231 45.792L45.8234 45.7917H45.8237V45.7914L45.8241 45.791H45.8244V45.7907L45.8247 45.7904H45.8251V45.79L45.8254 45.7897H45.8258V45.7894H45.8261L45.8264 45.7887L45.8268 45.7884L45.8271 45.788H45.8274L45.8278 45.7874L45.8281 45.787L45.8284 45.7867H45.8288V45.7864L45.8291 45.786H45.8294V45.7857L45.8298 45.7854H45.8301V45.785L45.8304 45.7847L45.8308 45.7844H45.8311L45.8314 45.784V45.7837L45.8318 45.7834L45.8321 45.783H45.8324L45.8328 45.7824L45.8331 45.782L45.8334 45.7817H45.8338V45.7814L45.8341 45.781L45.8344 45.7807L45.8348 45.7804H45.8351V45.78L45.8355 45.7797L45.8358 45.7794H45.8361L45.8365 45.779V45.7787L45.8368 45.7784L45.8371 45.778H45.8375V45.7777L45.8378 45.7774L45.8381 45.777L45.8385 45.7767H45.8388V45.7764L45.8391 45.776L45.8395 45.7757H45.8398L45.8401 45.7754V45.775L45.8405 45.7747L45.8408 45.7744H45.8411L45.8415 45.774V45.7737L45.8418 45.7734L45.8421 45.773H45.8425V45.7727L45.8428 45.7724L45.8431 45.772L45.8435 45.7717H45.8438V45.7714L45.8441 45.771L45.8445 45.7707H45.8448L45.8452 45.7704V45.77L45.8455 45.7697L45.8458 45.7694H45.8462L45.8465 45.769V45.7687L45.8468 45.7684L45.8472 45.768H45.8475V45.7677L45.8478 45.7674L45.8482 45.767L45.8485 45.7667H45.8488V45.7664H45.8492L45.8495 45.7657H45.8498L45.8502 45.7654V45.765L45.8505 45.7647L45.8508 45.7644H45.8512L45.8515 45.764V45.7637L45.8518 45.7634L45.8522 45.763H45.8525V45.7627L45.8528 45.7624L45.8532 45.762L45.8535 45.7617H45.8538V45.7614H45.8542L45.8545 45.7607H45.8549L45.8552 45.7604V45.76L45.8555 45.7597L45.8559 45.7594H45.8562V45.759L45.8565 45.7587L45.8569 45.7584L45.8572 45.758H45.8575V45.7577L45.8579 45.7574L45.8582 45.757L45.8585 45.7567L45.8589 45.7564H45.8592L45.8595 45.7557H45.8599L45.8602 45.7554V45.755H45.8605L45.8609 45.7544H45.8612V45.754L45.8615 45.7537L45.8619 45.7534L45.8622 45.753H45.8625V45.7527L45.8629 45.7524L45.8632 45.752L45.8636 45.7517L45.8639 45.7514H45.8642L45.8646 45.7507H45.8649L45.8652 45.7504V45.75H45.8656V45.7497L45.8659 45.7494H45.8662V45.749L45.8666 45.7487L45.8669 45.7484L45.8672 45.748H45.8676V45.7477H45.8679L45.8682 45.747L45.8686 45.7467L45.8689 45.7464H45.8692L45.8696 45.7457L45.8699 45.7454L45.8702 45.745H45.8706V45.7447L45.8709 45.7444H45.8712V45.744L45.8716 45.7437H45.8719V45.7434L45.8722 45.743L45.8726 45.7427H45.8729L45.8732 45.742L45.8736 45.7417L45.8739 45.7414H45.8743L45.8746 45.7407L45.8749 45.7404L45.8753 45.74H45.8756V45.7397L45.8759 45.7394H45.8763V45.739L45.8766 45.7387H45.8769V45.7384L45.8773 45.738L45.8776 45.7377H45.8779L45.8783 45.7374V45.737L45.8786 45.7367L45.8789 45.7364H45.8793V45.736L45.8796 45.7357L45.8799 45.7354L45.8803 45.735H45.8806V45.7347L45.8809 45.7344L45.8813 45.734H45.8816L45.8819 45.7337V45.7334L45.8823 45.733L45.8826 45.7327H45.883L45.8833 45.7324V45.732L45.8836 45.7317L45.884 45.7314H45.8843V45.731L45.8846 45.7307L45.885 45.7304L45.8853 45.73H45.8856V45.7297L45.886 45.7294L45.8863 45.729H45.8866L45.887 45.7287V45.7284L45.8873 45.728L45.8876 45.7277H45.888L45.8883 45.7274V45.727L45.8886 45.7267L45.889 45.7264H45.8893V45.726L45.8896 45.7257L45.89 45.7254L45.8903 45.725H45.8906V45.7247L45.891 45.7244L45.8913 45.724H45.8916L45.892 45.7237V45.7234L45.8923 45.723L45.8926 45.7227H45.893L45.8933 45.7224V45.722L45.8937 45.7217L45.894 45.7214H45.8943V45.721L45.8947 45.7207L45.895 45.7204L45.8953 45.72H45.8957V45.7197H45.896L45.8963 45.719H45.8967L45.897 45.7187V45.7184L45.8973 45.718L45.8977 45.7177H45.898V45.7174L45.8983 45.717L45.8987 45.7167L45.899 45.7164H45.8993V45.716L45.8997 45.7157L45.9 45.7154H45.9003L45.9007 45.715V45.7147H45.901L45.903 45.7124L45.905 45.7104C47.3163 44.2037 48.1204 42.1634 48.1204 39.9597C48.1204 35.312 44.3951 31.5996 39.7313 31.5996Z"
        stroke="white" />
</svg>