<svg width="266" height="246" viewBox="0 0 266 246" fill="none" xmlns="http://www.w3.org/2000/svg">
<path d="M34.276 161.796H71.996V180H11.316V65.528H34.276V161.796Z" fill="black"/>
<path d="M33.35 44C35.3833 44.4333 37.0167 45.45 38.25 47.05C39.4833 48.6167 40.1 50.4167 40.1 52.45C40.1 55.3833 39.0667 57.7167 37 59.45C34.9667 61.15 32.1167 62 28.45 62H12.1V26.9H27.9C31.4667 26.9 34.25 27.7167 36.25 29.35C38.2833 30.9833 39.3 33.2 39.3 36C39.3 38.0667 38.75 39.7833 37.65 41.15C36.5833 42.5167 35.15 43.4667 33.35 44ZM20.65 41.1H26.25C27.65 41.1 28.7167 40.8 29.45 40.2C30.2167 39.5667 30.6 38.65 30.6 37.45C30.6 36.25 30.2167 35.3333 29.45 34.7C28.7167 34.0667 27.65 33.75 26.25 33.75H20.65V41.1ZM26.95 55.1C28.3833 55.1 29.4833 54.7833 30.25 54.15C31.05 53.4833 31.45 52.5333 31.45 51.3C31.45 50.0667 31.0333 49.1 30.2 48.4C29.4 47.7 28.2833 47.35 26.85 47.35H20.65V55.1H26.95ZM72.609 34.1V62H64.059V58.2C63.1923 59.4333 62.009 60.4333 60.509 61.2C59.0423 61.9333 57.409 62.3 55.609 62.3C53.4757 62.3 51.5923 61.8333 49.959 60.9C48.3257 59.9333 47.059 58.55 46.159 56.75C45.259 54.95 44.809 52.8333 44.809 50.4V34.1H53.309V49.25C53.309 51.1167 53.7923 52.5667 54.759 53.6C55.7257 54.6333 57.0257 55.15 58.659 55.15C60.3257 55.15 61.6423 54.6333 62.609 53.6C63.5757 52.5667 64.059 51.1167 64.059 49.25V34.1H72.609ZM90.1004 62.4C87.6671 62.4 85.5004 61.9833 83.6004 61.15C81.7004 60.3167 80.2004 59.1833 79.1004 57.75C78.0004 56.2833 77.3837 54.65 77.2504 52.85H85.7004C85.8004 53.8167 86.2504 54.6 87.0504 55.2C87.8504 55.8 88.8337 56.1 90.0004 56.1C91.0671 56.1 91.8837 55.9 92.4504 55.5C93.0504 55.0667 93.3504 54.5167 93.3504 53.85C93.3504 53.05 92.9337 52.4667 92.1004 52.1C91.2671 51.7 89.9171 51.2667 88.0504 50.8C86.0504 50.3333 84.3837 49.85 83.0504 49.35C81.7171 48.8167 80.5671 48 79.6004 46.9C78.6337 45.7667 78.1504 44.25 78.1504 42.35C78.1504 40.75 78.5837 39.3 79.4504 38C80.3504 36.6667 81.6504 35.6167 83.3504 34.85C85.0837 34.0833 87.1337 33.7 89.5004 33.7C93.0004 33.7 95.7504 34.5667 97.7504 36.3C99.7837 38.0333 100.95 40.3333 101.25 43.2H93.3504C93.2171 42.2333 92.7837 41.4667 92.0504 40.9C91.3504 40.3333 90.4171 40.05 89.2504 40.05C88.2504 40.05 87.4837 40.25 86.9504 40.65C86.4171 41.0167 86.1504 41.5333 86.1504 42.2C86.1504 43 86.5671 43.6 87.4004 44C88.2671 44.4 89.6004 44.8 91.4004 45.2C93.4671 45.7333 95.1504 46.2667 96.4504 46.8C97.7504 47.3 98.8837 48.1333 99.8504 49.3C100.85 50.4333 101.367 51.9667 101.4 53.9C101.4 55.5333 100.934 57 100 58.3C99.1004 59.5667 97.7837 60.5667 96.0504 61.3C94.3504 62.0333 92.3671 62.4 90.1004 62.4ZM104.931 48.05C104.931 45.15 105.515 42.6167 106.681 40.45C107.881 38.2833 109.531 36.6167 111.631 35.45C113.765 34.2833 116.198 33.7 118.931 33.7C122.431 33.7 125.348 34.6167 127.681 36.45C130.048 38.2833 131.598 40.8667 132.331 44.2H123.231C122.465 42.0667 120.981 41 118.781 41C117.215 41 115.965 41.6167 115.031 42.85C114.098 44.05 113.631 45.7833 113.631 48.05C113.631 50.3167 114.098 52.0667 115.031 53.3C115.965 54.5 117.215 55.1 118.781 55.1C120.981 55.1 122.465 54.0333 123.231 51.9H132.331C131.598 55.1667 130.048 57.7333 127.681 59.6C125.315 61.4667 122.398 62.4 118.931 62.4C116.198 62.4 113.765 61.8167 111.631 60.65C109.531 59.4833 107.881 57.8167 106.681 55.65C105.515 53.4833 104.931 50.95 104.931 48.05ZM135.205 48C135.205 45.1333 135.738 42.6167 136.805 40.45C137.905 38.2833 139.388 36.6167 141.255 35.45C143.121 34.2833 145.205 33.7 147.505 33.7C149.471 33.7 151.188 34.1 152.655 34.9C154.155 35.7 155.305 36.75 156.105 38.05V34.1H164.655V62H156.105V58.05C155.271 59.35 154.105 60.4 152.605 61.2C151.138 62 149.421 62.4 147.455 62.4C145.188 62.4 143.121 61.8167 141.255 60.65C139.388 59.45 137.905 57.7667 136.805 55.6C135.738 53.4 135.205 50.8667 135.205 48ZM156.105 48.05C156.105 45.9167 155.505 44.2333 154.305 43C153.138 41.7667 151.705 41.15 150.005 41.15C148.305 41.15 146.855 41.7667 145.655 43C144.488 44.2 143.905 45.8667 143.905 48C143.905 50.1333 144.488 51.8333 145.655 53.1C146.855 54.3333 148.305 54.95 150.005 54.95C151.705 54.95 153.138 54.3333 154.305 53.1C155.505 51.8667 156.105 50.1833 156.105 48.05Z" fill="#B81F1F"/>
<path d="M194.276 102.428C197.228 98.0546 201.273 94.5012 206.412 91.7679C211.66 89.0346 217.619 87.6679 224.288 87.6679C232.051 87.6679 239.048 89.5812 245.28 93.4079C251.621 97.2346 256.596 102.701 260.204 109.808C263.921 116.805 265.78 124.951 265.78 134.244C265.78 143.537 263.921 151.792 260.204 159.008C256.596 166.115 251.621 171.636 245.28 175.572C239.048 179.508 232.051 181.476 224.288 181.476C217.509 181.476 211.551 180.164 206.412 177.54C201.383 174.807 197.337 171.308 194.276 167.044V180H171.316V65.6399H194.276V102.428ZM242.328 134.244C242.328 128.777 241.18 124.076 238.884 120.14C236.697 116.095 233.745 113.033 230.028 110.956C226.42 108.879 222.484 107.84 218.22 107.84C214.065 107.84 210.129 108.933 206.412 111.12C202.804 113.197 199.852 116.259 197.556 120.304C195.369 124.349 194.276 129.105 194.276 134.572C194.276 140.039 195.369 144.795 197.556 148.84C199.852 152.885 202.804 156.001 206.412 158.188C210.129 160.265 214.065 161.304 218.22 161.304C222.484 161.304 226.42 160.211 230.028 158.024C233.745 155.837 236.697 152.721 238.884 148.676C241.18 144.631 242.328 139.82 242.328 134.244Z" fill="black"/>
<circle cx="103.5" cy="133.5" r="56.5" fill="#FCF3F3"/>
<rect x="100.526" y="130.526" width="59.4737" height="59.4737" fill="#FCF3F3"/>
<path d="M101.339 98.4115H101.546L101.641 98.3163C119.755 98.4278 134.457 113.198 134.457 131.338C134.457 136.99 132.855 142.367 130.304 146.996L130.081 147.402L130.469 147.655C130.992 147.998 131.479 148.393 131.921 148.836L131.921 148.836L141.499 158.413L141.509 158.424L141.52 158.434C142.465 159.273 143.227 160.296 143.762 161.44C144.296 162.585 144.591 163.827 144.628 165.089C144.665 166.352 144.444 167.609 143.978 168.783C143.512 169.957 142.81 171.023 141.917 171.917C141.024 172.81 139.958 173.511 138.784 173.977C137.61 174.443 136.353 174.665 135.09 174.627C133.827 174.59 132.586 174.295 131.441 173.761C130.297 173.227 129.273 172.464 128.434 171.52L128.424 171.509L128.414 171.498L118.836 161.92L118.82 161.904L118.802 161.889C118.374 161.533 117.979 161.138 117.622 160.709L117.358 160.392L116.996 160.591C112.384 163.133 106.913 164.456 101.339 164.456C83.1296 164.456 68.3164 149.643 68.3164 131.434C68.3164 113.225 83.1296 98.4115 101.339 98.4115ZM101.339 106.989H101.131L101.035 107.086C87.543 107.196 76.7984 118.01 76.7984 131.529C76.7984 145.119 87.6536 155.974 101.243 155.974C107.586 155.974 113.454 153.729 117.766 149.81L117.791 149.786L117.814 149.759C118.17 149.331 118.565 148.936 118.994 148.579L119.012 148.565L119.028 148.548L119.028 148.548L119.029 148.547L119.03 148.547L119.03 148.546L119.031 148.545L119.031 148.545L119.032 148.544L119.032 148.544L119.033 148.543L119.033 148.543L119.034 148.542L119.035 148.542L119.035 148.541L119.036 148.54L119.036 148.54L119.037 148.539L119.037 148.539L119.038 148.538L119.039 148.538L119.039 148.537L119.04 148.536L119.04 148.536L119.041 148.535L119.041 148.535L119.042 148.534L119.042 148.534L119.043 148.533L119.044 148.533L119.044 148.532L119.045 148.531L119.045 148.531L119.046 148.53L119.046 148.53L119.047 148.529L119.048 148.529L119.048 148.528L119.049 148.527L119.049 148.527L119.05 148.526L119.05 148.526L119.051 148.525L119.051 148.525L119.052 148.524L119.053 148.524L119.053 148.523L119.054 148.522L119.054 148.522L119.055 148.521L119.055 148.521L119.056 148.52L119.057 148.52L119.057 148.519L119.058 148.519L119.058 148.518L119.059 148.517L119.059 148.517L119.06 148.516L119.06 148.516L119.061 148.515L119.062 148.515L119.062 148.514L119.063 148.513L119.063 148.513L119.064 148.512L119.064 148.512L119.065 148.511L119.065 148.511L119.066 148.51L119.067 148.51L119.067 148.509L119.068 148.508L119.068 148.508L119.069 148.507L119.069 148.507L119.07 148.506L119.071 148.506L119.071 148.505L119.072 148.504L119.072 148.504L119.073 148.503L119.073 148.503L119.074 148.502L119.074 148.502L119.075 148.501L119.076 148.501L119.076 148.5L119.077 148.499L119.077 148.499L119.078 148.498L119.078 148.498L119.079 148.497L119.08 148.497L119.08 148.496L119.081 148.496L119.081 148.495L119.082 148.494L119.082 148.494L119.083 148.493L119.083 148.493L119.084 148.492L119.085 148.492L119.085 148.491L119.086 148.49L119.086 148.49L119.087 148.489L119.087 148.489L119.088 148.488L119.088 148.488L119.089 148.487L119.09 148.487L119.09 148.486L119.091 148.485L119.091 148.485L119.092 148.484L119.092 148.484L119.093 148.483L119.094 148.483L119.094 148.482L119.095 148.481L119.095 148.481L119.096 148.48L119.096 148.48L119.097 148.479L119.097 148.479L119.098 148.478L119.099 148.478L119.099 148.477L119.1 148.476L119.1 148.476L119.101 148.475L119.101 148.475L119.102 148.474L119.103 148.474L119.103 148.473L119.104 148.472L119.104 148.472L119.105 148.471L119.105 148.471L119.106 148.47L119.106 148.47L119.107 148.469L119.108 148.469L119.108 148.468L119.109 148.467L119.109 148.467L119.11 148.466L119.11 148.466L119.111 148.465L119.111 148.465L119.112 148.464L119.113 148.464L119.113 148.463L119.114 148.462L119.114 148.462L119.115 148.461L119.115 148.461L119.116 148.46L119.117 148.46L119.117 148.459L119.118 148.458L119.118 148.458L119.119 148.457L119.119 148.457L119.12 148.456L119.12 148.456L119.121 148.455L119.122 148.455L119.122 148.454L119.123 148.453L119.123 148.453L119.124 148.452L119.124 148.452L119.125 148.451L119.126 148.451L119.126 148.45L119.127 148.449L119.127 148.449L119.128 148.448L119.128 148.448L119.129 148.447L119.129 148.447L119.13 148.446L119.131 148.446L119.131 148.445L119.132 148.444L119.132 148.444L119.133 148.443L119.133 148.443L119.134 148.442L119.135 148.442L119.135 148.441L119.136 148.441L119.136 148.44L119.137 148.439L119.137 148.439L119.138 148.438L119.138 148.438L119.139 148.437L119.14 148.437L119.14 148.436L119.141 148.435L119.141 148.435L119.142 148.434L119.142 148.434L119.143 148.433L119.143 148.433L119.144 148.432L119.145 148.432L119.145 148.431L119.146 148.43L119.146 148.43L119.147 148.429L119.147 148.429L119.148 148.428L119.149 148.428L119.149 148.427L119.15 148.426L119.15 148.426L119.151 148.425L119.151 148.425L119.152 148.424L119.152 148.424L119.153 148.423L119.154 148.423L119.154 148.422L119.155 148.421L119.155 148.421L119.156 148.42L119.156 148.42L119.157 148.419L119.158 148.419L119.158 148.418L119.159 148.417L119.159 148.417L119.16 148.416L119.16 148.416L119.161 148.415L119.161 148.415L119.162 148.414L119.163 148.414L119.163 148.413L119.164 148.412L119.164 148.412L119.165 148.411L119.165 148.411L119.166 148.41L119.167 148.41L119.167 148.409L119.168 148.409L119.168 148.408L119.169 148.407L119.169 148.407L119.17 148.406L119.17 148.406L119.171 148.405L119.172 148.405L119.172 148.404L119.173 148.403L119.173 148.403L119.174 148.402L119.174 148.402L119.175 148.401L119.175 148.401L119.176 148.4L119.177 148.4L119.177 148.399L119.178 148.398L119.178 148.398L119.179 148.397L119.179 148.397L119.18 148.396L119.181 148.396L119.181 148.395L119.182 148.394L119.182 148.394L119.183 148.393L119.183 148.393L119.184 148.392L119.184 148.392L119.185 148.391L119.186 148.391L119.186 148.39L119.187 148.389L119.187 148.389L119.188 148.388L119.188 148.388L119.189 148.387L119.19 148.387L119.19 148.386L119.191 148.386L119.191 148.385L119.192 148.384L119.192 148.384L119.193 148.383L119.193 148.383L119.194 148.382L119.195 148.382L119.195 148.381L119.196 148.38L119.196 148.38L119.197 148.379L119.197 148.379L119.198 148.378L119.198 148.378L119.199 148.377L119.2 148.377L119.2 148.376L119.201 148.375L119.201 148.375L119.202 148.374L119.202 148.374L119.203 148.373L119.204 148.373L119.204 148.372L119.205 148.371L119.205 148.371L119.206 148.37L119.206 148.37L119.207 148.369L119.207 148.369L119.208 148.368L119.209 148.368L119.209 148.367L119.21 148.366L119.21 148.366L119.211 148.365L119.211 148.365L119.212 148.364L119.213 148.364L119.213 148.363L119.214 148.362L119.214 148.362L119.215 148.361L119.215 148.361L119.216 148.36L119.216 148.36L119.217 148.359L119.218 148.359L119.218 148.358L119.219 148.357L119.219 148.357L119.22 148.356L119.22 148.356L119.221 148.355L119.221 148.355L119.222 148.354L119.223 148.354L119.223 148.353L119.224 148.352L119.224 148.352L119.225 148.351L119.225 148.351L119.226 148.35L119.227 148.35L119.227 148.349L119.228 148.348L119.228 148.348L119.229 148.347L119.229 148.347L119.23 148.346L119.23 148.346L119.231 148.345L119.232 148.345L119.232 148.344L119.233 148.343L119.233 148.343L119.234 148.342L119.234 148.342L119.235 148.341L119.236 148.341L119.236 148.34L119.237 148.339L119.237 148.339L119.238 148.338L119.238 148.338L119.239 148.337L119.239 148.337L119.24 148.336L119.241 148.336L119.241 148.335L119.242 148.334L119.242 148.334L119.243 148.333L119.243 148.333L119.244 148.332L119.245 148.332L119.245 148.331L119.246 148.331L119.246 148.33L119.247 148.329L119.247 148.329L119.248 148.328L119.248 148.328L119.249 148.327L119.25 148.327L119.25 148.326L119.251 148.325L119.251 148.325L119.252 148.324L119.252 148.324L119.253 148.323L119.253 148.323L119.254 148.322L119.255 148.322L119.255 148.321L119.256 148.32L119.256 148.32L119.257 148.319L119.257 148.319L119.258 148.318L119.259 148.318L119.259 148.317L119.26 148.316L119.26 148.316L119.261 148.315L119.261 148.315L119.262 148.314L119.262 148.314L119.263 148.313L119.264 148.313L119.264 148.312L119.265 148.311L119.265 148.311L119.266 148.31L119.266 148.31L119.267 148.309L119.268 148.309L119.268 148.308L119.269 148.308L119.269 148.307L119.27 148.306L119.27 148.306L119.271 148.305L119.271 148.305L119.272 148.304L119.273 148.304L119.273 148.303L119.274 148.302L119.274 148.302L119.275 148.301L119.275 148.301L119.276 148.3L119.276 148.3L119.277 148.299L119.278 148.299L119.278 148.298L119.279 148.297L119.279 148.297L119.28 148.296L119.28 148.296L119.281 148.295L119.282 148.295L119.282 148.294L119.283 148.293L119.283 148.293L119.284 148.292L119.284 148.292L119.285 148.291L119.285 148.291L119.286 148.29L119.287 148.29L119.287 148.289L119.288 148.288L119.288 148.288L119.289 148.287L119.289 148.287L119.29 148.286L119.291 148.286L119.291 148.285L119.292 148.284L119.292 148.284L119.293 148.283L119.293 148.283L119.294 148.282L119.294 148.282L119.295 148.281L119.296 148.281L119.296 148.28L119.297 148.279L119.297 148.279L119.298 148.278L119.298 148.278L119.299 148.277L119.3 148.277L119.3 148.276L119.301 148.276L119.301 148.275L119.302 148.274L119.302 148.274L119.303 148.273L119.303 148.273L119.304 148.272L119.305 148.272L119.305 148.271L119.306 148.27L119.306 148.27L119.307 148.269L119.307 148.269L119.308 148.268L119.308 148.268L119.309 148.267L119.31 148.267L119.31 148.266L119.311 148.265L119.311 148.265L119.312 148.264L119.312 148.264L119.313 148.263L119.314 148.263L119.314 148.262L119.315 148.261L119.315 148.261L119.321 148.255L119.327 148.249C123.44 143.842 125.783 137.877 125.783 131.434C125.783 117.844 114.928 106.989 101.339 106.989Z" fill="white"/>
<path d="M101.339 98.4115H101.546L101.641 98.3163C119.755 98.4278 134.457 113.198 134.457 131.338C134.457 136.99 132.855 142.367 130.304 146.996L130.081 147.402L130.469 147.655C130.992 147.998 131.479 148.393 131.921 148.836L131.921 148.836L141.499 158.413L141.509 158.424L141.52 158.434C142.465 159.273 143.227 160.296 143.762 161.44C144.296 162.585 144.591 163.827 144.628 165.089C144.665 166.352 144.444 167.609 143.978 168.783C143.512 169.957 142.81 171.023 141.917 171.917C141.024 172.81 139.958 173.511 138.784 173.977C137.61 174.443 136.353 174.665 135.09 174.627C133.827 174.59 132.586 174.295 131.441 173.761C130.297 173.227 129.273 172.464 128.434 171.52L128.424 171.509L128.414 171.498L118.836 161.92L118.82 161.904L118.802 161.889C118.374 161.533 117.979 161.138 117.622 160.709L117.358 160.392L116.996 160.591C112.384 163.133 106.913 164.456 101.339 164.456C83.1296 164.456 68.3164 149.643 68.3164 131.434C68.3164 113.225 83.1296 98.4115 101.339 98.4115ZM101.339 106.989H101.131L101.035 107.086C87.543 107.196 76.7984 118.01 76.7984 131.529C76.7984 145.119 87.6536 155.974 101.243 155.974C107.586 155.974 113.454 153.729 117.766 149.81L117.791 149.786L117.814 149.759C118.17 149.331 118.565 148.936 118.994 148.579L119.012 148.565L119.028 148.548L119.028 148.548L119.029 148.547L119.03 148.547L119.03 148.546L119.031 148.545L119.031 148.545L119.032 148.544L119.032 148.544L119.033 148.543L119.033 148.543L119.034 148.542L119.035 148.542L119.035 148.541L119.036 148.54L119.036 148.54L119.037 148.539L119.037 148.539L119.038 148.538L119.039 148.538L119.039 148.537L119.04 148.536L119.04 148.536L119.041 148.535L119.041 148.535L119.042 148.534L119.042 148.534L119.043 148.533L119.044 148.533L119.044 148.532L119.045 148.531L119.045 148.531L119.046 148.53L119.046 148.53L119.047 148.529L119.048 148.529L119.048 148.528L119.049 148.527L119.049 148.527L119.05 148.526L119.05 148.526L119.051 148.525L119.051 148.525L119.052 148.524L119.053 148.524L119.053 148.523L119.054 148.522L119.054 148.522L119.055 148.521L119.055 148.521L119.056 148.52L119.057 148.52L119.057 148.519L119.058 148.519L119.058 148.518L119.059 148.517L119.059 148.517L119.06 148.516L119.06 148.516L119.061 148.515L119.062 148.515L119.062 148.514L119.063 148.513L119.063 148.513L119.064 148.512L119.064 148.512L119.065 148.511L119.065 148.511L119.066 148.51L119.067 148.51L119.067 148.509L119.068 148.508L119.068 148.508L119.069 148.507L119.069 148.507L119.07 148.506L119.071 148.506L119.071 148.505L119.072 148.504L119.072 148.504L119.073 148.503L119.073 148.503L119.074 148.502L119.074 148.502L119.075 148.501L119.076 148.501L119.076 148.5L119.077 148.499L119.077 148.499L119.078 148.498L119.078 148.498L119.079 148.497L119.08 148.497L119.08 148.496L119.081 148.496L119.081 148.495L119.082 148.494L119.082 148.494L119.083 148.493L119.083 148.493L119.084 148.492L119.085 148.492L119.085 148.491L119.086 148.49L119.086 148.49L119.087 148.489L119.087 148.489L119.088 148.488L119.088 148.488L119.089 148.487L119.09 148.487L119.09 148.486L119.091 148.485L119.091 148.485L119.092 148.484L119.092 148.484L119.093 148.483L119.094 148.483L119.094 148.482L119.095 148.481L119.095 148.481L119.096 148.48L119.096 148.48L119.097 148.479L119.097 148.479L119.098 148.478L119.099 148.478L119.099 148.477L119.1 148.476L119.1 148.476L119.101 148.475L119.101 148.475L119.102 148.474L119.103 148.474L119.103 148.473L119.104 148.472L119.104 148.472L119.105 148.471L119.105 148.471L119.106 148.47L119.106 148.47L119.107 148.469L119.108 148.469L119.108 148.468L119.109 148.467L119.109 148.467L119.11 148.466L119.11 148.466L119.111 148.465L119.111 148.465L119.112 148.464L119.113 148.464L119.113 148.463L119.114 148.462L119.114 148.462L119.115 148.461L119.115 148.461L119.116 148.46L119.117 148.46L119.117 148.459L119.118 148.458L119.118 148.458L119.119 148.457L119.119 148.457L119.12 148.456L119.12 148.456L119.121 148.455L119.122 148.455L119.122 148.454L119.123 148.453L119.123 148.453L119.124 148.452L119.124 148.452L119.125 148.451L119.126 148.451L119.126 148.45L119.127 148.449L119.127 148.449L119.128 148.448L119.128 148.448L119.129 148.447L119.129 148.447L119.13 148.446L119.131 148.446L119.131 148.445L119.132 148.444L119.132 148.444L119.133 148.443L119.133 148.443L119.134 148.442L119.135 148.442L119.135 148.441L119.136 148.441L119.136 148.44L119.137 148.439L119.137 148.439L119.138 148.438L119.138 148.438L119.139 148.437L119.14 148.437L119.14 148.436L119.141 148.435L119.141 148.435L119.142 148.434L119.142 148.434L119.143 148.433L119.143 148.433L119.144 148.432L119.145 148.432L119.145 148.431L119.146 148.43L119.146 148.43L119.147 148.429L119.147 148.429L119.148 148.428L119.149 148.428L119.149 148.427L119.15 148.426L119.15 148.426L119.151 148.425L119.151 148.425L119.152 148.424L119.152 148.424L119.153 148.423L119.154 148.423L119.154 148.422L119.155 148.421L119.155 148.421L119.156 148.42L119.156 148.42L119.157 148.419L119.158 148.419L119.158 148.418L119.159 148.417L119.159 148.417L119.16 148.416L119.16 148.416L119.161 148.415L119.161 148.415L119.162 148.414L119.163 148.414L119.163 148.413L119.164 148.412L119.164 148.412L119.165 148.411L119.165 148.411L119.166 148.41L119.167 148.41L119.167 148.409L119.168 148.409L119.168 148.408L119.169 148.407L119.169 148.407L119.17 148.406L119.17 148.406L119.171 148.405L119.172 148.405L119.172 148.404L119.173 148.403L119.173 148.403L119.174 148.402L119.174 148.402L119.175 148.401L119.175 148.401L119.176 148.4L119.177 148.4L119.177 148.399L119.178 148.398L119.178 148.398L119.179 148.397L119.179 148.397L119.18 148.396L119.181 148.396L119.181 148.395L119.182 148.394L119.182 148.394L119.183 148.393L119.183 148.393L119.184 148.392L119.184 148.392L119.185 148.391L119.186 148.391L119.186 148.39L119.187 148.389L119.187 148.389L119.188 148.388L119.188 148.388L119.189 148.387L119.19 148.387L119.19 148.386L119.191 148.386L119.191 148.385L119.192 148.384L119.192 148.384L119.193 148.383L119.193 148.383L119.194 148.382L119.195 148.382L119.195 148.381L119.196 148.38L119.196 148.38L119.197 148.379L119.197 148.379L119.198 148.378L119.198 148.378L119.199 148.377L119.2 148.377L119.2 148.376L119.201 148.375L119.201 148.375L119.202 148.374L119.202 148.374L119.203 148.373L119.204 148.373L119.204 148.372L119.205 148.371L119.205 148.371L119.206 148.37L119.206 148.37L119.207 148.369L119.207 148.369L119.208 148.368L119.209 148.368L119.209 148.367L119.21 148.366L119.21 148.366L119.211 148.365L119.211 148.365L119.212 148.364L119.213 148.364L119.213 148.363L119.214 148.362L119.214 148.362L119.215 148.361L119.215 148.361L119.216 148.36L119.216 148.36L119.217 148.359L119.218 148.359L119.218 148.358L119.219 148.357L119.219 148.357L119.22 148.356L119.22 148.356L119.221 148.355L119.221 148.355L119.222 148.354L119.223 148.354L119.223 148.353L119.224 148.352L119.224 148.352L119.225 148.351L119.225 148.351L119.226 148.35L119.227 148.35L119.227 148.349L119.228 148.348L119.228 148.348L119.229 148.347L119.229 148.347L119.23 148.346L119.23 148.346L119.231 148.345L119.232 148.345L119.232 148.344L119.233 148.343L119.233 148.343L119.234 148.342L119.234 148.342L119.235 148.341L119.236 148.341L119.236 148.34L119.237 148.339L119.237 148.339L119.238 148.338L119.238 148.338L119.239 148.337L119.239 148.337L119.24 148.336L119.241 148.336L119.241 148.335L119.242 148.334L119.242 148.334L119.243 148.333L119.243 148.333L119.244 148.332L119.245 148.332L119.245 148.331L119.246 148.331L119.246 148.33L119.247 148.329L119.247 148.329L119.248 148.328L119.248 148.328L119.249 148.327L119.25 148.327L119.25 148.326L119.251 148.325L119.251 148.325L119.252 148.324L119.252 148.324L119.253 148.323L119.253 148.323L119.254 148.322L119.255 148.322L119.255 148.321L119.256 148.32L119.256 148.32L119.257 148.319L119.257 148.319L119.258 148.318L119.259 148.318L119.259 148.317L119.26 148.316L119.26 148.316L119.261 148.315L119.261 148.315L119.262 148.314L119.262 148.314L119.263 148.313L119.264 148.313L119.264 148.312L119.265 148.311L119.265 148.311L119.266 148.31L119.266 148.31L119.267 148.309L119.268 148.309L119.268 148.308L119.269 148.308L119.269 148.307L119.27 148.306L119.27 148.306L119.271 148.305L119.271 148.305L119.272 148.304L119.273 148.304L119.273 148.303L119.274 148.302L119.274 148.302L119.275 148.301L119.275 148.301L119.276 148.3L119.276 148.3L119.277 148.299L119.278 148.299L119.278 148.298L119.279 148.297L119.279 148.297L119.28 148.296L119.28 148.296L119.281 148.295L119.282 148.295L119.282 148.294L119.283 148.293L119.283 148.293L119.284 148.292L119.284 148.292L119.285 148.291L119.285 148.291L119.286 148.29L119.287 148.29L119.287 148.289L119.288 148.288L119.288 148.288L119.289 148.287L119.289 148.287L119.29 148.286L119.291 148.286L119.291 148.285L119.292 148.284L119.292 148.284L119.293 148.283L119.293 148.283L119.294 148.282L119.294 148.282L119.295 148.281L119.296 148.281L119.296 148.28L119.297 148.279L119.297 148.279L119.298 148.278L119.298 148.278L119.299 148.277L119.3 148.277L119.3 148.276L119.301 148.276L119.301 148.275L119.302 148.274L119.302 148.274L119.303 148.273L119.303 148.273L119.304 148.272L119.305 148.272L119.305 148.271L119.306 148.27L119.306 148.27L119.307 148.269L119.307 148.269L119.308 148.268L119.308 148.268L119.309 148.267L119.31 148.267L119.31 148.266L119.311 148.265L119.311 148.265L119.312 148.264L119.312 148.264L119.313 148.263L119.314 148.263L119.314 148.262L119.315 148.261L119.315 148.261L119.321 148.255L119.327 148.249C123.44 143.842 125.783 137.877 125.783 131.434C125.783 117.844 114.928 106.989 101.339 106.989Z" stroke="white"/>
<path d="M101.339 98.4115H101.546L101.641 98.3163C119.755 98.4278 134.457 113.198 134.457 131.338C134.457 136.99 132.855 142.367 130.304 146.996L130.081 147.402L130.469 147.655C130.992 147.998 131.479 148.393 131.921 148.836L131.921 148.836L141.499 158.413L141.509 158.424L141.52 158.434C142.465 159.273 143.227 160.296 143.762 161.44C144.296 162.585 144.591 163.827 144.628 165.089C144.665 166.352 144.444 167.609 143.978 168.783C143.512 169.957 142.81 171.023 141.917 171.917C141.024 172.81 139.958 173.511 138.784 173.977C137.61 174.443 136.353 174.665 135.09 174.627C133.827 174.59 132.586 174.295 131.441 173.761C130.297 173.227 129.273 172.464 128.434 171.52L128.424 171.509L128.414 171.498L118.836 161.92L118.82 161.904L118.802 161.889C118.374 161.533 117.979 161.138 117.622 160.709L117.358 160.392L116.996 160.591C112.384 163.133 106.913 164.456 101.339 164.456C83.1296 164.456 68.3164 149.643 68.3164 131.434C68.3164 113.225 83.1296 98.4115 101.339 98.4115ZM101.339 106.989H101.131L101.035 107.086C87.543 107.196 76.7984 118.01 76.7984 131.529C76.7984 145.119 87.6536 155.974 101.243 155.974C107.586 155.974 113.454 153.729 117.766 149.81L117.791 149.786L117.814 149.759C118.17 149.331 118.565 148.936 118.994 148.579L119.012 148.565L119.028 148.548L119.028 148.548L119.029 148.547L119.03 148.547L119.03 148.546L119.031 148.545L119.031 148.545L119.032 148.544L119.032 148.544L119.033 148.543L119.033 148.543L119.034 148.542L119.035 148.542L119.035 148.541L119.036 148.54L119.036 148.54L119.037 148.539L119.037 148.539L119.038 148.538L119.039 148.538L119.039 148.537L119.04 148.536L119.04 148.536L119.041 148.535L119.041 148.535L119.042 148.534L119.042 148.534L119.043 148.533L119.044 148.533L119.044 148.532L119.045 148.531L119.045 148.531L119.046 148.53L119.046 148.53L119.047 148.529L119.048 148.529L119.048 148.528L119.049 148.527L119.049 148.527L119.05 148.526L119.05 148.526L119.051 148.525L119.051 148.525L119.052 148.524L119.053 148.524L119.053 148.523L119.054 148.522L119.054 148.522L119.055 148.521L119.055 148.521L119.056 148.52L119.057 148.52L119.057 148.519L119.058 148.519L119.058 148.518L119.059 148.517L119.059 148.517L119.06 148.516L119.06 148.516L119.061 148.515L119.062 148.515L119.062 148.514L119.063 148.513L119.063 148.513L119.064 148.512L119.064 148.512L119.065 148.511L119.065 148.511L119.066 148.51L119.067 148.51L119.067 148.509L119.068 148.508L119.068 148.508L119.069 148.507L119.069 148.507L119.07 148.506L119.071 148.506L119.071 148.505L119.072 148.504L119.072 148.504L119.073 148.503L119.073 148.503L119.074 148.502L119.074 148.502L119.075 148.501L119.076 148.501L119.076 148.5L119.077 148.499L119.077 148.499L119.078 148.498L119.078 148.498L119.079 148.497L119.08 148.497L119.08 148.496L119.081 148.496L119.081 148.495L119.082 148.494L119.082 148.494L119.083 148.493L119.083 148.493L119.084 148.492L119.085 148.492L119.085 148.491L119.086 148.49L119.086 148.49L119.087 148.489L119.087 148.489L119.088 148.488L119.088 148.488L119.089 148.487L119.09 148.487L119.09 148.486L119.091 148.485L119.091 148.485L119.092 148.484L119.092 148.484L119.093 148.483L119.094 148.483L119.094 148.482L119.095 148.481L119.095 148.481L119.096 148.48L119.096 148.48L119.097 148.479L119.097 148.479L119.098 148.478L119.099 148.478L119.099 148.477L119.1 148.476L119.1 148.476L119.101 148.475L119.101 148.475L119.102 148.474L119.103 148.474L119.103 148.473L119.104 148.472L119.104 148.472L119.105 148.471L119.105 148.471L119.106 148.47L119.106 148.47L119.107 148.469L119.108 148.469L119.108 148.468L119.109 148.467L119.109 148.467L119.11 148.466L119.11 148.466L119.111 148.465L119.111 148.465L119.112 148.464L119.113 148.464L119.113 148.463L119.114 148.462L119.114 148.462L119.115 148.461L119.115 148.461L119.116 148.46L119.117 148.46L119.117 148.459L119.118 148.458L119.118 148.458L119.119 148.457L119.119 148.457L119.12 148.456L119.12 148.456L119.121 148.455L119.122 148.455L119.122 148.454L119.123 148.453L119.123 148.453L119.124 148.452L119.124 148.452L119.125 148.451L119.126 148.451L119.126 148.45L119.127 148.449L119.127 148.449L119.128 148.448L119.128 148.448L119.129 148.447L119.129 148.447L119.13 148.446L119.131 148.446L119.131 148.445L119.132 148.444L119.132 148.444L119.133 148.443L119.133 148.443L119.134 148.442L119.135 148.442L119.135 148.441L119.136 148.441L119.136 148.44L119.137 148.439L119.137 148.439L119.138 148.438L119.138 148.438L119.139 148.437L119.14 148.437L119.14 148.436L119.141 148.435L119.141 148.435L119.142 148.434L119.142 148.434L119.143 148.433L119.143 148.433L119.144 148.432L119.145 148.432L119.145 148.431L119.146 148.43L119.146 148.43L119.147 148.429L119.147 148.429L119.148 148.428L119.149 148.428L119.149 148.427L119.15 148.426L119.15 148.426L119.151 148.425L119.151 148.425L119.152 148.424L119.152 148.424L119.153 148.423L119.154 148.423L119.154 148.422L119.155 148.421L119.155 148.421L119.156 148.42L119.156 148.42L119.157 148.419L119.158 148.419L119.158 148.418L119.159 148.417L119.159 148.417L119.16 148.416L119.16 148.416L119.161 148.415L119.161 148.415L119.162 148.414L119.163 148.414L119.163 148.413L119.164 148.412L119.164 148.412L119.165 148.411L119.165 148.411L119.166 148.41L119.167 148.41L119.167 148.409L119.168 148.409L119.168 148.408L119.169 148.407L119.169 148.407L119.17 148.406L119.17 148.406L119.171 148.405L119.172 148.405L119.172 148.404L119.173 148.403L119.173 148.403L119.174 148.402L119.174 148.402L119.175 148.401L119.175 148.401L119.176 148.4L119.177 148.4L119.177 148.399L119.178 148.398L119.178 148.398L119.179 148.397L119.179 148.397L119.18 148.396L119.181 148.396L119.181 148.395L119.182 148.394L119.182 148.394L119.183 148.393L119.183 148.393L119.184 148.392L119.184 148.392L119.185 148.391L119.186 148.391L119.186 148.39L119.187 148.389L119.187 148.389L119.188 148.388L119.188 148.388L119.189 148.387L119.19 148.387L119.19 148.386L119.191 148.386L119.191 148.385L119.192 148.384L119.192 148.384L119.193 148.383L119.193 148.383L119.194 148.382L119.195 148.382L119.195 148.381L119.196 148.38L119.196 148.38L119.197 148.379L119.197 148.379L119.198 148.378L119.198 148.378L119.199 148.377L119.2 148.377L119.2 148.376L119.201 148.375L119.201 148.375L119.202 148.374L119.202 148.374L119.203 148.373L119.204 148.373L119.204 148.372L119.205 148.371L119.205 148.371L119.206 148.37L119.206 148.37L119.207 148.369L119.207 148.369L119.208 148.368L119.209 148.368L119.209 148.367L119.21 148.366L119.21 148.366L119.211 148.365L119.211 148.365L119.212 148.364L119.213 148.364L119.213 148.363L119.214 148.362L119.214 148.362L119.215 148.361L119.215 148.361L119.216 148.36L119.216 148.36L119.217 148.359L119.218 148.359L119.218 148.358L119.219 148.357L119.219 148.357L119.22 148.356L119.22 148.356L119.221 148.355L119.221 148.355L119.222 148.354L119.223 148.354L119.223 148.353L119.224 148.352L119.224 148.352L119.225 148.351L119.225 148.351L119.226 148.35L119.227 148.35L119.227 148.349L119.228 148.348L119.228 148.348L119.229 148.347L119.229 148.347L119.23 148.346L119.23 148.346L119.231 148.345L119.232 148.345L119.232 148.344L119.233 148.343L119.233 148.343L119.234 148.342L119.234 148.342L119.235 148.341L119.236 148.341L119.236 148.34L119.237 148.339L119.237 148.339L119.238 148.338L119.238 148.338L119.239 148.337L119.239 148.337L119.24 148.336L119.241 148.336L119.241 148.335L119.242 148.334L119.242 148.334L119.243 148.333L119.243 148.333L119.244 148.332L119.245 148.332L119.245 148.331L119.246 148.331L119.246 148.33L119.247 148.329L119.247 148.329L119.248 148.328L119.248 148.328L119.249 148.327L119.25 148.327L119.25 148.326L119.251 148.325L119.251 148.325L119.252 148.324L119.252 148.324L119.253 148.323L119.253 148.323L119.254 148.322L119.255 148.322L119.255 148.321L119.256 148.32L119.256 148.32L119.257 148.319L119.257 148.319L119.258 148.318L119.259 148.318L119.259 148.317L119.26 148.316L119.26 148.316L119.261 148.315L119.261 148.315L119.262 148.314L119.262 148.314L119.263 148.313L119.264 148.313L119.264 148.312L119.265 148.311L119.265 148.311L119.266 148.31L119.266 148.31L119.267 148.309L119.268 148.309L119.268 148.308L119.269 148.308L119.269 148.307L119.27 148.306L119.27 148.306L119.271 148.305L119.271 148.305L119.272 148.304L119.273 148.304L119.273 148.303L119.274 148.302L119.274 148.302L119.275 148.301L119.275 148.301L119.276 148.3L119.276 148.3L119.277 148.299L119.278 148.299L119.278 148.298L119.279 148.297L119.279 148.297L119.28 148.296L119.28 148.296L119.281 148.295L119.282 148.295L119.282 148.294L119.283 148.293L119.283 148.293L119.284 148.292L119.284 148.292L119.285 148.291L119.285 148.291L119.286 148.29L119.287 148.29L119.287 148.289L119.288 148.288L119.288 148.288L119.289 148.287L119.289 148.287L119.29 148.286L119.291 148.286L119.291 148.285L119.292 148.284L119.292 148.284L119.293 148.283L119.293 148.283L119.294 148.282L119.294 148.282L119.295 148.281L119.296 148.281L119.296 148.28L119.297 148.279L119.297 148.279L119.298 148.278L119.298 148.278L119.299 148.277L119.3 148.277L119.3 148.276L119.301 148.276L119.301 148.275L119.302 148.274L119.302 148.274L119.303 148.273L119.303 148.273L119.304 148.272L119.305 148.272L119.305 148.271L119.306 148.27L119.306 148.27L119.307 148.269L119.307 148.269L119.308 148.268L119.308 148.268L119.309 148.267L119.31 148.267L119.31 148.266L119.311 148.265L119.311 148.265L119.312 148.264L119.312 148.264L119.313 148.263L119.314 148.263L119.314 148.262L119.315 148.261L119.315 148.261L119.321 148.255L119.327 148.249C123.44 143.842 125.783 137.877 125.783 131.434C125.783 117.844 114.928 106.989 101.339 106.989Z" stroke="white"/>
<circle cx="107.5" cy="123.5" r="56.5" fill="#B81F1F"/>
<rect x="104.526" y="120.526" width="59.4737" height="59.4737" fill="#B81F1F"/>
<path d="M105.339 88.4115H105.546L105.641 88.3163C123.755 88.4278 138.457 103.198 138.457 121.338C138.457 126.99 136.855 132.367 134.304 136.996L134.081 137.402L134.469 137.655C134.992 137.998 135.479 138.393 135.921 138.836L135.921 138.836L145.499 148.413L145.509 148.424L145.52 148.434C146.465 149.273 147.227 150.296 147.762 151.44C148.296 152.585 148.591 153.827 148.628 155.089C148.665 156.352 148.444 157.609 147.978 158.783C147.512 159.957 146.81 161.023 145.917 161.917C145.024 162.81 143.958 163.511 142.784 163.977C141.61 164.443 140.353 164.665 139.09 164.627C137.827 164.59 136.586 164.295 135.441 163.761C134.297 163.227 133.273 162.464 132.434 161.52L132.424 161.509L132.414 161.498L122.836 151.92L122.82 151.904L122.802 151.889C122.374 151.533 121.979 151.138 121.622 150.709L121.358 150.392L120.996 150.591C116.384 153.133 110.913 154.456 105.339 154.456C87.1296 154.456 72.3164 139.643 72.3164 121.434C72.3164 103.225 87.1296 88.4115 105.339 88.4115ZM105.339 96.9892H105.131L105.035 97.0858C91.543 97.1959 80.7984 108.01 80.7984 121.529C80.7984 135.119 91.6536 145.974 105.243 145.974C111.586 145.974 117.454 143.729 121.766 139.81L121.791 139.786L121.814 139.759C122.17 139.331 122.565 138.936 122.994 138.579L123.012 138.565L123.028 138.548L123.028 138.548L123.029 138.547L123.03 138.547L123.03 138.546L123.031 138.545L123.031 138.545L123.032 138.544L123.032 138.544L123.033 138.543L123.033 138.543L123.034 138.542L123.035 138.542L123.035 138.541L123.036 138.54L123.036 138.54L123.037 138.539L123.037 138.539L123.038 138.538L123.039 138.538L123.039 138.537L123.04 138.536L123.04 138.536L123.041 138.535L123.041 138.535L123.042 138.534L123.042 138.534L123.043 138.533L123.044 138.533L123.044 138.532L123.045 138.531L123.045 138.531L123.046 138.53L123.046 138.53L123.047 138.529L123.048 138.529L123.048 138.528L123.049 138.527L123.049 138.527L123.05 138.526L123.05 138.526L123.051 138.525L123.051 138.525L123.052 138.524L123.053 138.524L123.053 138.523L123.054 138.522L123.054 138.522L123.055 138.521L123.055 138.521L123.056 138.52L123.057 138.52L123.057 138.519L123.058 138.519L123.058 138.518L123.059 138.517L123.059 138.517L123.06 138.516L123.06 138.516L123.061 138.515L123.062 138.515L123.062 138.514L123.063 138.513L123.063 138.513L123.064 138.512L123.064 138.512L123.065 138.511L123.065 138.511L123.066 138.51L123.067 138.51L123.067 138.509L123.068 138.508L123.068 138.508L123.069 138.507L123.069 138.507L123.07 138.506L123.071 138.506L123.071 138.505L123.072 138.504L123.072 138.504L123.073 138.503L123.073 138.503L123.074 138.502L123.074 138.502L123.075 138.501L123.076 138.501L123.076 138.5L123.077 138.499L123.077 138.499L123.078 138.498L123.078 138.498L123.079 138.497L123.08 138.497L123.08 138.496L123.081 138.496L123.081 138.495L123.082 138.494L123.082 138.494L123.083 138.493L123.083 138.493L123.084 138.492L123.085 138.492L123.085 138.491L123.086 138.49L123.086 138.49L123.087 138.489L123.087 138.489L123.088 138.488L123.088 138.488L123.089 138.487L123.09 138.487L123.09 138.486L123.091 138.485L123.091 138.485L123.092 138.484L123.092 138.484L123.093 138.483L123.094 138.483L123.094 138.482L123.095 138.481L123.095 138.481L123.096 138.48L123.096 138.48L123.097 138.479L123.097 138.479L123.098 138.478L123.099 138.478L123.099 138.477L123.1 138.476L123.1 138.476L123.101 138.475L123.101 138.475L123.102 138.474L123.103 138.474L123.103 138.473L123.104 138.472L123.104 138.472L123.105 138.471L123.105 138.471L123.106 138.47L123.106 138.47L123.107 138.469L123.108 138.469L123.108 138.468L123.109 138.467L123.109 138.467L123.11 138.466L123.11 138.466L123.111 138.465L123.111 138.465L123.112 138.464L123.113 138.464L123.113 138.463L123.114 138.462L123.114 138.462L123.115 138.461L123.115 138.461L123.116 138.46L123.117 138.46L123.117 138.459L123.118 138.458L123.118 138.458L123.119 138.457L123.119 138.457L123.12 138.456L123.12 138.456L123.121 138.455L123.122 138.455L123.122 138.454L123.123 138.453L123.123 138.453L123.124 138.452L123.124 138.452L123.125 138.451L123.126 138.451L123.126 138.45L123.127 138.449L123.127 138.449L123.128 138.448L123.128 138.448L123.129 138.447L123.129 138.447L123.13 138.446L123.131 138.446L123.131 138.445L123.132 138.444L123.132 138.444L123.133 138.443L123.133 138.443L123.134 138.442L123.135 138.442L123.135 138.441L123.136 138.441L123.136 138.44L123.137 138.439L123.137 138.439L123.138 138.438L123.138 138.438L123.139 138.437L123.14 138.437L123.14 138.436L123.141 138.435L123.141 138.435L123.142 138.434L123.142 138.434L123.143 138.433L123.143 138.433L123.144 138.432L123.145 138.432L123.145 138.431L123.146 138.43L123.146 138.43L123.147 138.429L123.147 138.429L123.148 138.428L123.149 138.428L123.149 138.427L123.15 138.426L123.15 138.426L123.151 138.425L123.151 138.425L123.152 138.424L123.152 138.424L123.153 138.423L123.154 138.423L123.154 138.422L123.155 138.421L123.155 138.421L123.156 138.42L123.156 138.42L123.157 138.419L123.158 138.419L123.158 138.418L123.159 138.417L123.159 138.417L123.16 138.416L123.16 138.416L123.161 138.415L123.161 138.415L123.162 138.414L123.163 138.414L123.163 138.413L123.164 138.412L123.164 138.412L123.165 138.411L123.165 138.411L123.166 138.41L123.167 138.41L123.167 138.409L123.168 138.409L123.168 138.408L123.169 138.407L123.169 138.407L123.17 138.406L123.17 138.406L123.171 138.405L123.172 138.405L123.172 138.404L123.173 138.403L123.173 138.403L123.174 138.402L123.174 138.402L123.175 138.401L123.175 138.401L123.176 138.4L123.177 138.4L123.177 138.399L123.178 138.398L123.178 138.398L123.179 138.397L123.179 138.397L123.18 138.396L123.181 138.396L123.181 138.395L123.182 138.394L123.182 138.394L123.183 138.393L123.183 138.393L123.184 138.392L123.184 138.392L123.185 138.391L123.186 138.391L123.186 138.39L123.187 138.389L123.187 138.389L123.188 138.388L123.188 138.388L123.189 138.387L123.19 138.387L123.19 138.386L123.191 138.386L123.191 138.385L123.192 138.384L123.192 138.384L123.193 138.383L123.193 138.383L123.194 138.382L123.195 138.382L123.195 138.381L123.196 138.38L123.196 138.38L123.197 138.379L123.197 138.379L123.198 138.378L123.198 138.378L123.199 138.377L123.2 138.377L123.2 138.376L123.201 138.375L123.201 138.375L123.202 138.374L123.202 138.374L123.203 138.373L123.204 138.373L123.204 138.372L123.205 138.371L123.205 138.371L123.206 138.37L123.206 138.37L123.207 138.369L123.207 138.369L123.208 138.368L123.209 138.368L123.209 138.367L123.21 138.366L123.21 138.366L123.211 138.365L123.211 138.365L123.212 138.364L123.213 138.364L123.213 138.363L123.214 138.362L123.214 138.362L123.215 138.361L123.215 138.361L123.216 138.36L123.216 138.36L123.217 138.359L123.218 138.359L123.218 138.358L123.219 138.357L123.219 138.357L123.22 138.356L123.22 138.356L123.221 138.355L123.221 138.355L123.222 138.354L123.223 138.354L123.223 138.353L123.224 138.352L123.224 138.352L123.225 138.351L123.225 138.351L123.226 138.35L123.227 138.35L123.227 138.349L123.228 138.348L123.228 138.348L123.229 138.347L123.229 138.347L123.23 138.346L123.23 138.346L123.231 138.345L123.232 138.345L123.232 138.344L123.233 138.343L123.233 138.343L123.234 138.342L123.234 138.342L123.235 138.341L123.236 138.341L123.236 138.34L123.237 138.339L123.237 138.339L123.238 138.338L123.238 138.338L123.239 138.337L123.239 138.337L123.24 138.336L123.241 138.336L123.241 138.335L123.242 138.334L123.242 138.334L123.243 138.333L123.243 138.333L123.244 138.332L123.245 138.332L123.245 138.331L123.246 138.331L123.246 138.33L123.247 138.329L123.247 138.329L123.248 138.328L123.248 138.328L123.249 138.327L123.25 138.327L123.25 138.326L123.251 138.325L123.251 138.325L123.252 138.324L123.252 138.324L123.253 138.323L123.253 138.323L123.254 138.322L123.255 138.322L123.255 138.321L123.256 138.32L123.256 138.32L123.257 138.319L123.257 138.319L123.258 138.318L123.259 138.318L123.259 138.317L123.26 138.316L123.26 138.316L123.261 138.315L123.261 138.315L123.262 138.314L123.262 138.314L123.263 138.313L123.264 138.313L123.264 138.312L123.265 138.311L123.265 138.311L123.266 138.31L123.266 138.31L123.267 138.309L123.268 138.309L123.268 138.308L123.269 138.308L123.269 138.307L123.27 138.306L123.27 138.306L123.271 138.305L123.271 138.305L123.272 138.304L123.273 138.304L123.273 138.303L123.274 138.302L123.274 138.302L123.275 138.301L123.275 138.301L123.276 138.3L123.276 138.3L123.277 138.299L123.278 138.299L123.278 138.298L123.279 138.297L123.279 138.297L123.28 138.296L123.28 138.296L123.281 138.295L123.282 138.295L123.282 138.294L123.283 138.293L123.283 138.293L123.284 138.292L123.284 138.292L123.285 138.291L123.285 138.291L123.286 138.29L123.287 138.29L123.287 138.289L123.288 138.288L123.288 138.288L123.289 138.287L123.289 138.287L123.29 138.286L123.291 138.286L123.291 138.285L123.292 138.284L123.292 138.284L123.293 138.283L123.293 138.283L123.294 138.282L123.294 138.282L123.295 138.281L123.296 138.281L123.296 138.28L123.297 138.279L123.297 138.279L123.298 138.278L123.298 138.278L123.299 138.277L123.3 138.277L123.3 138.276L123.301 138.276L123.301 138.275L123.302 138.274L123.302 138.274L123.303 138.273L123.303 138.273L123.304 138.272L123.305 138.272L123.305 138.271L123.306 138.27L123.306 138.27L123.307 138.269L123.307 138.269L123.308 138.268L123.308 138.268L123.309 138.267L123.31 138.267L123.31 138.266L123.311 138.265L123.311 138.265L123.312 138.264L123.312 138.264L123.313 138.263L123.314 138.263L123.314 138.262L123.315 138.261L123.315 138.261L123.321 138.255L123.327 138.249C127.44 133.842 129.783 127.877 129.783 121.434C129.783 107.844 118.928 96.9892 105.339 96.9892Z" fill="white"/>
<path d="M105.339 88.4115H105.546L105.641 88.3163C123.755 88.4278 138.457 103.198 138.457 121.338C138.457 126.99 136.855 132.367 134.304 136.996L134.081 137.402L134.469 137.655C134.992 137.998 135.479 138.393 135.921 138.836L135.921 138.836L145.499 148.413L145.509 148.424L145.52 148.434C146.465 149.273 147.227 150.296 147.762 151.44C148.296 152.585 148.591 153.827 148.628 155.089C148.665 156.352 148.444 157.609 147.978 158.783C147.512 159.957 146.81 161.023 145.917 161.917C145.024 162.81 143.958 163.511 142.784 163.977C141.61 164.443 140.353 164.665 139.09 164.627C137.827 164.59 136.586 164.295 135.441 163.761C134.297 163.227 133.273 162.464 132.434 161.52L132.424 161.509L132.414 161.498L122.836 151.92L122.82 151.904L122.802 151.889C122.374 151.533 121.979 151.138 121.622 150.709L121.358 150.392L120.996 150.591C116.384 153.133 110.913 154.456 105.339 154.456C87.1296 154.456 72.3164 139.643 72.3164 121.434C72.3164 103.225 87.1296 88.4115 105.339 88.4115ZM105.339 96.9892H105.131L105.035 97.0858C91.543 97.1959 80.7984 108.01 80.7984 121.529C80.7984 135.119 91.6536 145.974 105.243 145.974C111.586 145.974 117.454 143.729 121.766 139.81L121.791 139.786L121.814 139.759C122.17 139.331 122.565 138.936 122.994 138.579L123.012 138.565L123.028 138.548L123.028 138.548L123.029 138.547L123.03 138.547L123.03 138.546L123.031 138.545L123.031 138.545L123.032 138.544L123.032 138.544L123.033 138.543L123.033 138.543L123.034 138.542L123.035 138.542L123.035 138.541L123.036 138.54L123.036 138.54L123.037 138.539L123.037 138.539L123.038 138.538L123.039 138.538L123.039 138.537L123.04 138.536L123.04 138.536L123.041 138.535L123.041 138.535L123.042 138.534L123.042 138.534L123.043 138.533L123.044 138.533L123.044 138.532L123.045 138.531L123.045 138.531L123.046 138.53L123.046 138.53L123.047 138.529L123.048 138.529L123.048 138.528L123.049 138.527L123.049 138.527L123.05 138.526L123.05 138.526L123.051 138.525L123.051 138.525L123.052 138.524L123.053 138.524L123.053 138.523L123.054 138.522L123.054 138.522L123.055 138.521L123.055 138.521L123.056 138.52L123.057 138.52L123.057 138.519L123.058 138.519L123.058 138.518L123.059 138.517L123.059 138.517L123.06 138.516L123.06 138.516L123.061 138.515L123.062 138.515L123.062 138.514L123.063 138.513L123.063 138.513L123.064 138.512L123.064 138.512L123.065 138.511L123.065 138.511L123.066 138.51L123.067 138.51L123.067 138.509L123.068 138.508L123.068 138.508L123.069 138.507L123.069 138.507L123.07 138.506L123.071 138.506L123.071 138.505L123.072 138.504L123.072 138.504L123.073 138.503L123.073 138.503L123.074 138.502L123.074 138.502L123.075 138.501L123.076 138.501L123.076 138.5L123.077 138.499L123.077 138.499L123.078 138.498L123.078 138.498L123.079 138.497L123.08 138.497L123.08 138.496L123.081 138.496L123.081 138.495L123.082 138.494L123.082 138.494L123.083 138.493L123.083 138.493L123.084 138.492L123.085 138.492L123.085 138.491L123.086 138.49L123.086 138.49L123.087 138.489L123.087 138.489L123.088 138.488L123.088 138.488L123.089 138.487L123.09 138.487L123.09 138.486L123.091 138.485L123.091 138.485L123.092 138.484L123.092 138.484L123.093 138.483L123.094 138.483L123.094 138.482L123.095 138.481L123.095 138.481L123.096 138.48L123.096 138.48L123.097 138.479L123.097 138.479L123.098 138.478L123.099 138.478L123.099 138.477L123.1 138.476L123.1 138.476L123.101 138.475L123.101 138.475L123.102 138.474L123.103 138.474L123.103 138.473L123.104 138.472L123.104 138.472L123.105 138.471L123.105 138.471L123.106 138.47L123.106 138.47L123.107 138.469L123.108 138.469L123.108 138.468L123.109 138.467L123.109 138.467L123.11 138.466L123.11 138.466L123.111 138.465L123.111 138.465L123.112 138.464L123.113 138.464L123.113 138.463L123.114 138.462L123.114 138.462L123.115 138.461L123.115 138.461L123.116 138.46L123.117 138.46L123.117 138.459L123.118 138.458L123.118 138.458L123.119 138.457L123.119 138.457L123.12 138.456L123.12 138.456L123.121 138.455L123.122 138.455L123.122 138.454L123.123 138.453L123.123 138.453L123.124 138.452L123.124 138.452L123.125 138.451L123.126 138.451L123.126 138.45L123.127 138.449L123.127 138.449L123.128 138.448L123.128 138.448L123.129 138.447L123.129 138.447L123.13 138.446L123.131 138.446L123.131 138.445L123.132 138.444L123.132 138.444L123.133 138.443L123.133 138.443L123.134 138.442L123.135 138.442L123.135 138.441L123.136 138.441L123.136 138.44L123.137 138.439L123.137 138.439L123.138 138.438L123.138 138.438L123.139 138.437L123.14 138.437L123.14 138.436L123.141 138.435L123.141 138.435L123.142 138.434L123.142 138.434L123.143 138.433L123.143 138.433L123.144 138.432L123.145 138.432L123.145 138.431L123.146 138.43L123.146 138.43L123.147 138.429L123.147 138.429L123.148 138.428L123.149 138.428L123.149 138.427L123.15 138.426L123.15 138.426L123.151 138.425L123.151 138.425L123.152 138.424L123.152 138.424L123.153 138.423L123.154 138.423L123.154 138.422L123.155 138.421L123.155 138.421L123.156 138.42L123.156 138.42L123.157 138.419L123.158 138.419L123.158 138.418L123.159 138.417L123.159 138.417L123.16 138.416L123.16 138.416L123.161 138.415L123.161 138.415L123.162 138.414L123.163 138.414L123.163 138.413L123.164 138.412L123.164 138.412L123.165 138.411L123.165 138.411L123.166 138.41L123.167 138.41L123.167 138.409L123.168 138.409L123.168 138.408L123.169 138.407L123.169 138.407L123.17 138.406L123.17 138.406L123.171 138.405L123.172 138.405L123.172 138.404L123.173 138.403L123.173 138.403L123.174 138.402L123.174 138.402L123.175 138.401L123.175 138.401L123.176 138.4L123.177 138.4L123.177 138.399L123.178 138.398L123.178 138.398L123.179 138.397L123.179 138.397L123.18 138.396L123.181 138.396L123.181 138.395L123.182 138.394L123.182 138.394L123.183 138.393L123.183 138.393L123.184 138.392L123.184 138.392L123.185 138.391L123.186 138.391L123.186 138.39L123.187 138.389L123.187 138.389L123.188 138.388L123.188 138.388L123.189 138.387L123.19 138.387L123.19 138.386L123.191 138.386L123.191 138.385L123.192 138.384L123.192 138.384L123.193 138.383L123.193 138.383L123.194 138.382L123.195 138.382L123.195 138.381L123.196 138.38L123.196 138.38L123.197 138.379L123.197 138.379L123.198 138.378L123.198 138.378L123.199 138.377L123.2 138.377L123.2 138.376L123.201 138.375L123.201 138.375L123.202 138.374L123.202 138.374L123.203 138.373L123.204 138.373L123.204 138.372L123.205 138.371L123.205 138.371L123.206 138.37L123.206 138.37L123.207 138.369L123.207 138.369L123.208 138.368L123.209 138.368L123.209 138.367L123.21 138.366L123.21 138.366L123.211 138.365L123.211 138.365L123.212 138.364L123.213 138.364L123.213 138.363L123.214 138.362L123.214 138.362L123.215 138.361L123.215 138.361L123.216 138.36L123.216 138.36L123.217 138.359L123.218 138.359L123.218 138.358L123.219 138.357L123.219 138.357L123.22 138.356L123.22 138.356L123.221 138.355L123.221 138.355L123.222 138.354L123.223 138.354L123.223 138.353L123.224 138.352L123.224 138.352L123.225 138.351L123.225 138.351L123.226 138.35L123.227 138.35L123.227 138.349L123.228 138.348L123.228 138.348L123.229 138.347L123.229 138.347L123.23 138.346L123.23 138.346L123.231 138.345L123.232 138.345L123.232 138.344L123.233 138.343L123.233 138.343L123.234 138.342L123.234 138.342L123.235 138.341L123.236 138.341L123.236 138.34L123.237 138.339L123.237 138.339L123.238 138.338L123.238 138.338L123.239 138.337L123.239 138.337L123.24 138.336L123.241 138.336L123.241 138.335L123.242 138.334L123.242 138.334L123.243 138.333L123.243 138.333L123.244 138.332L123.245 138.332L123.245 138.331L123.246 138.331L123.246 138.33L123.247 138.329L123.247 138.329L123.248 138.328L123.248 138.328L123.249 138.327L123.25 138.327L123.25 138.326L123.251 138.325L123.251 138.325L123.252 138.324L123.252 138.324L123.253 138.323L123.253 138.323L123.254 138.322L123.255 138.322L123.255 138.321L123.256 138.32L123.256 138.32L123.257 138.319L123.257 138.319L123.258 138.318L123.259 138.318L123.259 138.317L123.26 138.316L123.26 138.316L123.261 138.315L123.261 138.315L123.262 138.314L123.262 138.314L123.263 138.313L123.264 138.313L123.264 138.312L123.265 138.311L123.265 138.311L123.266 138.31L123.266 138.31L123.267 138.309L123.268 138.309L123.268 138.308L123.269 138.308L123.269 138.307L123.27 138.306L123.27 138.306L123.271 138.305L123.271 138.305L123.272 138.304L123.273 138.304L123.273 138.303L123.274 138.302L123.274 138.302L123.275 138.301L123.275 138.301L123.276 138.3L123.276 138.3L123.277 138.299L123.278 138.299L123.278 138.298L123.279 138.297L123.279 138.297L123.28 138.296L123.28 138.296L123.281 138.295L123.282 138.295L123.282 138.294L123.283 138.293L123.283 138.293L123.284 138.292L123.284 138.292L123.285 138.291L123.285 138.291L123.286 138.29L123.287 138.29L123.287 138.289L123.288 138.288L123.288 138.288L123.289 138.287L123.289 138.287L123.29 138.286L123.291 138.286L123.291 138.285L123.292 138.284L123.292 138.284L123.293 138.283L123.293 138.283L123.294 138.282L123.294 138.282L123.295 138.281L123.296 138.281L123.296 138.28L123.297 138.279L123.297 138.279L123.298 138.278L123.298 138.278L123.299 138.277L123.3 138.277L123.3 138.276L123.301 138.276L123.301 138.275L123.302 138.274L123.302 138.274L123.303 138.273L123.303 138.273L123.304 138.272L123.305 138.272L123.305 138.271L123.306 138.27L123.306 138.27L123.307 138.269L123.307 138.269L123.308 138.268L123.308 138.268L123.309 138.267L123.31 138.267L123.31 138.266L123.311 138.265L123.311 138.265L123.312 138.264L123.312 138.264L123.313 138.263L123.314 138.263L123.314 138.262L123.315 138.261L123.315 138.261L123.321 138.255L123.327 138.249C127.44 133.842 129.783 127.877 129.783 121.434C129.783 107.844 118.928 96.9892 105.339 96.9892Z" stroke="white"/>
<path d="M105.339 88.4115H105.546L105.641 88.3163C123.755 88.4278 138.457 103.198 138.457 121.338C138.457 126.99 136.855 132.367 134.304 136.996L134.081 137.402L134.469 137.655C134.992 137.998 135.479 138.393 135.921 138.836L135.921 138.836L145.499 148.413L145.509 148.424L145.52 148.434C146.465 149.273 147.227 150.296 147.762 151.44C148.296 152.585 148.591 153.827 148.628 155.089C148.665 156.352 148.444 157.609 147.978 158.783C147.512 159.957 146.81 161.023 145.917 161.917C145.024 162.81 143.958 163.511 142.784 163.977C141.61 164.443 140.353 164.665 139.09 164.627C137.827 164.59 136.586 164.295 135.441 163.761C134.297 163.227 133.273 162.464 132.434 161.52L132.424 161.509L132.414 161.498L122.836 151.92L122.82 151.904L122.802 151.889C122.374 151.533 121.979 151.138 121.622 150.709L121.358 150.392L120.996 150.591C116.384 153.133 110.913 154.456 105.339 154.456C87.1296 154.456 72.3164 139.643 72.3164 121.434C72.3164 103.225 87.1296 88.4115 105.339 88.4115ZM105.339 96.9892H105.131L105.035 97.0858C91.543 97.1959 80.7984 108.01 80.7984 121.529C80.7984 135.119 91.6536 145.974 105.243 145.974C111.586 145.974 117.454 143.729 121.766 139.81L121.791 139.786L121.814 139.759C122.17 139.331 122.565 138.936 122.994 138.579L123.012 138.565L123.028 138.548L123.028 138.548L123.029 138.547L123.03 138.547L123.03 138.546L123.031 138.545L123.031 138.545L123.032 138.544L123.032 138.544L123.033 138.543L123.033 138.543L123.034 138.542L123.035 138.542L123.035 138.541L123.036 138.54L123.036 138.54L123.037 138.539L123.037 138.539L123.038 138.538L123.039 138.538L123.039 138.537L123.04 138.536L123.04 138.536L123.041 138.535L123.041 138.535L123.042 138.534L123.042 138.534L123.043 138.533L123.044 138.533L123.044 138.532L123.045 138.531L123.045 138.531L123.046 138.53L123.046 138.53L123.047 138.529L123.048 138.529L123.048 138.528L123.049 138.527L123.049 138.527L123.05 138.526L123.05 138.526L123.051 138.525L123.051 138.525L123.052 138.524L123.053 138.524L123.053 138.523L123.054 138.522L123.054 138.522L123.055 138.521L123.055 138.521L123.056 138.52L123.057 138.52L123.057 138.519L123.058 138.519L123.058 138.518L123.059 138.517L123.059 138.517L123.06 138.516L123.06 138.516L123.061 138.515L123.062 138.515L123.062 138.514L123.063 138.513L123.063 138.513L123.064 138.512L123.064 138.512L123.065 138.511L123.065 138.511L123.066 138.51L123.067 138.51L123.067 138.509L123.068 138.508L123.068 138.508L123.069 138.507L123.069 138.507L123.07 138.506L123.071 138.506L123.071 138.505L123.072 138.504L123.072 138.504L123.073 138.503L123.073 138.503L123.074 138.502L123.074 138.502L123.075 138.501L123.076 138.501L123.076 138.5L123.077 138.499L123.077 138.499L123.078 138.498L123.078 138.498L123.079 138.497L123.08 138.497L123.08 138.496L123.081 138.496L123.081 138.495L123.082 138.494L123.082 138.494L123.083 138.493L123.083 138.493L123.084 138.492L123.085 138.492L123.085 138.491L123.086 138.49L123.086 138.49L123.087 138.489L123.087 138.489L123.088 138.488L123.088 138.488L123.089 138.487L123.09 138.487L123.09 138.486L123.091 138.485L123.091 138.485L123.092 138.484L123.092 138.484L123.093 138.483L123.094 138.483L123.094 138.482L123.095 138.481L123.095 138.481L123.096 138.48L123.096 138.48L123.097 138.479L123.097 138.479L123.098 138.478L123.099 138.478L123.099 138.477L123.1 138.476L123.1 138.476L123.101 138.475L123.101 138.475L123.102 138.474L123.103 138.474L123.103 138.473L123.104 138.472L123.104 138.472L123.105 138.471L123.105 138.471L123.106 138.47L123.106 138.47L123.107 138.469L123.108 138.469L123.108 138.468L123.109 138.467L123.109 138.467L123.11 138.466L123.11 138.466L123.111 138.465L123.111 138.465L123.112 138.464L123.113 138.464L123.113 138.463L123.114 138.462L123.114 138.462L123.115 138.461L123.115 138.461L123.116 138.46L123.117 138.46L123.117 138.459L123.118 138.458L123.118 138.458L123.119 138.457L123.119 138.457L123.12 138.456L123.12 138.456L123.121 138.455L123.122 138.455L123.122 138.454L123.123 138.453L123.123 138.453L123.124 138.452L123.124 138.452L123.125 138.451L123.126 138.451L123.126 138.45L123.127 138.449L123.127 138.449L123.128 138.448L123.128 138.448L123.129 138.447L123.129 138.447L123.13 138.446L123.131 138.446L123.131 138.445L123.132 138.444L123.132 138.444L123.133 138.443L123.133 138.443L123.134 138.442L123.135 138.442L123.135 138.441L123.136 138.441L123.136 138.44L123.137 138.439L123.137 138.439L123.138 138.438L123.138 138.438L123.139 138.437L123.14 138.437L123.14 138.436L123.141 138.435L123.141 138.435L123.142 138.434L123.142 138.434L123.143 138.433L123.143 138.433L123.144 138.432L123.145 138.432L123.145 138.431L123.146 138.43L123.146 138.43L123.147 138.429L123.147 138.429L123.148 138.428L123.149 138.428L123.149 138.427L123.15 138.426L123.15 138.426L123.151 138.425L123.151 138.425L123.152 138.424L123.152 138.424L123.153 138.423L123.154 138.423L123.154 138.422L123.155 138.421L123.155 138.421L123.156 138.42L123.156 138.42L123.157 138.419L123.158 138.419L123.158 138.418L123.159 138.417L123.159 138.417L123.16 138.416L123.16 138.416L123.161 138.415L123.161 138.415L123.162 138.414L123.163 138.414L123.163 138.413L123.164 138.412L123.164 138.412L123.165 138.411L123.165 138.411L123.166 138.41L123.167 138.41L123.167 138.409L123.168 138.409L123.168 138.408L123.169 138.407L123.169 138.407L123.17 138.406L123.17 138.406L123.171 138.405L123.172 138.405L123.172 138.404L123.173 138.403L123.173 138.403L123.174 138.402L123.174 138.402L123.175 138.401L123.175 138.401L123.176 138.4L123.177 138.4L123.177 138.399L123.178 138.398L123.178 138.398L123.179 138.397L123.179 138.397L123.18 138.396L123.181 138.396L123.181 138.395L123.182 138.394L123.182 138.394L123.183 138.393L123.183 138.393L123.184 138.392L123.184 138.392L123.185 138.391L123.186 138.391L123.186 138.39L123.187 138.389L123.187 138.389L123.188 138.388L123.188 138.388L123.189 138.387L123.19 138.387L123.19 138.386L123.191 138.386L123.191 138.385L123.192 138.384L123.192 138.384L123.193 138.383L123.193 138.383L123.194 138.382L123.195 138.382L123.195 138.381L123.196 138.38L123.196 138.38L123.197 138.379L123.197 138.379L123.198 138.378L123.198 138.378L123.199 138.377L123.2 138.377L123.2 138.376L123.201 138.375L123.201 138.375L123.202 138.374L123.202 138.374L123.203 138.373L123.204 138.373L123.204 138.372L123.205 138.371L123.205 138.371L123.206 138.37L123.206 138.37L123.207 138.369L123.207 138.369L123.208 138.368L123.209 138.368L123.209 138.367L123.21 138.366L123.21 138.366L123.211 138.365L123.211 138.365L123.212 138.364L123.213 138.364L123.213 138.363L123.214 138.362L123.214 138.362L123.215 138.361L123.215 138.361L123.216 138.36L123.216 138.36L123.217 138.359L123.218 138.359L123.218 138.358L123.219 138.357L123.219 138.357L123.22 138.356L123.22 138.356L123.221 138.355L123.221 138.355L123.222 138.354L123.223 138.354L123.223 138.353L123.224 138.352L123.224 138.352L123.225 138.351L123.225 138.351L123.226 138.35L123.227 138.35L123.227 138.349L123.228 138.348L123.228 138.348L123.229 138.347L123.229 138.347L123.23 138.346L123.23 138.346L123.231 138.345L123.232 138.345L123.232 138.344L123.233 138.343L123.233 138.343L123.234 138.342L123.234 138.342L123.235 138.341L123.236 138.341L123.236 138.34L123.237 138.339L123.237 138.339L123.238 138.338L123.238 138.338L123.239 138.337L123.239 138.337L123.24 138.336L123.241 138.336L123.241 138.335L123.242 138.334L123.242 138.334L123.243 138.333L123.243 138.333L123.244 138.332L123.245 138.332L123.245 138.331L123.246 138.331L123.246 138.33L123.247 138.329L123.247 138.329L123.248 138.328L123.248 138.328L123.249 138.327L123.25 138.327L123.25 138.326L123.251 138.325L123.251 138.325L123.252 138.324L123.252 138.324L123.253 138.323L123.253 138.323L123.254 138.322L123.255 138.322L123.255 138.321L123.256 138.32L123.256 138.32L123.257 138.319L123.257 138.319L123.258 138.318L123.259 138.318L123.259 138.317L123.26 138.316L123.26 138.316L123.261 138.315L123.261 138.315L123.262 138.314L123.262 138.314L123.263 138.313L123.264 138.313L123.264 138.312L123.265 138.311L123.265 138.311L123.266 138.31L123.266 138.31L123.267 138.309L123.268 138.309L123.268 138.308L123.269 138.308L123.269 138.307L123.27 138.306L123.27 138.306L123.271 138.305L123.271 138.305L123.272 138.304L123.273 138.304L123.273 138.303L123.274 138.302L123.274 138.302L123.275 138.301L123.275 138.301L123.276 138.3L123.276 138.3L123.277 138.299L123.278 138.299L123.278 138.298L123.279 138.297L123.279 138.297L123.28 138.296L123.28 138.296L123.281 138.295L123.282 138.295L123.282 138.294L123.283 138.293L123.283 138.293L123.284 138.292L123.284 138.292L123.285 138.291L123.285 138.291L123.286 138.29L123.287 138.29L123.287 138.289L123.288 138.288L123.288 138.288L123.289 138.287L123.289 138.287L123.29 138.286L123.291 138.286L123.291 138.285L123.292 138.284L123.292 138.284L123.293 138.283L123.293 138.283L123.294 138.282L123.294 138.282L123.295 138.281L123.296 138.281L123.296 138.28L123.297 138.279L123.297 138.279L123.298 138.278L123.298 138.278L123.299 138.277L123.3 138.277L123.3 138.276L123.301 138.276L123.301 138.275L123.302 138.274L123.302 138.274L123.303 138.273L123.303 138.273L123.304 138.272L123.305 138.272L123.305 138.271L123.306 138.27L123.306 138.27L123.307 138.269L123.307 138.269L123.308 138.268L123.308 138.268L123.309 138.267L123.31 138.267L123.31 138.266L123.311 138.265L123.311 138.265L123.312 138.264L123.312 138.264L123.313 138.263L123.314 138.263L123.314 138.262L123.315 138.261L123.315 138.261L123.321 138.255L123.327 138.249C127.44 133.842 129.783 127.877 129.783 121.434C129.783 107.844 118.928 96.9892 105.339 96.9892Z" stroke="white"/>
</svg>
