<svg xmlns="http://www.w3.org/2000/svg" xmlns:xlink="http://www.w3.org/1999/xlink" version="1.1" x="0px" y="0px" viewBox="0 0 32 40" enable-background="new 0 0 32 32" xml:space="preserve"><path d="M29,6h-2h-4V3c0-0.5522461-0.4477539-1-1-1H10C9.4477539,2,9,2.4477539,9,3v3H5H3C2.4477539,6,2,6.4477539,2,7  s0.4477539,1,1,1h1.0866089l1.586731,17.4526367C5.9086914,28.0449219,8.0493164,30,10.652832,30H21.347168  c2.6035156,0,4.7441406-1.9550781,4.9794922-4.5473633L27.9133911,8H29c0.5522461,0,1-0.4477539,1-1S29.5522461,6,29,6z M11,4h10v2  H11V4z M24.3344727,25.2719727C24.1933594,26.8271484,22.9091797,28,21.347168,28H10.652832  c-1.5620117,0-2.8461914-1.1728516-2.9873047-2.7280273L6.0952148,8H10h12h3.9047852L24.3344727,25.2719727z M22,11v13  c0,0.5522461-0.4477539,1-1,1s-1-0.4477539-1-1V11c0-0.5522461,0.4477539-1,1-1S22,10.4477539,22,11z M17,11v13  c0,0.5522461-0.4477539,1-1,1s-1-0.4477539-1-1V11c0-0.5522461,0.4477539-1,1-1S17,10.4477539,17,11z M12,11v13  c0,0.5522461-0.4477539,1-1,1s-1-0.4477539-1-1V11c0-0.5522461,0.4477539-1,1-1S12,10.4477539,12,11z"/><text x="0" y="47" fill="#000000" font-size="5px" font-weight="bold" font-family="'Helvetica Neue', Helvetica, Arial-Unicode, Arial, Sans-serif">Created by maria icon</text><text x="0" y="52" fill="#000000" font-size="5px" font-weight="bold" font-family="'Helvetica Neue', Helvetica, Arial-Unicode, Arial, Sans-serif">from the Noun Project</text></svg>