<svg width="262" height="224" viewBox="0 0 262 224" fill="none" xmlns="http://www.w3.org/2000/svg">
<path d="M26.912 41.522C28.397 41.8377 29.5898 42.5783 30.4906 43.7438C31.3913 44.885 31.8417 46.1962 31.8417 47.6775C31.8417 49.8143 31.087 51.514 29.5777 52.7767C28.0927 54.015 26.0113 54.6342 23.3335 54.6342H11.3929V29.0654H22.9318C25.5366 29.0654 27.5693 29.6603 29.03 30.8501C30.515 32.04 31.2574 33.6547 31.2574 35.6944C31.2574 37.1998 30.8557 38.4504 30.0524 39.4459C29.2734 40.4414 28.2266 41.1335 26.912 41.522ZM17.6371 39.4095H21.7268C22.7493 39.4095 23.5282 39.191 24.0638 38.7539C24.6237 38.2925 24.9037 37.6248 24.9037 36.7506C24.9037 35.8765 24.6237 35.2088 24.0638 34.7474C23.5282 34.286 22.7493 34.0554 21.7268 34.0554H17.6371V39.4095ZM22.238 49.6079C23.2849 49.6079 24.0882 49.3772 24.6481 48.9158C25.2323 48.4302 25.5245 47.7382 25.5245 46.8397C25.5245 45.9413 25.2202 45.2371 24.6116 44.7272C24.0273 44.2173 23.2118 43.9623 22.165 43.9623H17.6371V49.6079H22.238ZM55.5834 34.3103V54.6342H49.3392V51.8661C48.7063 52.7645 47.8421 53.493 46.7466 54.0514C45.6755 54.5857 44.4827 54.8528 43.1681 54.8528C41.6101 54.8528 40.2347 54.5128 39.0418 53.8329C37.8489 53.1288 36.9239 52.121 36.2666 50.8098C35.6094 49.4986 35.2807 47.9567 35.2807 46.1841V34.3103H41.4884V45.3464C41.4884 46.7062 41.8414 47.7624 42.5473 48.5152C43.2533 49.268 44.2027 49.6443 45.3956 49.6443C46.6127 49.6443 47.5744 49.268 48.2803 48.5152C48.9862 47.7624 49.3392 46.7062 49.3392 45.3464V34.3103H55.5834ZM68.3576 54.9256C66.5805 54.9256 64.9982 54.6221 63.6106 54.015C62.223 53.4079 61.1275 52.5824 60.3242 51.5383C59.5208 50.4699 59.0705 49.2801 58.9731 47.9688H65.1442C65.2173 48.673 65.5459 49.2436 66.1302 49.6807C66.7144 50.1178 67.4326 50.3363 68.2846 50.3363C69.0636 50.3363 69.66 50.1906 70.0739 49.8993C70.512 49.5836 70.7311 49.1829 70.7311 48.6973C70.7311 48.1145 70.4269 47.6896 69.8182 47.4225C69.2096 47.1311 68.2237 46.8154 66.8605 46.4755C65.3998 46.1356 64.1827 45.7835 63.2089 45.4193C62.2351 45.0307 61.3953 44.4358 60.6893 43.6345C59.9834 42.8089 59.6304 41.7041 59.6304 40.3201C59.6304 39.1545 59.9469 38.0983 60.5798 37.1513C61.2371 36.18 62.1865 35.4151 63.428 34.8566C64.6939 34.2982 66.1911 34.0189 67.9194 34.0189C70.4755 34.0189 72.4839 34.6502 73.9445 35.9129C75.4295 37.1756 76.2815 38.851 76.5006 40.9393H70.7311C70.6337 40.2351 70.3173 39.6766 69.7817 39.2638C69.2705 38.851 68.5889 38.6446 67.7369 38.6446C67.0065 38.6446 66.4467 38.7903 66.0571 39.0817C65.6676 39.3488 65.4729 39.7252 65.4729 40.2108C65.4729 40.7936 65.7771 41.2306 66.3858 41.522C67.0187 41.8134 67.9925 42.1048 69.307 42.3962C70.8163 42.7847 72.0457 43.1732 72.9951 43.5617C73.9445 43.9259 74.7722 44.533 75.4782 45.3828C76.2085 46.2084 76.5858 47.3253 76.6102 48.7337C76.6102 49.9236 76.2694 50.9919 75.5877 51.9389C74.9304 52.8616 73.9689 53.5901 72.703 54.1243C71.4614 54.6585 70.013 54.9256 68.3576 54.9256ZM79.1888 44.4723C79.1888 42.3597 79.6148 40.5143 80.4669 38.936C81.3432 37.3577 82.5482 36.1436 84.0819 35.2937C85.6399 34.4439 87.417 34.0189 89.4132 34.0189C91.9693 34.0189 94.0991 34.6866 95.8034 36.0222C97.5315 37.3577 98.6635 39.2395 99.1994 41.6677H92.5535C91.9939 40.1136 90.9103 39.3367 89.3036 39.3367C88.1595 39.3367 87.2466 39.7858 86.565 40.6843C85.8833 41.5584 85.5425 42.8211 85.5425 44.4723C85.5425 46.1234 85.8833 47.3982 86.565 48.2967C87.2466 49.1708 88.1595 49.6079 89.3036 49.6079C90.9103 49.6079 91.9939 48.8309 92.5535 47.2768H99.1994C98.6635 49.6564 97.5315 51.5262 95.8034 52.8859C94.0753 54.2457 91.9446 54.9256 89.4132 54.9256C87.417 54.9256 85.6399 54.5006 84.0819 53.6508C82.5482 52.801 81.3432 51.5868 80.4669 50.0085C79.6148 48.4302 79.1888 46.5848 79.1888 44.4723ZM101.298 44.4358C101.298 42.3476 101.687 40.5143 102.467 38.936C103.27 37.3577 104.353 36.1436 105.717 35.2937C107.079 34.4439 108.601 34.0189 110.281 34.0189C111.717 34.0189 112.97 34.3103 114.042 34.8931C115.138 35.4758 115.977 36.2407 116.562 37.1877V34.3103H122.806V54.6342H116.562V51.7568C115.953 52.7038 115.101 53.4687 114.006 54.0514C112.934 54.6342 111.68 54.9256 110.244 54.9256C108.588 54.9256 107.079 54.5006 105.717 53.6508C104.353 52.7766 103.27 51.5504 102.467 49.9721C101.687 48.3695 101.298 46.524 101.298 44.4358ZM116.562 44.4723C116.562 42.9182 116.124 41.692 115.247 40.7936C114.394 39.8951 113.348 39.4459 112.107 39.4459C110.865 39.4459 109.806 39.8951 108.93 40.7936C108.077 41.6677 107.652 42.8818 107.652 44.4358C107.652 45.9899 108.077 47.2283 108.93 48.151C109.806 49.0494 110.865 49.4986 112.107 49.4986C113.348 49.4986 114.394 49.0494 115.247 48.151C116.124 47.2525 116.562 46.0263 116.562 44.4723Z" fill="#BB2D0C"/>
<path d="M31.2903 147.326H65.7245V163.902H10.3303V59.6677H31.2903V147.326Z" fill="black"/>
<path d="M191.046 93.2677C193.741 89.2856 197.434 86.0499 202.125 83.5611C206.916 81.0722 212.356 79.8277 218.444 79.8277C225.531 79.8277 231.918 81.5699 237.608 85.0544C243.396 88.5389 247.938 93.5163 251.232 99.9877C254.625 106.359 256.322 113.776 256.322 122.238C256.322 130.7 254.625 138.217 251.232 144.788C247.938 151.259 243.396 156.286 237.608 159.87C231.918 163.454 225.531 165.246 218.444 165.246C212.256 165.246 206.817 164.052 202.125 161.662C197.534 159.174 193.841 155.988 191.046 152.105V163.902H170.086V53.3958H191.046V93.2677ZM234.913 122.238C234.913 117.26 233.865 112.98 231.769 109.396C229.772 105.712 227.077 102.924 223.684 101.033C220.39 99.1418 216.797 98.1957 212.905 98.1957C209.112 98.1957 205.518 99.191 202.125 101.182C198.832 103.074 196.137 105.862 194.041 109.545C192.044 113.228 191.046 117.559 191.046 122.537C191.046 127.515 192.044 131.846 194.041 135.529C196.137 139.212 198.832 142.05 202.125 144.041C205.518 145.932 209.112 146.878 212.905 146.878C216.797 146.878 220.39 145.883 223.684 143.892C227.077 141.9 229.772 139.063 231.769 135.38C233.865 131.696 234.913 127.316 234.913 122.238Z" fill="black"/>
<path d="M110.46 163.902C139.702 163.902 163.408 140.257 163.408 111.089C163.408 81.9216 139.702 58.2764 110.46 58.2764C81.2177 58.2764 57.5122 81.9216 57.5122 111.089C57.5122 140.257 81.2177 163.902 110.46 163.902Z" fill="#EF2E00"/>
<path d="M163.407 108.31H107.673V163.902H163.407V108.31Z" fill="#EF2E00"/>
<path d="M108.433 78.2787H108.622L108.712 78.1897C125.696 78.2912 139.482 92.1041 139.482 109.069C139.482 114.354 137.98 119.382 135.589 123.71L135.385 124.081L135.739 124.311C136.23 124.631 136.687 125.002 137.102 125.415L146.077 134.368L146.087 134.378L146.097 134.387C146.983 135.172 147.699 136.13 148.201 137.202C148.702 138.273 148.979 139.435 149.013 140.617C149.049 141.799 148.841 142.976 148.403 144.075C147.966 145.174 147.308 146.172 146.47 147.008C145.632 147.844 144.63 148.5 143.529 148.936C142.428 149.373 141.248 149.58 140.063 149.546C138.878 149.51 137.713 149.234 136.639 148.734C135.564 148.234 134.604 147.52 133.816 146.636L133.808 146.626L133.798 146.617L124.822 137.664L124.808 137.649L124.791 137.635C124.389 137.302 124.018 136.932 123.684 136.531L123.443 136.242L123.113 136.423C118.788 138.8 113.66 140.037 108.433 140.037C91.3632 140.037 77.4755 126.186 77.4755 109.158C77.4755 92.1305 91.3632 78.2787 108.433 78.2787ZM108.433 86.3209H108.244L108.154 86.4111C95.515 86.5114 85.4484 96.6151 85.4484 109.247C85.4484 121.943 95.6154 132.084 108.344 132.084C114.285 132.084 119.781 129.987 123.819 126.326L123.843 126.305L123.864 126.28C124.198 125.879 124.569 125.509 124.971 125.175L124.988 125.162L125.002 125.147L125.003 125.146H125.004L125.005 125.145V125.144L125.006 125.143L125.007 125.142H125.008L125.009 125.141V125.14L125.01 125.14L125.011 125.139H125.011V125.138L125.012 125.137L125.013 125.136L125.014 125.135H125.015V125.134H125.016L125.017 125.132H125.018L125.019 125.131V125.13L125.02 125.13L125.021 125.129H125.021L125.022 125.128V125.127L125.023 125.126L125.024 125.125H125.025V125.124L125.026 125.123L125.027 125.122L125.028 125.121H125.029V125.12H125.03L125.031 125.119H125.032L125.032 125.118V125.117H125.033L125.034 125.115H125.035V125.114L125.036 125.113L125.037 125.112L125.038 125.111H125.039V125.11L125.04 125.11L125.041 125.109L125.042 125.108L125.042 125.107H125.043L125.044 125.105H125.045L125.046 125.104V125.103H125.047L125.048 125.101H125.049V125.1L125.05 125.099L125.051 125.099L125.052 125.098H125.053V125.097L125.053 125.096L125.054 125.095L125.055 125.094L125.056 125.093H125.057L125.058 125.091L125.059 125.09L125.06 125.089H125.061V125.089L125.062 125.088H125.063V125.087L125.063 125.086H125.064V125.085L125.065 125.084H125.066V125.083H125.067L125.068 125.081L125.069 125.08L125.07 125.079H125.071L125.072 125.078L125.073 125.077L125.074 125.076H125.074V125.075L125.075 125.074H125.076V125.073L125.077 125.072H125.078V125.071L125.079 125.07L125.08 125.069H125.081L125.082 125.069V125.068L125.083 125.067L125.084 125.066H125.084L125.085 125.064L125.086 125.063L125.087 125.062H125.088V125.061L125.089 125.06L125.09 125.059L125.091 125.059H125.092V125.058L125.093 125.057L125.094 125.056H125.095L125.095 125.055V125.054L125.096 125.053L125.097 125.052H125.098V125.051L125.099 125.05L125.1 125.049L125.101 125.048H125.102V125.048L125.103 125.047L125.104 125.046H125.105L125.105 125.045V125.044L125.106 125.043L125.107 125.042H125.108L125.109 125.041V125.04L125.11 125.039L125.111 125.038H125.112V125.038L125.113 125.037L125.114 125.036L125.115 125.035H125.116V125.034L125.116 125.033L125.117 125.032H125.118L125.119 125.031V125.03L125.12 125.029L125.121 125.028H125.122L125.123 125.028V125.027L125.124 125.026L125.125 125.025H125.126V125.024L125.126 125.023L125.127 125.022L125.128 125.021H125.129V125.02H125.13L125.131 125.018H125.132L125.133 125.018V125.017L125.134 125.016L125.135 125.015H125.136L125.137 125.014V125.013L125.137 125.012L125.138 125.011H125.139V125.01L125.14 125.009L125.141 125.008L125.142 125.008H125.143V125.007H125.144L125.145 125.005H125.146L125.147 125.004V125.003L125.147 125.002L125.148 125.001H125.149V125L125.15 124.999L125.151 124.998L125.152 124.998H125.153V124.997L125.154 124.996L125.155 124.995L125.156 124.994L125.157 124.993H125.158L125.158 124.991H125.159L125.16 124.99V124.989H125.161L125.162 124.987H125.163V124.987L125.164 124.986L125.165 124.985L125.166 124.984H125.167V124.983L125.168 124.982L125.168 124.981L125.169 124.98L125.17 124.979H125.171L125.172 124.977H125.173L125.174 124.977V124.976H125.175V124.975L125.176 124.974H125.177V124.973L125.178 124.972L125.179 124.971L125.179 124.97H125.18V124.969H125.181L125.182 124.967L125.183 124.967L125.184 124.966H125.185L125.186 124.964L125.187 124.963L125.188 124.962H125.189V124.961L125.189 124.96H125.19V124.959L125.191 124.958H125.192V124.957L125.193 124.957L125.194 124.956H125.195L125.196 124.954L125.197 124.953L125.198 124.952H125.199L125.199 124.95L125.2 124.949L125.201 124.948H125.202V124.947L125.203 124.947H125.204V124.946L125.205 124.945H125.206V124.944L125.207 124.943L125.208 124.942H125.209L125.21 124.941V124.94L125.21 124.939L125.211 124.938H125.212V124.937L125.213 124.936L125.214 124.936L125.215 124.935H125.216V124.934L125.217 124.933L125.218 124.932H125.219L125.22 124.931V124.93L125.221 124.929L125.221 124.928H125.222L125.223 124.927V124.926L125.224 124.926L125.225 124.925H125.226V124.924L125.227 124.923L125.228 124.922L125.229 124.921H125.23V124.92L125.231 124.919L125.231 124.918H125.232L125.233 124.917V124.916L125.234 124.916L125.235 124.915H125.236L125.237 124.914V124.913L125.238 124.912L125.239 124.911H125.24V124.91L125.241 124.909L125.241 124.908L125.242 124.907H125.243V124.906L125.244 124.906L125.245 124.905H125.246L125.247 124.904V124.903L125.248 124.902L125.249 124.901H125.25L125.251 124.9V124.899L125.252 124.898L125.252 124.897H125.253V124.896L125.254 124.896L125.255 124.895L125.256 124.894H125.257V124.893H125.258L125.259 124.891H125.26L125.261 124.89V124.889L125.262 124.888L125.262 124.887H125.263V124.886L125.264 124.886L125.265 124.885L125.266 124.884H125.267V124.883L125.268 124.882L125.269 124.881H125.27L125.271 124.88V124.879H125.272L125.277 124.873L125.283 124.867C129.134 120.752 131.329 115.178 131.329 109.158C131.329 96.4621 121.162 86.3209 108.433 86.3209Z" fill="white"/>
<path d="M108.433 78.2787H108.622L108.712 78.1897C125.696 78.2912 139.482 92.1041 139.482 109.069C139.482 114.354 137.98 119.382 135.589 123.71L135.385 124.081L135.739 124.311C136.23 124.631 136.687 125.002 137.102 125.415L146.077 134.368L146.087 134.378L146.097 134.387C146.983 135.172 147.699 136.13 148.201 137.202C148.702 138.273 148.978 139.435 149.013 140.617C149.049 141.799 148.841 142.976 148.403 144.075C147.966 145.174 147.308 146.172 146.47 147.008C145.632 147.844 144.63 148.5 143.529 148.936C142.428 149.373 141.248 149.58 140.063 149.546C138.878 149.51 137.713 149.234 136.639 148.734C135.564 148.234 134.604 147.52 133.816 146.636L133.808 146.626L133.798 146.617L124.822 137.664L124.808 137.649L124.791 137.635C124.389 137.302 124.018 136.932 123.684 136.531L123.443 136.242L123.113 136.423C118.788 138.8 113.66 140.037 108.433 140.037C91.3632 140.037 77.4755 126.186 77.4755 109.158C77.4755 92.1305 91.3632 78.2787 108.433 78.2787ZM108.433 86.3209H108.244L108.154 86.4111C95.515 86.5114 85.4484 96.6151 85.4484 109.247C85.4484 121.943 95.6154 132.084 108.344 132.084C114.285 132.084 119.781 129.987 123.819 126.326L123.843 126.305L123.864 126.28C124.198 125.879 124.569 125.509 124.971 125.175L124.988 125.162L125.002 125.147L125.003 125.146H125.004L125.005 125.145V125.144L125.006 125.143L125.007 125.142H125.008L125.009 125.141V125.14L125.01 125.14L125.011 125.139H125.011V125.138L125.012 125.137L125.013 125.136L125.014 125.135H125.015V125.134H125.016L125.017 125.132H125.018L125.019 125.131V125.13L125.02 125.13L125.021 125.129H125.021L125.022 125.128V125.127L125.023 125.126L125.024 125.125H125.025V125.124L125.026 125.123L125.027 125.122L125.028 125.121H125.029V125.12H125.03L125.031 125.119H125.032L125.032 125.118V125.117H125.033L125.034 125.115H125.035V125.114L125.036 125.113L125.037 125.112L125.038 125.111H125.039V125.11L125.04 125.11L125.041 125.109L125.042 125.108L125.042 125.107H125.043L125.044 125.105H125.045L125.046 125.104V125.103H125.047L125.048 125.101H125.049V125.1L125.05 125.099L125.051 125.099L125.052 125.098H125.053V125.097L125.053 125.096L125.054 125.095L125.055 125.094L125.056 125.093H125.057L125.058 125.091L125.059 125.09L125.06 125.089H125.061V125.089L125.062 125.088H125.063V125.087L125.063 125.086H125.064V125.085L125.065 125.084H125.066V125.083H125.067L125.068 125.081L125.069 125.08L125.07 125.079H125.071L125.072 125.078L125.073 125.077L125.074 125.076H125.074V125.075L125.075 125.074H125.076V125.073L125.077 125.072H125.078V125.071L125.079 125.07L125.08 125.069H125.081L125.082 125.069V125.068L125.083 125.067L125.084 125.066H125.084L125.085 125.064L125.086 125.063L125.087 125.062H125.088V125.061L125.089 125.06L125.09 125.059L125.091 125.059H125.092V125.058L125.093 125.057L125.094 125.056H125.095L125.095 125.055V125.054L125.096 125.053L125.097 125.052H125.098V125.051L125.099 125.05L125.1 125.049L125.101 125.048H125.102V125.048L125.103 125.047L125.104 125.046H125.105L125.105 125.045V125.044L125.106 125.043L125.107 125.042H125.108L125.109 125.041V125.04L125.11 125.039L125.111 125.038H125.112V125.038L125.113 125.037L125.114 125.036L125.115 125.035H125.116V125.034L125.116 125.033L125.117 125.032H125.118L125.119 125.031V125.03L125.12 125.029L125.121 125.028H125.122L125.123 125.028V125.027L125.124 125.026L125.125 125.025H125.126V125.024L125.126 125.023L125.127 125.022L125.128 125.021H125.129V125.02H125.13L125.131 125.018H125.132L125.133 125.018V125.017L125.134 125.016L125.135 125.015H125.136L125.137 125.014V125.013L125.137 125.012L125.138 125.011H125.139V125.01L125.14 125.009L125.141 125.008L125.142 125.008H125.143V125.007H125.144L125.145 125.005H125.146L125.147 125.004V125.003L125.147 125.002L125.148 125.001H125.149V125L125.15 124.999L125.151 124.998L125.152 124.998H125.153V124.997L125.154 124.996L125.155 124.995L125.156 124.994L125.157 124.993H125.158L125.158 124.991H125.159L125.16 124.99V124.989H125.161L125.162 124.987H125.163V124.987L125.164 124.986L125.165 124.985L125.166 124.984H125.167V124.983L125.168 124.982L125.168 124.981L125.169 124.98L125.17 124.979H125.171L125.172 124.977H125.173L125.174 124.977V124.976H125.175V124.975L125.176 124.974H125.177V124.973L125.178 124.972L125.179 124.971L125.179 124.97H125.18V124.969H125.181L125.182 124.967L125.183 124.967L125.184 124.966H125.185L125.186 124.964L125.187 124.963L125.188 124.962H125.189V124.961L125.189 124.96H125.19V124.959L125.191 124.958H125.192V124.957L125.193 124.957L125.194 124.956H125.195L125.196 124.954L125.197 124.953L125.198 124.952H125.199L125.199 124.95L125.2 124.949L125.201 124.948H125.202V124.947L125.203 124.947H125.204V124.946L125.205 124.945H125.206V124.944L125.207 124.943L125.208 124.942H125.209L125.21 124.941V124.94L125.21 124.939L125.211 124.938H125.212V124.937L125.213 124.936L125.214 124.936L125.215 124.935H125.216V124.934L125.217 124.933L125.218 124.932H125.219L125.22 124.931V124.93L125.221 124.929L125.221 124.928H125.222L125.223 124.927V124.926L125.224 124.926L125.225 124.925H125.226V124.924L125.227 124.923L125.228 124.922L125.229 124.921H125.23V124.92L125.231 124.919L125.231 124.918H125.232L125.233 124.917V124.916L125.234 124.916L125.235 124.915H125.236L125.237 124.914V124.913L125.238 124.912L125.239 124.911H125.24V124.91L125.241 124.909L125.241 124.908L125.242 124.907H125.243V124.906L125.244 124.906L125.245 124.905H125.246L125.247 124.904V124.903L125.248 124.902L125.249 124.901H125.25L125.251 124.9V124.899L125.252 124.898L125.252 124.897H125.253V124.896L125.254 124.896L125.255 124.895L125.256 124.894H125.257V124.893H125.258L125.259 124.891H125.26L125.261 124.89V124.889L125.262 124.888L125.262 124.887H125.263V124.886L125.264 124.886L125.265 124.885L125.266 124.884H125.267V124.883L125.268 124.882L125.269 124.881H125.27L125.271 124.88V124.879H125.272L125.277 124.873L125.283 124.867C129.134 120.752 131.329 115.178 131.329 109.158C131.329 96.4621 121.162 86.3209 108.433 86.3209Z" stroke="white"/>
<path d="M108.433 78.2787H108.622L108.712 78.1897C125.696 78.2912 139.482 92.1041 139.482 109.069C139.482 114.354 137.98 119.382 135.589 123.71L135.385 124.081L135.739 124.311C136.23 124.631 136.687 125.002 137.102 125.415L146.077 134.368L146.087 134.378L146.097 134.387C146.983 135.172 147.699 136.13 148.201 137.202C148.702 138.273 148.978 139.435 149.013 140.617C149.049 141.799 148.841 142.976 148.403 144.075C147.966 145.174 147.308 146.172 146.47 147.008C145.632 147.844 144.63 148.5 143.529 148.936C142.428 149.373 141.248 149.58 140.063 149.546C138.878 149.51 137.713 149.234 136.639 148.734C135.564 148.234 134.604 147.52 133.816 146.636L133.808 146.626L133.798 146.617L124.822 137.664L124.808 137.649L124.791 137.635C124.389 137.302 124.018 136.932 123.684 136.531L123.443 136.242L123.113 136.423C118.788 138.8 113.66 140.037 108.433 140.037C91.3632 140.037 77.4755 126.186 77.4755 109.158C77.4755 92.1305 91.3632 78.2787 108.433 78.2787ZM108.433 86.3209H108.244L108.154 86.4111C95.515 86.5114 85.4484 96.6151 85.4484 109.247C85.4484 121.943 95.6154 132.084 108.344 132.084C114.285 132.084 119.781 129.987 123.819 126.326L123.843 126.305L123.864 126.28C124.198 125.879 124.569 125.509 124.971 125.175L124.988 125.162L125.002 125.147L125.003 125.146H125.004L125.005 125.145V125.144L125.006 125.143L125.007 125.142H125.008L125.009 125.141V125.14L125.01 125.14L125.011 125.139H125.011V125.138L125.012 125.137L125.013 125.136L125.014 125.135H125.015V125.134H125.016L125.017 125.132H125.018L125.019 125.131V125.13L125.02 125.13L125.021 125.129H125.021L125.022 125.128V125.127L125.023 125.126L125.024 125.125H125.025V125.124L125.026 125.123L125.027 125.122L125.028 125.121H125.029V125.12H125.03L125.031 125.119H125.032L125.032 125.118V125.117H125.033L125.034 125.115H125.035V125.114L125.036 125.113L125.037 125.112L125.038 125.111H125.039V125.11L125.04 125.11L125.041 125.109L125.042 125.108L125.042 125.107H125.043L125.044 125.105H125.045L125.046 125.104V125.103H125.047L125.048 125.101H125.049V125.1L125.05 125.099L125.051 125.099L125.052 125.098H125.053V125.097L125.053 125.096L125.054 125.095L125.055 125.094L125.056 125.093H125.057L125.058 125.091L125.059 125.09L125.06 125.089H125.061V125.089L125.062 125.088H125.063V125.087L125.063 125.086H125.064V125.085L125.065 125.084H125.066V125.083H125.067L125.068 125.081L125.069 125.08L125.07 125.079H125.071L125.072 125.078L125.073 125.077L125.074 125.076H125.074V125.075L125.075 125.074H125.076V125.073L125.077 125.072H125.078V125.071L125.079 125.07L125.08 125.069H125.081L125.082 125.069V125.068L125.083 125.067L125.084 125.066H125.084L125.085 125.064L125.086 125.063L125.087 125.062H125.088V125.061L125.089 125.06L125.09 125.059L125.091 125.059H125.092V125.058L125.093 125.057L125.094 125.056H125.095L125.095 125.055V125.054L125.096 125.053L125.097 125.052H125.098V125.051L125.099 125.05L125.1 125.049L125.101 125.048H125.102V125.048L125.103 125.047L125.104 125.046H125.105L125.105 125.045V125.044L125.106 125.043L125.107 125.042H125.108L125.109 125.041V125.04L125.11 125.039L125.111 125.038H125.112V125.038L125.113 125.037L125.114 125.036L125.115 125.035H125.116V125.034L125.116 125.033L125.117 125.032H125.118L125.119 125.031V125.03L125.12 125.029L125.121 125.028H125.122L125.123 125.028V125.027L125.124 125.026L125.125 125.025H125.126V125.024L125.126 125.023L125.127 125.022L125.128 125.021H125.129V125.02H125.13L125.131 125.018H125.132L125.133 125.018V125.017L125.134 125.016L125.135 125.015H125.136L125.137 125.014V125.013L125.137 125.012L125.138 125.011H125.139V125.01L125.14 125.009L125.141 125.008L125.142 125.008H125.143V125.007H125.144L125.145 125.005H125.146L125.147 125.004V125.003L125.147 125.002L125.148 125.001H125.149V125L125.15 124.999L125.151 124.998L125.152 124.998H125.153V124.997L125.154 124.996L125.155 124.995L125.156 124.994L125.157 124.993H125.158L125.158 124.991H125.159L125.16 124.99V124.989H125.161L125.162 124.987H125.163V124.987L125.164 124.986L125.165 124.985L125.166 124.984H125.167V124.983L125.168 124.982L125.168 124.981L125.169 124.98L125.17 124.979H125.171L125.172 124.977H125.173L125.174 124.977V124.976H125.175V124.975L125.176 124.974H125.177V124.973L125.178 124.972L125.179 124.971L125.179 124.97H125.18V124.969H125.181L125.182 124.967L125.183 124.967L125.184 124.966H125.185L125.186 124.964L125.187 124.963L125.188 124.962H125.189V124.961L125.189 124.96H125.19V124.959L125.191 124.958H125.192V124.957L125.193 124.957L125.194 124.956H125.195L125.196 124.954L125.197 124.953L125.198 124.952H125.199L125.199 124.95L125.2 124.949L125.201 124.948H125.202V124.947L125.203 124.947H125.204V124.946L125.205 124.945H125.206V124.944L125.207 124.943L125.208 124.942H125.209L125.21 124.941V124.94L125.21 124.939L125.211 124.938H125.212V124.937L125.213 124.936L125.214 124.936L125.215 124.935H125.216V124.934L125.217 124.933L125.218 124.932H125.219L125.22 124.931V124.93L125.221 124.929L125.221 124.928H125.222L125.223 124.927V124.926L125.224 124.926L125.225 124.925H125.226V124.924L125.227 124.923L125.228 124.922L125.229 124.921H125.23V124.92L125.231 124.919L125.231 124.918H125.232L125.233 124.917V124.916L125.234 124.916L125.235 124.915H125.236L125.237 124.914V124.913L125.238 124.912L125.239 124.911H125.24V124.91L125.241 124.909L125.241 124.908L125.242 124.907H125.243V124.906L125.244 124.906L125.245 124.905H125.246L125.247 124.904V124.903L125.248 124.902L125.249 124.901H125.25L125.251 124.9V124.899L125.252 124.898L125.252 124.897H125.253V124.896L125.254 124.896L125.255 124.895L125.256 124.894H125.257V124.893H125.258L125.259 124.891H125.26L125.261 124.89V124.889L125.262 124.888L125.262 124.887H125.263V124.886L125.264 124.886L125.265 124.885L125.266 124.884H125.267V124.883L125.268 124.882L125.269 124.881H125.27L125.271 124.88V124.879H125.272L125.277 124.873L125.283 124.867C129.134 120.752 131.329 115.178 131.329 109.158C131.329 96.4621 121.162 86.3209 108.433 86.3209Z" stroke="white"/>
</svg>
