<svg width="25" height="25" viewBox="0 0 25 25" fill="none" xmlns="http://www.w3.org/2000/svg">
<path d="M4.45435 24.7127C4.31214 24.532 4.19265 24.2291 4.18883 24.0397C4.18501 23.8503 3.98342 21.946 3.74085 19.8079L3.29982 15.9205L2.22475 15.6969C0.407073 15.3187 0 14.5016 0 11.231C0 9.4433 0.0565206 8.97123 0.363096 8.19835C0.912712 6.81275 1.43758 6.56564 3.83181 6.56525L5.8078 6.56493L12.2646 3.28246C15.8158 1.47711 18.9011 0 19.1209 0C19.4015 0 19.5466 0.137374 19.6085 0.461597C19.6569 0.715475 19.6765 5.66759 19.6519 11.4663C19.6117 20.9454 19.5807 22.0307 19.3444 22.2201C19.1421 22.3823 17.849 21.805 13.7242 19.7108C10.7776 18.2148 8.33092 17.0365 8.28705 17.0923C8.24319 17.148 8.34765 18.7488 8.51919 20.6496C8.92383 25.1332 9.02498 24.9079 6.57326 24.9838C5.04008 25.0313 4.66745 24.9837 4.45435 24.7127ZM18.2355 11.0979V2.29586L16.9041 2.96076C16.1719 3.32646 13.5921 4.62695 11.1713 5.85073L6.76971 8.0758L6.8141 11.1416L6.85848 14.2075L12.426 17.0446C15.4881 18.605 18.0479 19.8858 18.1145 19.8908C18.181 19.8958 18.2355 15.939 18.2355 11.0979Z" fill="white"/>
<path d="M20.7483 11.8096C20.7611 11.361 21.1776 10.9136 21.5306 10.9015C22.4542 10.9015 23.4331 10.8825 24.2857 10.9015C24.6223 10.91 25.0016 11.3815 25 11.8096C24.9982 12.278 24.7884 12.5874 24.5039 12.6847C24.45 12.7031 22.5757 12.7403 21.4086 12.6847C21.1121 12.6706 20.7375 12.1866 20.7483 11.8096Z" fill="white"/>
<path d="M21.0241 8.13971C20.794 7.72069 20.9157 6.93636 21.2162 6.60508C22.0195 5.7668 22.8607 4.8612 23.6125 4.10476C23.9099 3.80695 24.4933 3.89097 24.7221 4.28119C24.9725 4.70818 24.9564 5.17958 24.7612 5.52614C24.7243 5.59176 23.114 7.32651 22.0691 8.33515C21.8036 8.59143 21.2175 8.49183 21.0241 8.13971Z" fill="white"/>
<path d="M21.0158 15.4577C21.3046 15.109 21.945 15.1403 22.2606 15.462C23.0668 16.3291 23.933 17.2329 24.6654 18.0486C24.954 18.3715 24.9932 19.1067 24.7269 19.4494C24.4355 19.8243 24.0608 19.8762 23.7523 19.6872C23.6939 19.6514 22.0348 17.9216 21.0506 16.7813C20.8005 16.4915 20.7731 15.7507 21.0158 15.4577Z" fill="white"/>
</svg>
