<svg width="25" height="26" viewBox="0 0 25 26" fill="none" xmlns="http://www.w3.org/2000/svg">
<path d="M10.8394 0.931247C4.86223 0.931247 0 5.69907 0 11.5601C0 17.4212 4.86223 22.189 10.8394 22.189C12.6666 22.189 14.4628 21.7639 15.9803 20.9439C16.1019 21.0874 16.2367 21.2195 16.3829 21.3387L19.4799 24.3756C19.7659 24.6911 20.1146 24.946 20.5046 25.1246C20.8947 25.3031 21.3179 25.4017 21.7481 25.4141C22.1784 25.4265 22.6068 25.3526 23.0069 25.1968C23.407 25.041 23.7704 24.8067 24.0748 24.5082C24.3792 24.2097 24.6181 23.8534 24.777 23.461C24.9359 23.0687 25.0113 22.6487 24.9986 22.2267C24.986 21.8048 24.8855 21.3898 24.7034 21.0074C24.5212 20.6249 24.2613 20.2829 23.9395 20.0025L20.8426 16.9657C20.6917 16.8177 20.5256 16.6854 20.347 16.5709C21.1832 15.0829 21.7097 13.3519 21.7097 11.5298C21.7097 5.6687 16.8475 0.900879 10.8703 0.900879L10.8394 0.931247ZM10.8394 3.96807C15.1441 3.96807 18.5818 7.33895 18.5818 11.5601C18.5818 13.5644 17.8385 15.4169 16.5378 16.7835C16.5068 16.8139 16.4758 16.8442 16.4449 16.8746C16.2986 16.9938 16.1638 17.1259 16.0423 17.2694C14.6796 18.4841 12.8214 19.1826 10.8084 19.1826C6.50362 19.1826 3.06599 15.8117 3.06599 11.5905C3.06599 7.36932 6.50362 3.99844 10.8084 3.99844L10.8394 3.96807Z" fill="#1B5330"/>
</svg>
