<svg width="171" height="177" viewBox="0 0 171 177" fill="none" xmlns="http://www.w3.org/2000/svg">
<path d="M147.298 42.0097L110.681 5.39312C109.955 4.66728 108.971 4.26 107.944 4.26H34.4023C27.5459 4.26 21.9688 9.837 21.9688 16.6936V153.706C21.9688 160.563 27.5459 166.14 34.4023 166.14H135.998C142.854 166.14 148.431 160.563 148.431 153.706V44.7467C148.431 43.7198 148.024 42.7355 147.298 42.0097ZM111.814 17.4737L135.218 40.8766H116.507C113.92 40.8766 111.814 38.7708 111.814 36.1834V17.4737ZM140.691 153.706C140.691 156.294 138.585 158.4 135.998 158.4H34.4023C31.8149 158.4 29.7092 156.294 29.7092 153.706V16.6936C29.7092 14.1062 31.8149 12.0004 34.4023 12.0004H104.074V36.1834C104.074 43.0399 109.651 48.6169 116.507 48.6169H140.691V153.706Z" fill="#21461F"/>
<path d="M48.0928 47.11H88.5469C90.6844 47.11 92.4171 45.3772 92.4171 43.2398C92.4171 41.1023 90.6844 39.3695 88.5469 39.3695H48.0928C45.9554 39.3695 44.2227 41.1023 44.2227 43.2398C44.2227 45.3772 45.9554 47.11 48.0928 47.11Z" fill="#21461F"/>
<path d="M44.2227 71.2136C44.2227 73.351 45.9554 75.0837 48.0928 75.0837H122.308C124.445 75.0837 126.178 73.351 126.178 71.2136C126.178 69.0761 124.445 67.3434 122.308 67.3434H48.0928C45.9554 67.3434 44.2227 69.0761 44.2227 71.2136Z" fill="#21461F"/>
<path d="M122.308 95.3163H48.0928C45.9554 95.3163 44.2227 97.049 44.2227 99.1864C44.2227 101.324 45.9554 103.057 48.0928 103.057H122.308C124.445 103.057 126.178 101.324 126.178 99.1864C126.178 97.049 124.445 95.3163 122.308 95.3163Z" fill="#21461F"/>
<path d="M122.308 123.29H48.0928C45.9554 123.29 44.2227 125.023 44.2227 127.16C44.2227 129.298 45.9554 131.03 48.0928 131.03H122.308C124.445 131.03 126.178 129.298 126.178 127.16C126.178 125.023 124.445 123.29 122.308 123.29Z" fill="#21461F"/>
</svg>
