<svg width="92" height="55" viewBox="0 0 92 55" fill="none" xmlns="http://www.w3.org/2000/svg">
<path d="M8.28632 45.164H21.8995V51.232H0V13.0747H8.28632V45.164Z" fill="#0A2162"/>
<path d="M51.8558 34.7407H30.3916V54.5653H51.8558V34.7407Z" fill="white"/>
<path d="M31.4652 54.5653C42.7268 54.5653 51.8562 46.1334 51.8562 35.732C51.8562 25.3307 42.7268 16.8987 31.4652 16.8987C20.2036 16.8987 11.0742 25.3307 11.0742 35.732C11.0742 46.1334 20.2036 54.5653 31.4652 54.5653Z" fill="white"/>
<path d="M7.60069 5.472C8.30517 5.61067 8.87106 5.936 9.29837 6.448C9.72568 6.94933 9.93933 7.52533 9.93933 8.176C9.93933 9.11467 9.58132 9.86133 8.86529 10.416C8.16081 10.96 7.17338 11.232 5.903 11.232H0.238281V0H5.71245C6.94818 0 7.91251 0.261333 8.60544 0.784C9.30992 1.30667 9.66216 2.016 9.66216 2.912C9.66216 3.57333 9.47161 4.12267 9.09049 4.56C8.72093 4.99733 8.22433 5.30133 7.60069 5.472ZM3.20057 4.544H5.14078C5.62583 4.544 5.99539 4.448 6.24947 4.256C6.51509 4.05333 6.64791 3.76 6.64791 3.376C6.64791 2.992 6.51509 2.69867 6.24947 2.496C5.99539 2.29333 5.62583 2.192 5.14078 2.192H3.20057V4.544ZM5.3833 9.024C5.87991 9.024 6.26102 8.92267 6.52664 8.72C6.80382 8.50667 6.9424 8.20267 6.9424 7.808C6.9424 7.41333 6.79804 7.104 6.50932 6.88C6.23215 6.656 5.84526 6.544 5.34866 6.544H3.20057V9.024H5.3833ZM21.2026 2.304V11.232H18.2403V10.016C17.94 10.4107 17.53 10.7307 17.0103 10.976C16.5022 11.2107 15.9363 11.328 15.3127 11.328C14.5735 11.328 13.921 11.1787 13.3551 10.88C12.7892 10.5707 12.3504 10.128 12.0386 9.552C11.7267 8.976 11.5708 8.29867 11.5708 7.52V2.304H14.5158V7.152C14.5158 7.74933 14.6833 8.21333 15.0182 8.544C15.3531 8.87467 15.8035 9.04 16.3694 9.04C16.9468 9.04 17.403 8.87467 17.7379 8.544C18.0728 8.21333 18.2403 7.74933 18.2403 7.152V2.304H21.2026ZM27.2628 11.36C26.4197 11.36 25.669 11.2267 25.0108 10.96C24.3525 10.6933 23.8328 10.3307 23.4517 9.872C23.0705 9.40267 22.8569 8.88 22.8107 8.304H25.7383C25.773 8.61333 25.9289 8.864 26.2061 9.056C26.4832 9.248 26.8239 9.344 27.2281 9.344C27.5977 9.344 27.8807 9.28 28.077 9.152C28.2849 9.01333 28.3888 8.83733 28.3888 8.624C28.3888 8.368 28.2444 8.18133 27.9557 8.064C27.667 7.936 27.1993 7.79733 26.5525 7.648C25.8596 7.49867 25.2822 7.344 24.8202 7.184C24.3582 7.01333 23.9598 6.752 23.6249 6.4C23.29 6.03733 23.1225 5.552 23.1225 4.944C23.1225 4.432 23.2727 3.968 23.5729 3.552C23.8847 3.12533 24.3352 2.78933 24.9241 2.544C25.5247 2.29867 26.2349 2.176 27.0549 2.176C28.2675 2.176 29.2203 2.45333 29.9133 3.008C30.6177 3.56267 31.0219 4.29867 31.1259 5.216H28.3888C28.3426 4.90667 28.1925 4.66133 27.9384 4.48C27.6959 4.29867 27.3725 4.208 26.9683 4.208C26.6218 4.208 26.3562 4.272 26.1714 4.4C25.9866 4.51733 25.8942 4.68267 25.8942 4.896C25.8942 5.152 26.0386 5.344 26.3273 5.472C26.6276 5.6 27.0896 5.728 27.7132 5.856C28.4292 6.02667 29.0124 6.19733 29.4628 6.368C29.9133 6.528 30.3059 6.79467 30.6408 7.168C30.9873 7.53067 31.1663 8.02133 31.1779 8.64C31.1779 9.16267 31.0162 9.632 30.6928 10.048C30.381 10.4533 29.9248 10.7733 29.3243 11.008C28.7353 11.2427 28.0481 11.36 27.2628 11.36ZM32.4012 6.768C32.4012 5.84 32.6033 5.02933 33.0075 4.336C33.4232 3.64267 33.9949 3.10933 34.7225 2.736C35.4616 2.36267 36.3047 2.176 37.2517 2.176C38.4643 2.176 39.4749 2.46933 40.2833 3.056C41.1032 3.64267 41.6403 4.46933 41.8943 5.536H38.7415C38.4759 4.85333 37.962 4.512 37.1997 4.512C36.6569 4.512 36.2238 4.70933 35.9005 5.104C35.5771 5.488 35.4154 6.04267 35.4154 6.768C35.4154 7.49333 35.5771 8.05333 35.9005 8.448C36.2238 8.832 36.6569 9.024 37.1997 9.024C37.962 9.024 38.4759 8.68267 38.7415 8H41.8943C41.6403 9.04533 41.1032 9.86667 40.2833 10.464C39.4633 11.0613 38.4528 11.36 37.2517 11.36C36.3047 11.36 35.4616 11.1733 34.7225 10.8C33.9949 10.4267 33.4232 9.89333 33.0075 9.2C32.6033 8.50667 32.4012 7.696 32.4012 6.768ZM42.8901 6.752C42.8901 5.83467 43.0749 5.02933 43.4444 4.336C43.8255 3.64267 44.3395 3.10933 44.9862 2.736C45.6329 2.36267 46.3547 2.176 47.1516 2.176C47.833 2.176 48.4278 2.304 48.9359 2.56C49.4556 2.816 49.854 3.152 50.1312 3.568V2.304H53.0935V11.232H50.1312V9.968C49.8425 10.384 49.4383 10.72 48.9186 10.976C48.4104 11.232 47.8157 11.36 47.1343 11.36C46.349 11.36 45.6329 11.1733 44.9862 10.8C44.3395 10.416 43.8255 9.87733 43.4444 9.184C43.0749 8.48 42.8901 7.66933 42.8901 6.752ZM50.1312 6.768C50.1312 6.08533 49.9233 5.54667 49.5076 5.152C49.1034 4.75733 48.6068 4.56 48.0178 4.56C47.4288 4.56 46.9264 4.75733 46.5106 5.152C46.1064 5.536 45.9043 6.06933 45.9043 6.752C45.9043 7.43467 46.1064 7.97867 46.5106 8.384C46.9264 8.77867 47.4288 8.976 48.0178 8.976C48.6068 8.976 49.1034 8.77867 49.5076 8.384C49.9233 7.98933 50.1312 7.45067 50.1312 6.768Z" fill="#7AC3E6"/>
<path d="M66.0305 25.3747C67.0958 23.9169 68.5557 22.7324 70.4104 21.8213C72.3044 20.9102 74.455 20.4546 76.8619 20.4546C79.6635 20.4546 82.1888 21.0924 84.4379 22.368C86.7264 23.6435 88.5219 25.4657 89.824 27.8347C91.1655 30.167 91.8364 32.8823 91.8364 35.98C91.8364 39.0777 91.1655 41.8293 89.824 44.2347C88.5219 46.6037 86.7264 48.444 84.4379 49.756C82.1888 51.068 79.6635 51.724 76.8619 51.724C74.4153 51.724 72.265 51.2867 70.4104 50.412C68.5954 49.501 67.1352 48.3347 66.0305 46.9134V51.232H57.7441V2.44531H66.0305V25.3747ZM83.3725 35.98C83.3725 34.1577 82.9582 32.5907 82.1296 31.2787C81.3403 29.9303 80.2749 28.9097 78.9334 28.2173C77.6313 27.525 76.2108 27.1787 74.6719 27.1787C73.1724 27.1787 71.7518 27.543 70.4104 28.272C69.1082 28.9643 68.0429 29.985 67.2142 31.3333C66.4249 32.6817 66.0305 34.267 66.0305 36.0893C66.0305 37.9117 66.4249 39.497 67.2142 40.8453C68.0429 42.1937 69.1082 43.2323 70.4104 43.9613C71.7518 44.6537 73.1724 45 74.6719 45C76.2108 45 77.6313 44.6357 78.9334 43.9067C80.2749 43.1777 81.3403 42.139 82.1296 40.7907C82.9582 39.4423 83.3725 37.8387 83.3725 35.98Z" fill="#0A2162"/>
<path d="M33.5 51C44.2696 51 53 42.4934 53 32C53 21.5066 44.2696 13 33.5 13C22.7304 13 14 21.5066 14 32C14 42.4934 22.7304 51 33.5 51Z" fill="#7AC3E6"/>
<path d="M53 31H32V51H53V31Z" fill="#7AC3E6"/>
<path d="M33.3433 20.3224H33.4126L33.4453 20.2898C39.6686 20.327 44.7198 25.3835 44.7198 31.5938C44.7198 33.5285 44.1696 35.3691 43.2935 36.9535L43.2186 37.0891L43.3484 37.1735C43.5283 37.2908 43.6959 37.4265 43.8478 37.5778L47.1365 40.8551L47.1402 40.8588L47.1439 40.8621C47.4684 41.1495 47.7306 41.5001 47.9146 41.8925C48.0982 42.2845 48.1996 42.7101 48.2123 43.1428C48.2253 43.5755 48.1491 44.0061 47.9888 44.4085C47.8286 44.8108 47.5874 45.1761 47.2804 45.4821C46.9733 45.7881 46.6064 46.0285 46.2026 46.1881C45.7992 46.3478 45.3671 46.4238 44.9329 46.4111C44.4987 46.3981 44.0716 46.2971 43.6782 46.1141C43.2845 45.9311 42.9326 45.6698 42.6439 45.3461L42.6409 45.3425L42.6373 45.3391L39.3485 42.0615L39.3432 42.0561L39.3371 42.0511C39.1896 41.9291 39.0538 41.7938 38.9314 41.6468L38.8431 41.5411L38.722 41.6075C37.1375 42.4775 35.2583 42.9305 33.3433 42.9305C27.0886 42.9305 22 37.8598 22 31.6265C22 25.3931 27.0886 20.3224 33.3433 20.3224ZM33.3433 23.2664H33.2741L33.241 23.2994C28.6099 23.3361 24.9214 27.0348 24.9214 31.6591C24.9214 36.3068 28.6467 40.0191 33.3105 40.0191C35.4874 40.0191 37.5014 39.2515 38.9809 37.9111L38.9896 37.9035L38.9973 37.8945C39.1197 37.7475 39.2555 37.6121 39.403 37.4898L39.409 37.4851L39.4144 37.4795L39.4154 37.4788L39.4161 37.4778L39.4171 37.4768L39.4181 37.4758L39.4191 37.4751L39.4198 37.4741L39.4208 37.4731L39.4218 37.4725L39.4224 37.4715L39.4234 37.4705L39.4244 37.4698L39.4254 37.4688L39.4261 37.4678L39.4271 37.4668L39.4281 37.4658L39.4291 37.4648L39.4301 37.4641L39.4311 37.4628L39.4321 37.4618L39.4331 37.4608L39.4341 37.4598L39.4351 37.4588L39.4361 37.4578L39.4371 37.4571L39.4378 37.4561L39.4388 37.4551L39.4398 37.4541L39.4408 37.4535L39.4415 37.4525L39.4425 37.4515L39.4435 37.4508L39.4442 37.4498L39.4452 37.4488L39.4462 37.4478L39.4472 37.4471L39.4478 37.4461L39.4489 37.4451L39.4499 37.4441L39.4509 37.4435L39.4515 37.4425L39.4525 37.4415L39.4535 37.4408L39.4542 37.4398L39.4552 37.4388L39.4562 37.4378L39.4572 37.4371L39.4579 37.4361L39.4589 37.4351L39.4599 37.4341L39.4609 37.4335L39.4616 37.4325L39.4626 37.4315L39.4636 37.4308L39.4642 37.4298L39.4652 37.4288L39.4662 37.4281L39.4672 37.4271L39.4679 37.4261L39.4689 37.4251L39.4699 37.4241L39.4709 37.4231L39.4719 37.4225L39.4729 37.4211L39.4739 37.4201L39.4749 37.4191L39.4759 37.4181L39.477 37.4175L39.4776 37.4165L39.4786 37.4155L39.4796 37.4148L39.4803 37.4138L39.4813 37.4131L39.482 37.4121L39.483 37.4111L39.484 37.4105L39.4846 37.4095L39.4856 37.4085L39.4866 37.4075L39.4877 37.4068L39.4883 37.4058L39.4893 37.4048L39.4903 37.4041L39.491 37.4031L39.492 37.4021L39.493 37.4011L39.494 37.4005L39.4947 37.3995L39.4957 37.3985L39.4967 37.3975L39.4977 37.3968L39.4984 37.3958L39.4994 37.3948L39.5004 37.3941L39.501 37.3931L39.502 37.3921L39.503 37.3911L39.504 37.3905L39.5047 37.3895L39.5057 37.3885L39.5067 37.3875L39.5077 37.3868L39.5084 37.3858L39.5094 37.3848L39.5104 37.3838L39.5114 37.3831L39.5121 37.3821L39.5131 37.3815L39.5151 37.3791L39.5171 37.3771C40.9283 35.8705 41.7324 33.8301 41.7324 31.6265C41.7324 26.9788 38.0072 23.2664 33.3433 23.2664Z" fill="white" stroke="white"/>
</svg>
